<svg width="80" height="80" viewBox="0 0 80 80" fill="none" xmlns="http://www.w3.org/2000/svg">
<g clip-path="url(#clip0_6_767)">
<path d="M24.19 30.44L39.3867 21.6667C39.5732 21.5593 39.7847 21.5028 40 21.5028C40.2153 21.5028 40.4267 21.5593 40.6133 21.6667L55.81 30.44C55.9969 30.5483 56.152 30.7039 56.2596 30.8911C56.3673 31.0784 56.4237 31.2907 56.4233 31.5067V49.05C56.4228 49.2654 56.3659 49.4769 56.2583 49.6634C56.1507 49.85 55.9962 50.0051 55.81 50.1133L40.6133 58.8867C40.4267 58.994 40.2153 59.0505 40 59.0505C39.7847 59.0505 39.5732 58.994 39.3867 58.8867L24.19 50.1133C24.0031 50.0051 23.848 49.8495 23.7404 49.6622C23.6327 49.475 23.5762 49.2627 23.5767 49.0467V31.5067C23.5766 31.2907 23.6332 31.0786 23.7408 30.8914C23.8484 30.7042 24.0033 30.5486 24.19 30.44ZM79.5067 38.4333L61.3533 6.85001C60.6933 5.70668 59.4733 4.86334 58.1533 4.86334H21.85C20.53 4.86334 19.31 5.70668 18.65 6.85001L0.496662 38.3633C0.1731 38.9305 0.00292969 39.5721 0.00292969 40.225C0.00292969 40.8779 0.1731 41.5196 0.496662 42.0867L18.6533 73.4133C19.31 74.5533 20.53 75.1367 21.85 75.1367H58.16C59.4767 75.1367 60.6933 74.57 61.3567 73.43L79.51 42.0533C79.8334 41.505 80.0039 40.88 80.0039 40.2433C80.0039 39.6067 79.8334 38.9817 79.51 38.4333M64.4767 53.62C64.4704 53.8506 64.4045 54.0756 64.2853 54.2731C64.1662 54.4706 63.9978 54.6337 63.7967 54.7467L40.6667 68.0867C40.4677 68.2004 40.2425 68.2602 40.0133 68.2602C39.7842 68.2602 39.559 68.2004 39.36 68.0867L16.2167 54.7467C16.0149 54.6342 15.8459 54.4712 15.7261 54.2737C15.6063 54.0761 15.5399 53.8509 15.5333 53.62V26.9333C15.5333 26.4667 15.81 26.0367 16.2133 25.8067L39.3333 12.4667C39.7333 12.2333 40.24 12.2333 40.64 12.4667L63.7833 25.81C63.9857 25.9221 64.1554 26.0849 64.2758 26.2825C64.3962 26.48 64.4631 26.7054 64.47 26.9367L64.4767 53.62Z" fill="white"/>
</g>
<defs>
<clipPath id="clip0_6_767">
<rect width="80" height="80" fill="white"/>
</clipPath>
</defs>
</svg>
