<svg width="80" height="80" viewBox="0 0 80 80" fill="none" xmlns="http://www.w3.org/2000/svg">
<g clip-path="url(#clip0_6_724)">
<path d="M80 61.96C78.8357 62.4003 77.5505 62.3994 76.3868 61.9573C75.2231 61.5151 74.2615 60.6624 73.6834 59.56L62.1834 43.6566L60.5167 41.4333L47.1734 59.58C46.63 60.6361 45.7205 61.4583 44.615 61.8926C43.5096 62.3269 42.2837 62.3438 41.1667 61.94L58.36 38.8733L42.3667 18.0366C43.5167 17.6222 44.7744 17.6167 45.9279 18.0211C47.0815 18.4254 48.0605 19.2149 48.7 20.2566L60.62 36.3566L72.6067 20.3233C73.1543 19.2859 74.064 18.4859 75.1628 18.0754C76.2617 17.6649 77.4731 17.6724 78.5667 18.0966L72.36 26.3333L63.9534 37.2766C63.7199 37.4849 63.5331 37.7401 63.4052 38.0256C63.2773 38.3111 63.2112 38.6205 63.2112 38.9333C63.2112 39.2462 63.2773 39.5555 63.4052 39.841C63.5331 40.1265 63.7199 40.3817 63.9534 40.59L79.9667 61.9633L80 61.96ZM0.00670665 38.5866L1.40671 31.67C5.25337 17.9933 20.9334 12.3033 31.72 20.77C38.0367 25.7333 39.6134 32.76 39.3034 40.68H3.72004C3.14337 54.8233 13.35 63.3633 26.4 59C28.5156 58.2385 30.4092 56.9641 31.9112 55.291C33.4133 53.6179 34.4769 51.5984 35.0067 49.4133C35.6967 47.1933 36.8334 46.8133 38.92 47.4533C38.5723 50.1612 37.6151 52.7551 36.1203 55.0397C34.6255 57.3243 32.6321 59.2402 30.29 60.6433C26.4214 62.7594 21.9828 63.5981 17.6088 63.0395C13.2348 62.481 9.14937 60.5537 5.93671 57.5333C2.76014 53.9579 0.840294 49.4416 0.47004 44.6733C0.47004 43.89 0.203373 43.1566 0.0233733 42.4533C0.00714676 41.1656 -0.00063119 39.8778 3.99876e-05 38.59L0.00670665 38.5866ZM3.76337 37.6333H35.9434C35.7434 27.38 29.2734 20.1066 20.6434 20.04C11.0367 19.9066 4.16337 27.02 3.74004 37.5866L3.76337 37.6333Z" fill="white"/>
</g>
<defs>
<clipPath id="clip0_6_724">
<rect width="80" height="80" fill="white"/>
</clipPath>
</defs>
</svg>
