<svg width="80" height="80" viewBox="0 0 80 80" fill="none" xmlns="http://www.w3.org/2000/svg">
<path d="M52.8399 29.9367H37.5466V0H52.8399C61.0933 0 67.8066 6.71333 67.8066 14.9667C67.8066 23.22 61.0933 29.9367 52.8399 29.9367ZM42.4499 25.0333H52.8399C58.3899 25.0333 62.9033 20.5167 62.9033 14.97C62.9033 9.42333 58.3866 4.90667 52.8399 4.90667H42.4499V25.0333ZM42.4499 29.9367H27.1599C18.9066 29.9367 12.1933 23.2233 12.1933 14.97C12.1933 6.71667 18.9066 0 27.1599 0H42.4533V29.9367H42.4499ZM27.1599 4.90333C21.6099 4.90333 17.0966 9.42 17.0966 14.9667C17.0966 20.5133 21.6099 25.0333 27.1599 25.0333H37.5499V4.90333H27.1599ZM42.4499 54.9667H27.1599C18.9066 54.9667 12.1933 48.2533 12.1933 40C12.1933 31.7467 18.9066 25.0333 27.1599 25.0333H42.4533V54.9667H42.4499ZM27.1599 29.9367C21.6099 29.9367 17.0966 34.4533 17.0966 40C17.0966 45.5467 21.6133 50.0633 27.1599 50.0633H37.5499V29.9367H27.1599ZM27.2399 80C18.9433 80 12.1899 73.2867 12.1899 65.0333C12.1899 56.78 18.9033 50.0667 27.1566 50.0667H42.4499V64.87C42.4499 73.2133 35.6266 80 27.2399 80ZM27.1599 54.9667C24.4921 54.9702 21.9345 56.0316 20.048 57.918C18.1615 59.8045 17.1001 62.3621 17.0966 65.03C17.0966 70.58 21.6466 75.0933 27.2433 75.0933C32.9266 75.0933 37.5533 70.5067 37.5533 64.8667V54.9667H27.1599ZM52.8399 54.9667H52.5133C44.2599 54.9667 37.5466 48.2533 37.5466 40C37.5466 31.7467 44.2599 25.0333 52.5133 25.0333H52.8399C61.0933 25.0333 67.8066 31.7467 67.8066 40C67.8066 48.2533 61.0933 54.9667 52.8399 54.9667ZM52.5166 29.9367C46.9666 29.9367 42.4533 34.4533 42.4533 40C42.4533 45.5467 46.9699 50.0633 52.5166 50.0633H52.8433C58.3933 50.0633 62.9066 45.5467 62.9066 40C62.9066 34.4533 58.3866 29.9367 52.8399 29.9367H52.5166Z" fill="white"/>
</svg>
