<svg width="80" height="80" viewBox="0 0 80 80" fill="none" xmlns="http://www.w3.org/2000/svg">
<g clip-path="url(#clip0_6_763)">
<path d="M36.6133 46.12C36.1722 46.1199 35.749 45.9449 35.4367 45.6333L32.9533 43.1567C32.7939 43.0031 32.6667 42.8194 32.5791 42.6162C32.4915 42.413 32.4452 42.1944 32.443 41.9731C32.4407 41.7518 32.4826 41.5323 32.5661 41.3273C32.6496 41.1224 32.7731 40.9361 32.9294 40.7794C33.0856 40.6227 33.2715 40.4987 33.4762 40.4146C33.6809 40.3305 33.9003 40.2881 34.1216 40.2897C34.3429 40.2913 34.5617 40.3369 34.7651 40.424C34.9686 40.511 35.1527 40.6377 35.3067 40.7967L36.6133 42.1L40.55 38.1667C40.8625 37.8537 41.2865 37.6777 41.7288 37.6774C42.1711 37.6771 42.5954 37.8525 42.9083 38.165C43.2213 38.4775 43.3973 38.9015 43.3976 39.3438C43.3979 39.7861 43.2225 40.2104 42.91 40.5233L37.7933 45.6333C37.4793 45.9445 37.0554 46.1193 36.6133 46.12ZM67.79 45.63L72.9033 40.5233C73.2069 40.209 73.3749 39.788 73.3711 39.351C73.3673 38.914 73.192 38.496 72.883 38.187C72.574 37.878 72.156 37.7027 71.719 37.6989C71.282 37.6951 70.861 37.8631 70.5467 38.1667L66.61 42.1L65.3033 40.7967C65.1494 40.6377 64.9653 40.511 64.7618 40.424C64.5584 40.3369 64.3396 40.2913 64.1183 40.2897C63.897 40.2881 63.6776 40.3305 63.4729 40.4146C63.2682 40.4987 63.0823 40.6227 62.926 40.7794C62.7698 40.9361 62.6463 41.1224 62.5628 41.3273C62.4793 41.5323 62.4374 41.7518 62.4396 41.9731C62.4419 42.1944 62.4881 42.413 62.5758 42.6162C62.6634 42.8194 62.7906 43.0031 62.95 43.1567L65.4367 45.6333C65.5909 45.7885 65.7744 45.9116 65.9764 45.9955C66.1785 46.0794 66.3952 46.1225 66.614 46.1221C66.8328 46.1218 67.0494 46.0782 67.2512 45.9937C67.4531 45.9092 67.6362 45.7856 67.79 45.63ZM15.09 24.84L23.6133 19.5567C24.0946 19.2589 24.492 18.8435 24.7684 18.3497C25.0447 17.8558 25.1907 17.2998 25.1927 16.7339C25.1947 16.168 25.0526 15.6109 24.7798 15.1151C24.507 14.6193 24.1124 14.2012 23.6333 13.9L15.11 8.53333C14.6057 8.21567 14.0255 8.03902 13.4298 8.02178C12.834 8.00454 12.2446 8.14733 11.7228 8.43529C11.201 8.72325 10.7659 9.14585 10.4629 9.65906C10.1599 10.1723 10.0001 10.7573 10 11.3533V22.0067C10.001 22.6003 10.1603 23.1829 10.4616 23.6944C10.7628 24.2059 11.1951 24.6278 11.7138 24.9166C12.2325 25.2053 12.8188 25.3504 13.4123 25.3369C14.0058 25.3235 14.5849 25.1519 15.09 24.84ZM21.8567 16.72L13.3333 22.0067V11.3533L21.8567 16.72ZM80 41.6667C80 48.1 74.7667 53.3333 68.3333 53.3333C65.5308 53.328 62.8237 52.3148 60.7063 50.4789C58.5889 48.643 57.2024 46.1068 56.8 43.3333H49.8667C49.4643 46.1068 48.0778 48.643 45.9603 50.4789C43.8429 52.3148 41.1358 53.328 38.3333 53.3333C35.5306 53.3287 32.8232 52.3158 30.7056 50.4797C28.5881 48.6437 27.2018 46.1071 26.8 43.3333H24.94C21.7 43.3333 18.7733 42.0033 16.6667 39.86V56.6667C16.6667 62.18 21.1533 66.6667 26.6667 66.6667H26.8C27.6133 61.0233 32.4667 56.6667 38.3333 56.6667C44.7667 56.6667 50 61.9 50 68.3333C50 74.7667 44.7667 80 38.3333 80C35.5306 79.9953 32.8232 78.9824 30.7056 77.1464C28.5881 75.3104 27.2018 72.7738 26.8 70H26.6667C19.3133 70 13.3333 64.02 13.3333 56.6667V32.9967C9.57165 32.2237 6.1915 30.1774 3.7627 27.2027C1.3339 24.2281 0.00499051 20.5069 0 16.6667C0 7.47667 7.47667 0 16.6667 0C25.8567 0 33.3333 7.47667 33.3333 16.6667C33.3274 21.0569 31.5913 25.2678 28.5013 28.3865C25.4114 31.5052 21.2166 33.2802 16.8267 33.3267C17.1972 35.2064 18.2086 36.8992 19.6883 38.1163C21.1679 39.3333 23.0241 39.9991 24.94 40H26.8C27.6133 34.3567 32.4667 30 38.3333 30C41.136 30.0047 43.8435 31.0175 45.961 32.8536C48.0786 34.6896 49.4649 37.2262 49.8667 40H56.8C57.2024 37.2265 58.5889 34.6903 60.7063 32.8544C62.8237 31.0185 65.5308 30.0054 68.3333 30C74.7667 30 80 35.2333 80 41.6667ZM30 68.3333C30 72.9267 33.74 76.6667 38.3333 76.6667C42.9267 76.6667 46.6667 72.9267 46.6667 68.3333C46.6667 63.74 42.9267 60 38.3333 60C33.74 60 30 63.74 30 68.3333ZM16.6667 30C24.02 30 30 24.02 30 16.6667C30 9.31333 24.02 3.33333 16.6667 3.33333C9.31333 3.33333 3.33333 9.31333 3.33333 16.6667C3.33333 24.02 9.31333 30 16.6667 30ZM46.6667 41.6667C46.6667 37.0733 42.9267 33.3333 38.3333 33.3333C33.74 33.3333 30 37.0733 30 41.6667C30 46.26 33.74 50 38.3333 50C42.9267 50 46.6667 46.26 46.6667 41.6667ZM76.6667 41.6667C76.6667 37.0733 72.9267 33.3333 68.3333 33.3333C63.74 33.3333 60 37.0733 60 41.6667C60 46.26 63.74 50 68.3333 50C72.9267 50 76.6667 46.26 76.6667 41.6667ZM33.3333 68.3333C33.3333 68.7754 33.5089 69.1993 33.8215 69.5118C34.134 69.8244 34.558 70 35 70C35.442 70 35.866 69.8244 36.1785 69.5118C36.4911 69.1993 36.6667 68.7754 36.6667 68.3333C36.6667 67.8913 36.4911 67.4674 36.1785 67.1548C35.866 66.8423 35.442 66.6667 35 66.6667C34.558 66.6667 34.134 66.8423 33.8215 67.1548C33.5089 67.4674 33.3333 67.8913 33.3333 68.3333ZM40 68.3333C40 68.7754 40.1756 69.1993 40.4882 69.5118C40.8007 69.8244 41.2246 70 41.6667 70C42.1087 70 42.5326 69.8244 42.8452 69.5118C43.1577 69.1993 43.3333 68.7754 43.3333 68.3333C43.3333 67.8913 43.1577 67.4674 42.8452 67.1548C42.5326 66.8423 42.1087 66.6667 41.6667 66.6667C41.2246 66.6667 40.8007 66.8423 40.4882 67.1548C40.1756 67.4674 40 67.8913 40 68.3333ZM80 68.3333C80 74.7667 74.7667 80 68.3333 80C65.5298 79.9944 62.8219 78.9803 60.7044 77.1431C58.5868 75.3058 57.201 72.768 56.8 69.9933C56.7767 69.9967 56.7567 70.01 56.73 70.01L55.0433 70.0667H54.9867C54.5568 70.0556 54.1479 69.8788 53.8453 69.5733C53.5428 69.2678 53.37 68.8572 53.3631 68.4272C53.3562 67.9973 53.5158 67.5814 53.8084 67.2663C54.101 66.9513 54.5041 66.7615 54.9333 66.7367L56.62 66.68C56.68 66.6733 56.7367 66.7 56.7933 66.7033C57.1879 63.9221 58.5718 61.3762 60.6915 59.5327C62.8111 57.6893 65.5242 56.6717 68.3333 56.6667C74.7667 56.6667 80 61.9 80 68.3333ZM76.6667 68.3333C76.6667 63.74 72.9267 60 68.3333 60C63.74 60 60 63.74 60 68.3333C60 72.9267 63.74 76.6667 68.3333 76.6667C72.9267 76.6667 76.6667 72.9267 76.6667 68.3333Z" fill="white"/>
</g>
<defs>
<clipPath id="clip0_6_763">
<rect width="80" height="80" fill="white"/>
</clipPath>
</defs>
</svg>
