<svg width="100" height="100" viewBox="0 0 100 100" fill="none" xmlns="http://www.w3.org/2000/svg">
<path d="M50 1.2375C22.375 1.2375 0 23.625 0 51.2375C0 73.3334 14.325 92.0709 34.1875 98.675C36.6875 99.1459 37.6042 97.6 37.6042 96.2709C37.6042 95.0834 37.5625 91.9375 37.5417 87.7709C23.6333 90.7875 20.7 81.0625 20.7 81.0625C18.425 75.2917 15.1375 73.75 15.1375 73.75C10.6083 70.65 15.4875 70.7125 15.4875 70.7125C20.5083 71.0625 23.1458 75.8625 23.1458 75.8625C27.6042 83.5084 34.85 81.3 37.7083 80.0209C38.1583 76.7875 39.4458 74.5834 40.875 73.3334C29.7708 72.0834 18.1 67.7834 18.1 48.625C18.1 43.1667 20.0375 38.7083 23.2458 35.2083C22.6833 33.9458 20.9958 28.8625 23.6833 21.975C23.6833 21.975 27.8708 20.6333 37.4333 27.1C41.4333 25.9875 45.6833 25.4375 49.9333 25.4125C54.1833 25.4375 58.4333 25.9875 62.4333 27.1C71.9333 20.6333 76.1208 21.975 76.1208 21.975C78.8083 28.8625 77.1208 33.9458 76.6208 35.2083C79.8083 38.7083 81.7458 43.1667 81.7458 48.625C81.7458 67.8334 70.0583 72.0625 58.9333 73.2917C60.6833 74.7917 62.3083 77.8584 62.3083 82.5417C62.3083 89.2334 62.2458 94.6084 62.2458 96.2334C62.2458 97.5459 63.1208 99.1084 65.6833 98.6084C85.6875 92.05 100 73.3 100 51.2375C100 23.625 77.6125 1.2375 50 1.2375Z" fill="white"/>
</svg>
