<svg width="80" height="80" viewBox="0 0 80 80" fill="none" xmlns="http://www.w3.org/2000/svg">
<g clip-path="url(#clip0_6_749)">
<path d="M78.6682 31.9756L78.5558 31.6883L67.6668 3.27131C67.4453 2.71419 67.053 2.24157 66.5462 1.92131C66.0391 1.60667 65.4477 1.45519 64.8518 1.48732C64.2559 1.51945 63.6842 1.73364 63.2138 2.10097C62.7486 2.47879 62.4111 2.9908 62.2472 3.56731L54.8955 26.0606H25.1252L17.7728 3.56731C17.6134 2.9876 17.2751 2.47296 16.8062 2.09664C16.3358 1.72941 15.764 1.51533 15.1681 1.48333C14.5722 1.45132 13.9809 1.60291 13.4738 1.91764C12.9682 2.23911 12.5762 2.71119 12.3532 3.26731L1.44417 31.6716L1.33584 31.959C-0.23167 36.0545 -0.425181 40.5486 0.784481 44.7637C1.99414 48.9788 4.5414 52.6863 8.04217 55.3273L8.07984 55.3563L8.17984 55.4273L24.7665 67.8486L32.9732 74.0596L37.9715 77.8333C38.5562 78.2773 39.2702 78.5176 40.0043 78.5176C40.7385 78.5176 41.4525 78.2773 42.0372 77.8333L47.0355 74.0596L55.2418 67.8486L71.9285 55.3523L71.9702 55.319C75.4631 52.6775 78.0044 48.9738 79.2122 44.7644C80.4201 40.555 80.2291 36.0673 78.6682 31.9756Z" fill="white"/>
</g>
<defs>
<clipPath id="clip0_6_749">
<rect width="80" height="80" fill="white"/>
</clipPath>
</defs>
</svg>
