<svg width="80" height="80" viewBox="0 0 80 80" fill="none" xmlns="http://www.w3.org/2000/svg">
<path d="M18.9252 35.7006C16.8757 36.6647 11.4513 41.0045 10.4065 42.2904C9.32149 43.5762 9.00014 41.5672 10.1252 38.232C11.009 35.5398 13.2595 31.8832 17.0365 28.7491C19.2464 26.9409 24.1086 24.3292 27.0819 22.8021C27.6847 22.4805 35.48 19.1856 42.4316 17.5382C43.0344 17.3774 41.7084 18.5427 41.5073 19.1856C40.4626 22.2394 19.608 35.3388 19.608 35.3388L18.9252 35.7006ZM48.2981 72.5475C48.6597 74.7173 48.3384 74.8781 46.0882 75.1594C43.8379 75.4407 42.1905 74.5967 41.5878 74.0343C40.985 73.4715 40.8646 72.2261 41.4673 71.101C41.8291 70.3776 42.1907 70.1366 42.3917 69.2526C42.5926 68.4089 42.7533 68.2078 42.9139 67.8865C43.0745 67.605 43.1149 67.3236 43.155 65.3549C43.1952 63.3861 43.155 59.6891 43.356 58.1222C43.557 56.515 50.5086 58.8454 50.5086 58.8454C50.5086 58.8454 48.8609 62.944 48.419 63.9485C47.9769 64.9532 48.0172 66.8818 48.0172 67.2836C48.0172 67.6855 47.8566 68.4889 47.7359 68.5292C47.6153 68.5692 48.1377 69.614 47.8965 70.2169C47.7357 70.7795 48.2581 72.2261 48.2981 72.5475ZM50.9503 11.109C50.709 9.58213 50.9503 6.56817 51.2716 6.08623C52.2763 4.71991 57.5803 4.55933 58.7055 6.16652C59.1876 6.88973 59.1474 8.57741 59.0671 9.66242C58.9868 10.7472 58.7055 13.0778 58.6653 13.8415C58.6252 14.4041 52.7987 15.2879 51.5129 13.761C51.1511 13.3593 50.9503 11.109 50.9503 11.109ZM62.7638 68.6497C65.2149 70.4179 67.1035 70.7393 68.349 71.3822C69.5946 72.0253 69.2733 73.2709 67.1837 73.6325C65.4961 73.9538 62.8441 73.3109 61.0761 73.3109C59.3082 73.3109 55.3702 73.5119 54.3254 72.7887C53.1201 71.945 53.6423 70.3776 53.6423 70.3776C53.9638 69.4939 54.7673 67.5247 54.5263 65.9175C54.2852 64.3103 53.9636 63.4263 53.361 61.9395C52.7583 60.4528 52.3164 56.7963 52.879 56.5953C53.4416 56.3943 53.2807 56.5953 54.0041 56.7559C54.7273 56.9165 55.531 57.1577 57.0981 57.1577C58.6653 57.1577 60.393 56.9165 60.9959 56.7961C61.5985 56.6756 62.0807 56.5549 61.8796 57.8006C61.6788 59.0462 61.0761 61.3768 61.0359 63.185C60.9958 64.9933 60.9959 67.0828 61.1164 67.4444C61.2367 67.806 62.1209 68.2078 62.7638 68.6497Z" fill="white"/>
<path d="M54.1646 15.1273C43.5566 18.824 33.0689 19.7483 20.7332 27.3427C17.7999 29.1509 11.6118 33.2493 10.4062 41.085C14.9065 36.1023 25.3137 29.8341 38.0514 25.8561C44.4806 23.8468 49.182 22.521 54.8878 20.3109C54.4861 17.739 54.4861 16.7345 54.1646 15.1273Z" fill="white"/>
<path d="M67.7062 37.147C67.7062 37.147 66.9427 39.7589 65.4158 40.6028C65.4158 40.6028 64.2908 41.0047 62.0406 39.7591C61.3977 39.3975 60.9156 38.1519 60.9556 37.7498C60.9959 36.7854 61.5986 36.3435 61.5986 36.3435C61.5986 36.3435 62.2417 35.2585 63.0049 35.2987C63.7686 35.3387 65.0544 35.4593 65.4563 35.0977C65.8177 34.6958 67.7867 35.8209 67.7062 37.147ZM51.3119 11.8724C51.3119 11.8724 51.1513 13.9219 50.87 15.2075C50.8298 15.4488 49.6244 15.5691 48.7402 15.9309C50.4279 20.7527 60.594 20.7125 61.9201 18.3418C61.2772 17.8999 59.9914 17.2168 59.3887 16.9757C58.7858 16.7344 58.8261 16.7747 58.7858 15.6496C58.7458 14.5244 58.6653 12.435 58.5848 11.8724C58.5045 11.3098 52.2762 11.3098 51.3119 11.8724Z" fill="white"/>
<path d="M51.311 11.8725C51.311 11.8725 51.2707 12.5959 51.1504 13.4397C51.6726 13.9619 52.3557 14.6853 52.8783 15.1274C53.2399 15.4489 54.1237 15.4087 54.9276 15.4087C55.6508 15.4087 56.2937 15.489 56.575 15.3284C57.2181 15.0068 58.1422 14.2033 58.6646 13.6005C58.6245 12.8772 58.5843 12.1941 58.5442 11.8725C58.5036 11.3099 52.2752 11.3099 51.311 11.8725Z" fill="white"/>
<path d="M54.9683 14.9263C54.486 14.9263 53.9233 14.8863 53.4814 14.8058C53.2804 14.7658 53.0796 14.6452 52.9188 14.5647C52.6375 14.3637 52.3562 14.1229 52.035 13.8816C51.3919 13.3994 51.3519 13.1181 51.3519 12.9978C51.6332 10.4662 51.2714 8.33661 51.2714 8.33661C51.2714 8.33661 50.9901 7.2516 52.517 6.97029C54.0439 6.68897 54.9681 6.64893 54.9681 6.64893C54.9681 6.64893 55.9326 6.64893 57.4192 6.97029C58.9461 7.2516 58.6648 8.33661 58.6648 8.33661C58.6648 8.33661 58.3032 10.4662 58.5845 12.9978C58.5845 13.1181 58.5445 13.3994 57.9014 13.8816C57.3387 14.2834 56.8968 14.7253 56.4549 14.8058C56.0129 14.8863 55.4502 14.9263 54.9683 14.9263Z" fill="white"/>
<path d="M54.9679 5.60413C52.316 5.60413 51.7934 6.32733 51.0299 7.13103C50.8694 7.33185 50.9897 8.53739 51.2712 11.1091H51.6328C51.6328 11.1091 51.3915 10.3857 51.4318 9.54191C51.472 8.69817 51.6328 8.73842 51.5121 8.53739C51.3515 8.29613 51.0299 7.89428 51.7533 7.49263C52.4766 7.09078 53.6016 7.81399 54.9679 7.85423C56.334 7.81399 57.4993 7.09078 58.2226 7.49263C58.9458 7.89428 58.6244 8.29613 58.4638 8.53739C58.303 8.77846 58.5039 8.69797 58.5441 9.54191C58.5842 10.3857 58.3431 11.1091 58.3431 11.1091H58.7047C58.9458 8.53739 59.1065 7.41234 58.986 7.21132C58.3028 6.32733 57.6199 5.64417 54.9679 5.60413ZM67.7055 37.2676C67.7055 37.2676 66.9421 39.7187 65.4554 40.5625C65.1339 40.4019 65.1741 40.1608 64.8928 39.799C64.8123 39.6787 64.531 39.598 64.4106 39.4777C64.2901 39.3571 64.3304 39.1561 64.1293 38.9955C63.9686 38.8347 63.848 38.9553 63.6872 38.8347C63.5267 38.6742 63.4862 38.4731 63.3659 38.3528C63.2854 38.2723 62.964 38.2323 62.8837 38.1518C62.6827 37.9508 60.915 37.5892 60.9952 37.1873C61.1558 36.5844 61.4774 36.1425 61.4774 36.1425C61.4774 36.1425 62.2408 35.0175 63.0041 35.0575C63.7675 35.0978 64.4909 35.2586 64.8928 34.897C65.3349 34.4949 67.8262 35.9818 67.7055 37.2676Z" fill="white"/>
<path d="M62.4823 19.5072C62.4823 19.5072 65.0137 18.9043 66.7416 20.5519C68.4696 22.2396 68.3488 24.329 67.8266 25.6148C68.2685 26.1372 69.0722 27.5836 68.4696 29.3115C71.1215 31.5616 69.9562 35.0175 67.5856 37.3078C67.5856 37.3078 67.0229 35.2183 64.7728 35.0978C64.8531 34.2943 62.6833 33.6511 63.6878 31.5616C62.1609 31.2 62.2012 30.1553 61.9601 28.8696C61.7591 27.5836 62.4823 19.5072 62.4823 19.5072Z" fill="white"/>
<path d="M53.08 18.1008C52.8389 17.7793 51.5933 16.1721 49.2225 15.5292C48.5393 15.3281 48.0974 15.8908 47.4144 16.2926C47.2134 16.1721 46.3294 15.7702 45.8473 16.0513C45.3652 16.3325 45.0438 16.614 44.5615 16.8148C44.3202 16.6943 43.6775 16.6943 43.1551 16.8951C42.6327 17.0559 41.829 17.4175 41.0656 18.4622C40.5834 20.1902 49.5841 18.9041 49.5841 18.9041L53.08 18.1008Z" fill="white"/>
<path d="M53.16 18.1009C51.874 17.6588 52.075 16.1721 49.222 15.931C48.6594 15.8908 48.2978 16.3327 47.896 16.614C48.097 16.815 48.2978 17.1364 48.4183 17.4577C48.0567 17.0561 47.4138 16.5335 46.7707 16.413C46.168 16.2926 45.7662 16.7345 45.1233 17.0561C45.2436 17.1764 45.3643 17.3774 45.5249 17.6187C44.9623 17.2571 44.5606 17.1366 43.7972 17.4177C43.2748 17.5783 42.2703 18.0204 41.5068 19.1054C41.0247 20.8333 49.6237 18.9043 49.6237 18.9043L53.16 18.1009Z" fill="white"/>
<path d="M60.7144 18.7437C60.7144 18.7437 60.7144 18.3016 60.6741 17.9C60.6741 17.8197 60.3528 17.6186 60.3528 17.5383L60.2725 17.4579C60.2725 17.4579 60.9154 17.0963 61.3975 17.2973C61.9197 17.4579 62.201 18.141 62.201 18.141C63.1252 17.8197 63.2055 18.1813 63.6476 18.6634C64.6121 18.4624 64.7324 18.824 65.3353 19.7082C65.3353 19.7082 64.6121 19.5876 63.2057 19.8285C61.8394 20.0293 60.7144 18.7034 60.7144 18.7437Z" fill="white"/>
<path d="M60.5536 18.5426C60.5536 18.5426 60.7947 18.3416 60.7142 18.3014C61.1561 18.0603 61.759 17.7792 62.0403 18.5426C62.9645 18.2211 63.0851 18.6632 63.5269 19.1455C64.652 18.6231 64.7323 19.2658 64.8128 19.5472C64.4512 19.5472 63.929 19.5874 63.2056 19.6677C61.8395 19.8687 60.5134 18.5024 60.5536 18.5426Z" fill="white"/>
<path d="M46.8916 17.5382C46.8916 17.5382 49.1819 18.3417 51.1107 18.2212C53.0394 18.0606 56.3343 17.8998 58.1023 18.9446C58.1023 18.9446 59.9105 18.3015 61.5982 18.7436C63.286 19.1854 66.3799 22.0787 65.4559 25.1325C65.3754 25.3335 64.853 25.6549 64.2503 25.8559C64.2503 25.8559 64.5719 27.222 64.0092 28.3471C63.4466 29.4321 62.201 31.5216 62.1608 34.4146C62.1207 34.8967 62.0404 35.9013 61.96 36.3834C58.8257 36.2631 54.0039 35.0976 49.2624 35.1781C49.3025 34.6559 49.3427 34.3343 49.3829 33.8119H49.5033C49.2622 32.4859 49.1819 31.8027 48.9407 30.7982C47.4138 29.8339 45.8064 28.7089 44.4404 26.5791C43.1144 24.4493 46.8916 17.5382 46.8916 17.5382ZM62.4019 39.2366C62.4019 39.2366 64.8932 48.1571 61.96 51.8941C61.96 51.8941 62.4019 53.6218 61.3973 55.4703C61.2366 56.2738 61.0355 56.9972 60.9152 57.8007C60.3928 61.1358 59.5086 62.5421 59.2676 67.8863L56.8565 67.8462C56.8565 67.8462 56.5752 63.9887 55.7314 61.9395C55.2495 60.7744 53.3606 59.207 53.4413 57.6401C53.5216 56.4345 53.7626 55.43 55.8121 53.8226C55.9727 51.4922 53.6421 49.282 54.0039 40.6027L62.4019 39.2366Z" fill="white"/>
<path d="M62.0001 35.5396C62.0001 35.5396 62.0803 36.9862 62.0803 37.3479C62.0803 37.7497 62.4019 38.955 62.442 39.5177C62.0001 40.2811 60.0713 42.009 56.5754 42.652C53.1198 43.3752 48.5391 37.9507 48.5391 37.9507C48.6596 37.4283 49.0614 35.9012 49.3428 35.0977C49.383 35.0175 49.4633 34.8164 49.4633 34.7361C49.8251 34.2138 62.0001 35.5396 62.0001 35.5396Z" fill="white"/>
<path d="M57.2585 40.8438C57.2585 40.8438 55.1289 36.1023 48.7398 37.5088C47.2131 41.8082 45.1636 46.7507 46.4897 52.0949C45.1636 53.9031 43.6367 54.9078 43.6367 58.2427C43.6367 61.5778 43.7975 62.1405 43.7975 62.1405L48.4987 62.3817C48.4987 62.3817 50.0256 60.4129 50.6283 58.2832C50.7891 57.6803 50.9499 56.5955 50.8293 55.3499C50.9899 55.1088 51.6731 54.5464 51.7536 53.4614C51.7536 53.4614 54.0439 52.2561 55.37 49.3228C56.6158 46.6702 56.2942 44.3799 57.2585 40.8438Z" fill="white"/>
<path d="M47.3336 34.3745C47.3336 34.3745 48.4186 34.4146 49.383 34.7361C50.3073 35.0575 50.3073 35.2583 50.6689 35.6603C51.0305 36.0624 51.9145 36.6649 51.7539 37.2675C51.6734 37.5891 51.4726 37.6694 51.1913 37.9507C51.0707 38.0712 50.1865 39.0355 49.9857 39.156C49.8652 39.2363 49.7044 39.3571 49.5839 39.4374L48.9812 39.8392C48.5793 40.0402 48.298 40.1608 47.8561 40.1205C47.8561 40.1205 46.8516 40.0803 46.2085 39.3973C46.2085 39.3973 46.1282 39.0758 46.289 38.9152C46.289 38.9152 45.4451 38.1918 45.204 37.7096C44.9627 37.2277 44.9627 36.5445 45.1237 36.1829C45.204 35.8209 46.7709 34.8164 47.3336 34.3745ZM48.3383 73.4717L48.2177 74.4764C48.2177 74.4764 47.8561 74.9183 45.1639 74.8782C42.4315 74.838 41.7083 73.9942 41.4672 73.5522L41.3066 72.5074C41.3066 72.5074 41.829 71.7439 41.9496 71.7439C42.8335 71.8242 45.8473 73.0298 47.9368 73.3511C48.1373 73.3511 48.1773 73.4314 48.3383 73.4717ZM54.1646 71.4224C54.1646 71.8643 54.1243 71.8643 54.1243 72.3064C54.6065 72.668 55.8122 72.869 58.1024 72.8286C61.4375 72.7483 64.5315 73.8333 68.3085 73.1902L68.3488 72.467L67.9872 72.4269L54.6065 71.3419L54.1646 71.4224Z" fill="white"/>
<path d="M57.098 72.8287H58.1025C60.2725 72.7484 62.3218 73.2306 64.5317 73.3511C65.697 73.3109 67.1436 73.0296 67.0231 72.1858L55.6114 71.2213C54.9282 71.9848 55.4504 72.6277 57.098 72.8287ZM43.9986 55.9121C44.3602 56.1532 46.8114 57.5998 50.7894 57.3988C50.7089 58.1622 50.7491 59.6491 48.9812 62.2608C48.0972 63.5466 47.3335 65.7969 47.173 68.6499C47.2132 69.2928 47.5748 69.8552 47.0927 70.6992C47.2532 71.2213 47.8962 72.2661 48.2177 72.909C48.5391 73.5521 48.6999 74.2753 46.5701 74.3156C44.4003 74.3556 40.9044 74.1146 41.3867 72.4271C41.628 71.5431 42.3109 70.6189 42.3914 70.2571C42.4717 69.8955 42.4717 68.8107 43.1547 68.0873C43.7576 66.0782 43.5565 64.1495 43.4362 62.3413C43.2352 60.4526 43.1949 57.439 43.9986 55.9121ZM47.7356 23.1636C50.5886 19.3462 48.1775 16.2926 43.597 17.2166C41.7485 17.5782 39.9003 18.8642 39.7795 21.1946C39.1768 21.2749 37.8107 21.3552 37.1276 23.8466C36.6054 25.7753 36.3241 26.1369 35.3996 27.1012C34.797 27.7844 35.4399 29.1907 35.8818 30.1954C37.3686 33.6511 41.9493 33.9725 45.0434 36.5844C46.0881 36.3031 47.173 35.138 47.4945 34.3745C44.8826 31.2803 45.445 30.0749 44.4003 28.4677C45.5255 28.0657 48.0972 26.4987 47.7356 23.1636Z" fill="white"/>
<path d="M64.6517 23.5655C64.5312 25.0924 63.4061 24.329 62.8035 24.0477C61.5979 23.5253 60.3924 23.1637 58.986 23.1637C57.5797 23.1637 55.7714 23.2842 54.2045 23.6861C52.0347 24.2887 51.3916 24.2487 50.4273 23.7663C49.463 23.244 47.7755 21.9581 47.7755 21.9581C47.7755 21.9581 47.7353 22.36 48.1371 22.8824C48.6593 23.5253 49.8248 24.329 51.3918 24.8512C52.1552 25.0924 52.7581 24.9314 53.4412 24.7709C57.0174 23.8869 60.7944 23.7261 63.9688 25.6548C64.1296 25.7351 64.6922 25.4941 64.9332 25.1325C65.2544 24.6103 64.6517 23.5655 64.6517 23.5655Z" fill="white"/>
<path d="M46.3691 38.8748C46.6905 39.0758 47.0923 39.1963 47.5342 39.5579C47.5342 39.5579 47.1726 39.5579 47.0121 39.3973C46.811 39.2768 46.4092 38.9152 46.3691 38.8748Z" fill="white"/>
<path d="M53.7625 56.6755C53.7625 56.6755 55.8922 57.5998 61.1561 56.7961C61.1561 56.7961 59.6694 64.27 60.3526 68.0068C60.3526 68.0068 61.0356 68.9712 66.0986 70.8195C66.0986 70.8195 68.3487 71.3821 68.2684 72.5074C68.2684 72.5074 68.3487 72.7484 65.6165 72.668C62.8842 72.5875 60.3124 72.1053 58.5042 72.1053C56.6959 72.1053 54.7672 72.1856 54.4458 71.6634C54.0842 71.1813 54.5261 69.9355 55.0485 69.2121C55.6113 68.4489 55.4503 67.886 55.4103 66.5201C55.2894 62.9439 52.5569 59.2472 53.7625 56.6755Z" fill="white"/>
<path opacity="0.3" d="M54.6873 69.775C55.3702 70.0964 56.3749 70.3377 57.1384 70.3377C57.1384 70.3377 56.8569 71.6637 57.299 72.4672C57.7409 73.2709 54.0844 72.7888 54.0844 72.7888L53.9238 69.9358L54.6873 69.775ZM65.3355 73.2307C65.9784 73.0297 66.4205 72.3064 65.8981 71.6235C65.3355 70.9403 64.8534 70.8198 65.5766 70.7797C66.3 70.7395 68.952 72.3467 68.952 72.3467L67.5856 73.5923L65.3355 73.2307ZM53.2004 58.9257C54.1246 59.2473 55.531 59.3276 56.7365 59.2873C57.9419 59.2473 59.7501 59.0863 60.9156 58.6847C62.0807 58.2828 61.5986 59.1266 61.5986 59.1266L60.9556 59.7294C60.9556 59.7294 59.4287 60.3321 56.9376 60.2921C54.0043 60.2518 53.1201 59.9305 53.1201 59.9305L53.2004 58.9257ZM53.2807 60.935C54.2051 61.2565 55.6113 61.3368 56.8168 61.2966C58.0222 61.2565 59.6296 61.2565 60.7949 60.8144C61.277 60.6539 60.9959 61.3368 60.9959 61.3368L60.7949 61.6984C60.7949 61.6984 59.2277 62.2611 56.7766 62.2206C53.8433 62.1806 53.3209 61.9393 53.3209 61.9393L53.2807 60.935Z" fill="white"/>
<path d="M50.6289 32.7673C50.6289 33.0486 53.7632 34.6156 55.4909 34.9371C57.2188 35.2585 60.8353 34.9372 61.3977 34.8166L61.3172 35.3792C61.3172 35.3792 57.0178 36.0222 53.723 35.1382C50.4279 34.2542 50.7897 34.0532 50.7897 34.0532L50.6289 32.7673Z" fill="white"/>
<path d="M47.0521 17.3774C48.3782 18.1409 50.2267 17.9401 50.9096 17.8998C51.0704 17.8998 52.6778 17.6185 52.7581 17.6586C52.9187 17.6988 52.9187 17.8193 52.9187 17.8193C52.9187 17.8193 52.316 18.1407 50.9499 18.221C49.664 18.3013 48.1371 18.221 47.2934 17.8193C46.2887 17.3774 47.0521 17.3774 47.0521 17.3774ZM60.7141 18.1409C60.9552 18.3015 62.5224 18.9043 63.2055 19.6275C63.8082 20.2707 63.4868 20.2304 63.3661 20.0696C63.2055 19.8686 61.9597 19.0249 61.4776 18.8241C60.9955 18.6232 60.3926 18.2614 60.3926 18.1811C60.3926 18.1008 60.7141 18.1409 60.7141 18.1409Z" fill="white"/>
<path d="M17.6387 36.4639C19.929 34.8165 31.7828 28.508 34.6358 27.6239C37.4886 26.6996 36.6046 25.6146 36.6046 25.6146C36.6046 25.6146 25.0321 30.5972 18.1208 34.8968" fill="white"/>
<path d="M51.5125 16.7345C52.8386 17.2971 55.4103 17.8998 56.1335 18.0606C56.8567 18.2214 58.022 17.4979 58.5846 17.1363C59.5893 16.4934 60.8749 17.0158 61.4778 17.699C61.8795 18.1409 62.0404 18.4222 62.0404 18.5427C62.0404 18.7033 61.5583 18.5427 61.5583 18.5427C61.277 18.4222 60.9554 18.3821 60.7146 18.2212C60.393 18.0606 60.0714 17.8195 59.5895 17.8596C57.5803 18.1008 57.1784 18.7838 55.4507 18.3819C53.723 17.9801 53.2809 17.6185 51.4326 17.7388" fill="white"/>
<path d="M45.2841 54.2645C45.2038 54.1842 45.3644 54.1039 45.2841 54.1039C44.7619 54.1039 44.0385 53.7021 43.6365 53.1395C41.9087 50.6483 39.3771 49.0009 34.7964 49.1214C27.9252 49.282 25.1927 46.4694 24.6705 41.085C24.3892 38.1518 23.5855 35.2988 21.9381 33.6914L20.9736 34.2943C22.8219 35.9015 23.4248 38.5134 23.8266 42.0896C24.4695 47.474 28.8092 49.9653 33.8722 50.0456C39.1361 50.1259 41.0246 51.2109 42.9934 53.8631C43.6363 54.7068 44.3597 54.9881 44.9221 55.1087L45.2841 54.2645Z" fill="white"/>
<path opacity="0.4" d="M63.9286 28.4275C64.0492 29.0302 64.3705 30.1955 65.0134 30.7579C65.2949 31.0392 65.335 31.1195 65.0939 31.1195C64.8527 31.1195 63.0847 31.0392 63.0847 31.0392L62.6025 30.1955L63.9286 28.4275Z" fill="white"/>
</svg>
