<svg width="80" height="80" viewBox="0 0 80 80" fill="none" xmlns="http://www.w3.org/2000/svg">
<g clip-path="url(#clip0_6_684)">
<path d="M0 0H80V80H0V0ZM73.4467 60.92C72.8635 57.2699 70.4867 54.2035 63.4365 51.3432C60.9832 50.1933 58.2565 49.3933 57.4467 47.5432C57.1432 46.4435 57.0965 45.8432 57.2933 45.1933C57.7933 43.04 60.3432 42.3933 62.3432 42.9933C63.6432 43.3933 64.8435 44.3933 65.5968 45.9933C69.0435 43.74 69.0435 43.74 71.4467 42.2435C70.5467 40.8435 70.1 40.24 69.4933 39.6432C67.3933 37.2933 64.5965 36.0933 60.0467 36.1968L57.6965 36.4933C55.4435 37.0432 53.2965 38.2435 51.9968 39.8432C48.1965 44.1467 49.2933 51.6467 53.8933 54.7467C58.4432 58.1467 65.0968 58.8933 65.9467 62.0965C66.7467 65.9965 63.0467 67.2467 59.3933 66.7965C56.6901 66.1965 55.1933 64.8432 53.5435 62.3432L47.4435 65.8467C48.1432 67.4467 48.9435 68.1435 50.1435 69.5435C55.9435 75.3968 70.4435 75.0965 73.0467 66.1965C73.1432 65.8965 73.8467 63.8467 73.2933 60.6965L73.4467 60.92ZM43.5032 36.7699H36.0101C36.0101 43.2301 35.98 49.6501 35.98 56.12C35.98 60.2267 36.1899 63.9968 35.52 65.1568C34.42 67.4533 31.5867 67.16 30.3 66.7568C28.98 66.1032 28.3101 65.2035 27.5333 63.9067C27.3235 63.5568 27.1667 63.2533 27.1101 63.2533L21.0267 67.0032C22.0433 69.1032 23.5267 70.9099 25.44 72.06C28.2901 73.76 32.12 74.3101 36.1299 73.4101C38.74 72.6568 40.9899 71.1067 42.1667 68.7067C43.8667 65.6067 43.5067 61.8067 43.4901 57.5533C43.5299 50.7067 43.4901 43.8565 43.4901 36.9565L43.5032 36.7699Z" fill="white"/>
</g>
<defs>
<clipPath id="clip0_6_684">
<rect width="80" height="80" fill="white"/>
</clipPath>
</defs>
</svg>
