<svg width="80" height="80" viewBox="0 0 80 80" fill="none" xmlns="http://www.w3.org/2000/svg">
<g clip-path="url(#clip0_6_755)">
<path d="M41.68 0C41.1633 0 40.63 0.0266667 40.08 0.07C25.9933 1.18 29.73 16.0933 29.5133 21.0633C29.26 24.7033 28.5133 27.5733 26.0133 31.13C23.0633 34.6333 18.9233 40.2967 16.96 46.2C16.0333 48.9733 15.5933 51.8133 16.0033 54.4967C15.8513 54.6197 15.7264 54.7729 15.6367 54.9467C14.77 55.84 14.1367 56.9467 13.4267 57.7433C12.7633 58.4067 11.81 58.6333 10.77 59.0767C9.72667 59.53 8.57667 59.9733 7.89 61.3433C7.59 61.9733 7.43667 62.6567 7.45 63.35C7.45 64.0133 7.54 64.6833 7.63334 65.1367C7.82667 66.4667 8.02 67.5633 7.76667 68.37C6.93667 70.6367 6.83334 72.1867 7.41334 73.3167C7.99334 74.43 9.19667 74.8833 10.5467 75.32C13.2467 75.9867 16.9133 75.77 19.7933 77.32C22.88 78.8733 26.0133 79.5533 28.5133 78.8867C30.2667 78.5 31.7467 77.34 32.54 75.7333C34.4967 75.7233 36.64 74.8367 40.0733 74.62C42.4033 74.4267 45.32 75.51 48.6633 75.2867C48.7467 75.7333 48.8733 75.9467 49.0433 76.3967L49.0533 76.4067C50.3567 79 52.7633 80.18 55.3333 79.9767C57.9033 79.7767 60.64 78.19 62.8567 75.6233C64.96 73.0733 68.4667 72.01 70.7833 70.6133C71.9433 69.95 72.88 69.05 72.9467 67.77C73.0233 66.4367 72.28 65.0667 70.5667 63.1833V62.86L70.5567 62.85C69.99 62.1833 69.7233 61.0667 69.43 59.7633C69.1467 58.4267 68.8233 57.1433 67.79 56.2767H67.78C67.5833 56.0967 67.37 56.0533 67.1533 55.8267C66.9669 55.6965 66.7472 55.6225 66.52 55.6133C67.9567 51.3533 67.4 47.1133 65.9433 43.3C64.1667 38.6 61.06 34.5067 58.6933 31.69C56.04 28.34 53.44 25.1667 53.4933 20.4633C53.58 13.29 54.28 0.02 41.68 0ZM43.4433 11.35H43.4867C44.1967 11.35 44.8067 11.5567 45.4333 12.01C46.0667 12.46 46.5333 13.1167 46.8933 13.7867C47.2433 14.65 47.42 15.3167 47.4467 16.2C47.4467 16.1333 47.4667 16.0667 47.4667 16V16.35C47.4593 16.3273 47.4549 16.3038 47.4533 16.28L47.44 16.2C47.4333 17.0101 47.2632 17.8105 46.94 18.5533C46.7843 18.9713 46.5424 19.3517 46.23 19.67C46.1356 19.6167 46.0375 19.5699 45.9367 19.53C45.59 19.38 45.2767 19.3167 44.99 19.0867C44.7525 18.992 44.5071 18.9184 44.2567 18.8667C44.4233 18.6667 44.7433 18.4233 44.8667 18.2067C45.0433 17.78 45.14 17.3267 45.16 16.8667V16.8C45.1675 16.3473 45.0988 15.8965 44.9567 15.4667C44.8067 15.02 44.62 14.8 44.3467 14.3567C44.0667 14.1367 43.79 13.9167 43.4567 13.9167H43.4033C43.0933 13.9167 42.8167 14.0167 42.53 14.3567C42.2134 14.6654 41.9786 15.048 41.8467 15.47C41.6696 15.8935 41.5681 16.3448 41.5467 16.8033V16.8667C41.5533 17.1633 41.5733 17.4633 41.6133 17.7567C40.97 17.5333 40.1533 17.3067 39.59 17.0833C39.5564 16.8625 39.5363 16.6399 39.53 16.4167V16.35C39.5038 15.4701 39.6747 14.5954 40.03 13.79C40.3033 13.0567 40.8033 12.4367 41.4633 12.0133C42.0331 11.5815 42.7284 11.3507 43.4433 11.35ZM33.57 11.5467H33.69C34.1633 11.5467 34.59 11.7067 35.02 11.9967C35.5067 12.4267 35.9 12.9567 36.1667 13.5467C36.4667 14.21 36.6333 14.88 36.6767 15.77V15.7833C36.7 16.23 36.6967 16.45 36.67 16.67V16.9367C36.57 16.96 36.4833 16.9967 36.3933 17.0167C35.8867 17.2 35.48 17.4667 35.0833 17.6833C35.1233 17.3833 35.1267 17.0833 35.0933 16.7933V16.7433C35.0533 16.3 34.96 16.0767 34.82 15.6333C34.7161 15.2936 34.5253 14.9869 34.2667 14.7433C34.1845 14.6686 34.0882 14.6112 33.9834 14.5746C33.8786 14.5379 33.7675 14.5228 33.6567 14.53H33.5867C33.35 14.55 33.1533 14.6633 32.9667 14.97C32.754 15.2281 32.6157 15.5392 32.5667 15.87C32.4766 16.2293 32.4506 16.6017 32.49 16.97V17.02C32.53 17.47 32.6133 17.6867 32.7567 18.1333C32.91 18.58 33.0833 18.8 33.31 19.0267C33.3433 19.0567 33.3767 19.0867 33.4233 19.1067C33.19 19.2967 33.0333 19.34 32.8367 19.56C32.7119 19.6703 32.562 19.7481 32.4 19.7867C32.0535 19.3694 31.7466 18.9208 31.4833 18.4467C31.1682 17.7462 30.9927 16.991 30.9667 16.2233C30.9115 15.4709 31.002 14.7148 31.2333 13.9967C31.4169 13.3417 31.7386 12.7337 32.1767 12.2133C32.6033 11.77 33.0433 11.5467 33.57 11.5467ZM38.1367 17.2333C39.2433 17.2333 40.58 17.45 42.19 18.5633C43.1667 19.23 43.9333 19.46 45.6967 20.1233H45.7067C46.5567 20.5767 47.0567 21.01 47.3 21.4533V21.0167C47.4196 21.259 47.4862 21.5241 47.4954 21.7943C47.5046 22.0644 47.4562 22.3334 47.3533 22.5833C46.9433 23.6167 45.6333 24.7267 43.81 25.39V25.3967C42.9167 25.8467 42.14 26.5067 41.2267 26.9467C40.3067 27.3967 39.2667 27.92 37.8533 27.8367C37.3456 27.863 36.8378 27.787 36.36 27.6133C35.9908 27.4125 35.6325 27.1922 35.2867 26.9533C34.6367 26.5033 34.0767 25.8467 33.2467 25.4033V25.3867H33.23C31.8967 24.5667 31.1767 23.68 30.9433 23.02C30.71 22.1267 30.9267 21.4533 31.5867 21.02C32.3333 20.57 32.8533 20.1167 33.1967 19.9C33.5433 19.6533 33.6733 19.56 33.7833 19.4633H33.79V19.4533C34.3533 18.78 35.2433 17.8867 36.5867 17.45C37.05 17.33 37.5667 17.2333 38.14 17.2333H38.1367ZM47.47 24.3733C48.6633 29.0967 51.4567 35.9567 53.2533 39.2833C54.2067 41.0633 56.1033 44.8133 56.9267 49.3633C57.4467 49.3467 58.0267 49.4233 58.6367 49.5767C60.79 44.0067 56.8167 38.02 55.0067 36.3567C54.2733 35.69 54.2333 35.24 54.5967 35.24C56.5633 37.02 59.1467 40.48 60.0833 44.43C60.5167 46.2133 60.6167 48.11 60.1533 49.9967C60.3767 50.09 60.6033 50.1967 60.8367 50.22C64.2767 52 65.5467 53.3467 64.9367 55.3433V55.2C64.7367 55.19 64.5367 55.2 64.3367 55.2H64.2833C64.7867 53.6433 63.6767 52.45 60.7333 51.12C57.6833 49.7867 55.2467 50 54.8333 52.67C54.8067 52.8133 54.79 52.89 54.7733 53.12C54.5467 53.1967 54.31 53.2967 54.0767 53.3333C52.6433 54.2267 51.87 55.5633 51.4333 57.29C51 59.0667 50.8667 61.1433 50.75 63.52V63.53C50.6833 64.6433 50.1833 66.3233 49.6867 68.03C44.6867 71.6033 37.7533 73.1567 31.86 69.1433C31.4902 68.4969 31.0399 67.8999 30.52 67.3667C30.2716 66.953 29.9626 66.5788 29.6033 66.2567C30.21 66.2567 30.73 66.1567 31.1533 66.0333C31.6327 65.811 32.0076 65.4121 32.2 64.92C32.56 64.03 32.2 62.5967 31.05 61.0433C29.9 59.4867 27.9467 57.7267 25.09 55.9733C22.99 54.64 21.8033 53.0733 21.2567 51.32C20.7067 49.54 20.78 47.7033 21.2067 45.8367C22.0233 42.27 24.1167 38.8033 25.4533 36.6267C25.81 36.41 25.5767 37.0767 24.0933 39.8733C22.7733 42.3767 20.2933 48.1967 23.6867 52.72C23.8148 49.4197 24.5458 46.1706 25.8433 43.1333C27.7233 38.8733 31.6533 31.4533 31.9633 25.5733C32.1233 25.6933 32.6867 26.0233 32.9267 26.2467C33.6533 26.69 34.1933 27.3567 34.8933 27.7967C35.5933 28.4667 36.4833 28.9133 37.8133 28.9133C37.9433 28.9233 38.0633 28.9333 38.18 28.9333C39.5533 28.9333 40.6133 28.4867 41.5033 28.04C42.47 27.5933 43.2367 26.9267 43.97 26.7067H43.9867C45.5433 26.2567 46.77 25.3667 47.4667 24.3733H47.47ZM54.7533 54.2333C54.8767 56.2333 55.8967 58.3833 57.6933 58.8233C59.6533 59.27 62.4733 57.7133 63.6633 56.2733L64.3667 56.24C65.4167 56.2167 66.29 56.2733 67.19 57.1333L67.2 57.1433C67.8933 57.8067 68.2167 58.91 68.5033 60.0633C68.7867 61.3967 69.0167 62.6633 69.8667 63.6167C71.4867 65.3733 72.0167 66.6367 71.9867 67.4167L71.9967 67.3933V67.4533L71.9867 67.4167C71.9367 68.29 71.37 68.7333 70.3267 69.3967C68.2267 70.7333 64.5067 71.77 62.1367 74.63C60.0767 77.0867 57.57 78.43 55.35 78.6C53.1367 78.7767 51.2267 77.9333 50.1033 75.6067L50.0867 75.5967C49.3867 74.2633 49.6867 72.18 50.2733 69.9633C50.86 67.7367 51.7 65.4833 51.8167 63.64C51.94 61.26 52.07 59.19 52.4667 57.5933C52.8667 56.0433 53.4933 54.9367 54.6033 54.3133L54.7533 54.24V54.2333ZM18.7067 54.3967H18.74C18.9167 54.3967 19.09 54.4133 19.2633 54.4433C20.5167 54.6267 21.6167 55.5533 22.6733 56.95L25.7067 62.4967L25.7167 62.5067C26.5267 64.2833 28.23 66.0533 29.68 67.9633C31.1267 69.9567 32.2467 71.7333 32.11 73.1967V73.2167C31.92 75.6967 30.51 77.0433 28.36 77.53C26.21 77.98 23.2933 77.5367 20.3767 75.9833C17.15 74.1967 13.3167 74.42 10.8533 73.9767C9.62334 73.7567 8.82 73.31 8.44334 72.6433C8.07667 71.9767 8.06667 70.6367 8.85334 68.5433V68.53L8.86 68.52C9.25 67.4067 8.96 66.0133 8.77 64.7933C8.58667 63.4567 8.49334 62.4267 8.91334 61.66C9.44667 60.5467 10.2333 60.3267 11.2133 59.8833C12.1933 59.4333 13.3467 59.21 14.2633 58.3167H14.27V58.31C15.1233 57.4167 15.7533 56.3067 16.4967 55.5167C17.13 54.8467 17.7633 54.3967 18.7067 54.3967ZM42.57 24.15C41.12 24.82 39.42 25.9333 37.61 25.9333C35.8033 25.9333 34.3767 25.0433 33.3433 24.38C32.83 23.9333 32.41 23.4867 32.1 23.2633C31.5533 22.8167 31.62 22.1533 31.8533 22.1533C32.2167 22.2067 32.2833 22.6 32.5167 22.82C32.8367 23.04 33.2333 23.4867 33.7167 23.93C34.69 24.5967 35.9833 25.4867 37.6067 25.4867C39.2233 25.4867 41.1167 24.5967 42.2667 23.9333C42.9167 23.4833 43.75 22.82 44.4267 22.3767C44.9467 21.9233 44.9233 21.4867 45.3567 21.4867C45.7833 21.54 45.47 21.9333 44.8667 22.5933C44.1273 23.1525 43.3596 23.6732 42.5667 24.1533L42.57 24.15ZM38.9633 18.8733V18.8C38.9433 18.7333 39.0067 18.66 39.06 18.6333C39.3067 18.49 39.66 18.5433 39.9267 18.6467C40.1367 18.6467 40.46 18.87 40.4267 19.0967C40.4067 19.26 40.1433 19.3167 39.9767 19.3167C39.7933 19.3167 39.67 19.1733 39.5067 19.09C39.3333 19.03 39.02 19.0633 38.9633 18.8733ZM37.1267 18.8733C37.06 19.0667 36.75 19.0367 36.5733 19.0933C36.4167 19.1767 36.2867 19.32 36.1067 19.32C35.94 19.32 35.6733 19.2533 35.6533 19.0933C35.62 18.8733 35.9467 18.65 36.1533 18.65C36.42 18.5467 36.7667 18.4933 37.0167 18.6333C37.08 18.6633 37.1367 18.7333 37.1167 18.8V18.8667H37.1267V18.8733Z" fill="white"/>
</g>
<defs>
<clipPath id="clip0_6_755">
<rect width="80" height="80" fill="white"/>
</clipPath>
</defs>
</svg>
