<svg width="310" height="236" viewBox="0 0 310 236" fill="none" xmlns="http://www.w3.org/2000/svg">
<path d="M16.5331 2.1334C9.86646 4.00007 1.73312 13.8667 0.533123 21.3334C-0.933544 31.0667 1.73312 37.3334 11.1998 46.8001C36.6665 72.6667 135.333 164.667 139.6 166.8C142.4 168.133 148.4 169.467 152.933 169.733C168 170.8 168.666 170.133 234.133 108L292.666 52.2667L293.066 129.2C293.333 214.133 293.6 211.467 284.933 216.667C280.8 219.2 277.333 219.333 154.933 219.333C16.1331 219.333 23.9998 219.867 18.6665 210.933C16.1331 206.933 15.9998 203.867 15.9998 154.267C15.9998 103.733 15.8665 101.867 13.3331 99.3334C9.86646 95.8667 5.99979 96.0001 2.66646 99.3334C-0.000210068 102 -0.133543 103.2 0.266457 157.067C0.666457 210.4 0.79979 212.133 3.59979 217.333C6.93312 223.6 12.1331 228.667 18.6665 232.133C23.0665 234.533 29.4665 234.667 152 235.067C250.933 235.333 282 235.067 286.666 233.733C294.533 231.6 305.466 220.933 307.733 213.2C309.866 205.867 310 22.8001 307.866 17.0667C305.866 11.7334 300.266 6.1334 294 3.20007C288.933 0.800069 282.4 0.666736 154.666 0.800069C79.0665 0.933402 18.7998 1.46674 16.5331 2.1334ZM290.266 19.6001C295.333 24.4001 294.266 28.0001 285.066 37.3334C280.4 42.0001 251.333 69.7334 220.266 99.2001C174.133 142.933 163.066 152.667 159.333 153.467C148.266 155.467 149.066 156.133 88.3998 98.5334C56.9331 68.8001 27.8665 40.9334 23.7331 36.6667C15.1998 28.1334 14.2665 24.6667 18.9331 19.7334L21.7331 16.6667H154.533H287.2L290.266 19.6001Z" fill="black"/>
</svg>
