<svg width="80" height="80" viewBox="0 0 80 80" fill="none" xmlns="http://www.w3.org/2000/svg">
<g clip-path="url(#clip0_6_716)">
<path d="M46.7133 24.5667C45.8148 24.5548 44.9161 24.5826 44.02 24.65C43.2933 24.7067 42.5733 24.89 41.8533 25.0167C42.6167 25.41 43.3733 25.7267 44.12 26.0667C44.87 26.41 45.5733 26.84 46.2167 27.3567C45.3733 27.0334 44.5533 26.6634 43.71 26.3634C41.9594 25.7082 40.1451 25.2379 38.2967 24.96C37.3867 24.8367 36.4767 24.7167 35.5667 24.9767C34.6467 25.2367 34.3867 25.5767 34.3 26.5034C34.1667 28.0367 34.6267 29.46 35.2367 30.83C36.1434 32.8519 37.4934 34.6439 39.1867 36.0734C40.49 37.19 41.9367 38.0667 43.5367 38.6967C43.99 38.8734 44.45 39.04 44.9067 39.2134L44.8767 39.32C44 39.08 43.1033 38.9 42.2533 38.5867C40.7653 38.0168 39.3871 37.1936 38.18 36.1534C36.8113 35.025 35.6718 33.6445 34.8233 32.0867C33.9122 30.4438 33.4199 28.6017 33.39 26.7234L33.35 26.74C16.3033 24.96 1.34 38.65 0.116667 39.8L0.00333333 39.8467C-0.00333333 39.8634 0.00333333 39.88 0.0133333 39.9L0 39.9134L0.0166667 39.9067C0.03 39.9334 0.05 39.96 0.06 39.9867C0.35 39.9234 0.636667 39.8467 0.926667 39.8067L1.15667 39.7734C2.23667 39.39 3.34 39.09 4.48 38.93C6.09333 38.7 7.76333 38.4 9.41333 38.41C10.9733 38.4167 12.5567 38.6567 14.0867 38.92C14.5167 38.9934 14.9367 39.0934 15.3533 39.21C16.47 39.46 17.52 39.91 18.4633 40.5134L18.6633 40.6134C20.0067 41.2467 21.19 42.18 22.1233 43.3167C22.2967 43.5067 22.5933 43.7034 22.7467 43.91C23.0667 44.29 23.22 44.6967 23.7567 45.12V39.33H30.4567L33.5867 45.1067L36.7267 39.33H43.6267V50.52L44.77 49.7667C44.77 49.7667 46.02 46.4334 51.8233 45.9667L58.4767 45.7534C57.45 43.63 57.4533 43.63 57.9467 42.9867C58.4367 42.3534 62.2133 41.94 62.88 41.5434L72.5867 39.5834C72.61 39.51 72.6367 39.6234 72.6867 39.6067C72.9267 39.5334 73.1767 39.4834 73.52 39.4034L75.72 38.87C75.86 38.7867 76.03 38.7567 76.1867 38.7034C77.2133 38.3467 78.11 37.8867 78.6067 36.7934C79.09 35.73 79.7367 34.74 79.9733 33.57C80.0467 33.2 79.9833 32.8767 79.7133 32.61C79.39 32.29 78.9733 32.15 78.5467 32.04C77.1433 31.4634 75.7467 30.8734 74.3333 30.33C73.4633 29.9934 72.57 29.7134 71.6833 29.43C70.8048 29.1481 69.9225 28.878 69.0367 28.62C68.2233 28.38 67.4033 28.16 66.5833 27.9367C65.7833 27.7167 64.9833 27.4934 64.1833 27.2967C63.2433 27.0634 62.3 26.8634 61.36 26.6467C60.6433 26.48 59.9333 26.3067 59.2133 26.16C58.4333 26.0034 57.6467 25.8634 56.86 25.7267C55.8533 25.55 54.8533 25.3534 53.8433 25.2167C52.6233 25.05 51.3967 24.9434 50.1733 24.8C49.0233 24.6667 47.87 24.5834 46.7133 24.5667ZM35.7033 27.1234C35.7665 27.1196 35.8297 27.1275 35.89 27.1467C37.29 27.58 38.6567 28.07 39.9433 28.7834C41.16 29.46 42.26 30.2834 43.2067 31.3034C43.2467 31.3467 43.2733 31.3967 43.3267 31.47L41.1767 30.4934L41.1067 30.58L42.34 32.4167L42.2667 32.49C41.6014 31.9967 40.8495 31.6327 40.05 31.4167L39.9833 31.4834L42.0933 33.95L40.7067 33.4967L40.65 33.5634C41.1933 34.4634 41.9033 35.2467 42.5833 36.1467C41.4033 35.48 40.3667 34.7467 39.3967 33.9167C38.0529 32.8062 36.9135 31.4694 36.03 29.9667C35.6733 29.3334 35.36 28.6834 35.29 27.9467C35.2752 27.7791 35.2876 27.6103 35.3267 27.4467C35.3455 27.359 35.3925 27.2799 35.4605 27.2215C35.5285 27.1631 35.6138 27.1287 35.7033 27.1234ZM53.7833 29.35C54.2967 29.3567 54.82 29.33 55.33 29.4C56.2567 29.5234 57.18 29.7067 58.1033 29.8667C58.63 29.9567 59.16 30.04 59.6833 30.1534C60.6733 30.3667 61.6633 30.5967 62.65 30.82C63.3033 30.9734 63.9567 31.1267 64.6067 31.2867L63.51 31.8234C62.2933 31.9134 61.0733 32.0067 59.8533 32.0134C59.0968 32.0095 58.3427 31.9268 57.6033 31.7667C56.67 31.5734 55.89 31.1134 55.43 30.2134C55.3633 30.08 55.13 30.0034 54.9633 29.9534C54.3633 29.7734 53.7567 29.62 53.15 29.3934C53.36 29.3767 53.57 29.3467 53.7833 29.35ZM64.5267 38.1334L64.5433 38.2C64.2767 38.2734 64.01 38.34 63.7467 38.4234C62.23 38.89 60.6933 39.31 59.2033 39.85C58.27 40.1867 57.39 40.6834 56.5033 41.1434C55.7267 41.54 55.4533 42.2167 55.5467 43.06C55.61 43.6 55.68 44.14 55.73 44.6867C55.2465 43.9854 54.9192 43.1886 54.77 42.35C54.6533 41.7867 54.9633 41.44 55.37 41.1334C56.1633 40.54 57.0233 40.0734 57.96 39.7667C59.1267 39.3767 60.3 38.99 61.49 38.6834C62.3267 38.4667 63.2 38.3834 64.0567 38.24C64.2167 38.2134 64.37 38.17 64.5267 38.1334ZM30.47 46.5167V55.4367H36.7L36.9133 55.2167V46.5167L33.68 51.5L30.47 46.5167Z" fill="white"/>
</g>
<defs>
<clipPath id="clip0_6_716">
<rect width="80" height="80" fill="white"/>
</clipPath>
</defs>
</svg>
