<svg width="80" height="80" viewBox="0 0 80 80" fill="none" xmlns="http://www.w3.org/2000/svg">
<g clip-path="url(#clip0_6_712)">
<path d="M47.1035 0.156677C46.5268 0.156677 45.9901 0.280011 45.4935 0.446677C46.5468 1.14668 47.1268 2.08001 47.4135 3.13334C47.4368 3.27668 47.4768 3.38001 47.4968 3.52334C47.5215 3.64638 47.536 3.77125 47.5401 3.89668C47.6201 5.71334 47.0635 5.94334 46.6735 7.01668C46.0735 8.40001 46.2401 9.88668 46.9601 11.0833C47.0261 11.2438 47.1087 11.3969 47.2068 11.54C46.4235 6.31334 50.7835 5.53001 51.5868 3.89668C51.6501 2.47001 50.4735 1.52001 49.5435 0.860011C48.8126 0.400774 47.9666 0.158063 47.1035 0.160011V0.156677ZM53.6735 1.33334C53.5935 1.81001 53.6535 1.68668 53.6335 1.93334C53.6135 2.10001 53.6135 2.30668 53.5935 2.47001C53.5501 2.63668 53.5101 2.80334 53.4468 2.96668C53.4068 3.13334 53.3468 3.30001 53.2801 3.46334L53.0568 3.93668C52.9901 4.02001 52.9535 4.10334 52.8901 4.18668L52.7668 4.37001C52.6685 4.51147 52.5651 4.64933 52.4568 4.78334C52.3335 4.91001 52.2301 5.05334 52.0835 5.15668V5.17668C51.9601 5.28001 51.8368 5.40334 51.6901 5.51001C51.2568 5.84001 50.7635 6.08668 50.3068 6.39668C50.1635 6.49668 50.0168 6.58334 49.8935 6.70668C49.7532 6.80531 49.6216 6.91571 49.5001 7.03668C49.3568 7.16001 49.2535 7.28334 49.1301 7.43001C49.0268 7.55334 48.9035 7.69668 48.8201 7.84334C48.7164 7.98292 48.6196 8.12754 48.5301 8.27668C48.4468 8.44334 48.3868 8.58668 48.3035 8.75001C48.2401 8.91668 48.1801 9.06001 48.1368 9.22668C48.0821 9.39691 48.0343 9.56928 47.9935 9.74334C47.9735 9.82668 47.9735 9.93001 47.9535 10.01C47.9301 10.0933 47.9301 10.1767 47.9101 10.26C47.9101 10.4267 47.8901 10.61 47.8901 10.7767C47.8901 10.9 47.8901 11.0233 47.9101 11.1467C47.9101 11.3133 47.9301 11.48 47.9735 11.6633C47.9935 11.83 48.0335 11.9967 48.0735 12.1633C48.1401 12.3267 48.1801 12.49 48.2401 12.6567C48.2835 12.7567 48.3435 12.8633 48.3868 12.9467L43.6335 11.1067C42.8301 10.88 42.0435 10.6733 41.2368 10.4867L39.9368 10.1767C38.6968 9.93001 37.4368 9.74334 36.1768 9.62001C36.1335 9.62001 36.1135 9.60001 36.0735 9.60001C33.9443 9.38673 31.8007 9.35885 29.6668 9.51668C28.4068 9.60001 27.1468 9.76334 25.8868 9.97001C24.9504 10.1313 24.0199 10.3248 23.0968 10.55L22.1668 10.7967C21.8601 10.92 21.5668 11.0633 21.2801 11.19L20.5968 11.5C20.5568 11.52 20.5168 11.52 20.4968 11.54C20.2868 11.6433 20.1035 11.7267 19.9168 11.83C19.6484 11.9484 19.3859 12.0797 19.1301 12.2233C18.9868 12.2833 18.8435 12.3667 18.7168 12.43C18.6576 12.4667 18.5964 12.5001 18.5335 12.53C18.3468 12.6367 18.1601 12.74 17.9935 12.8433C17.8233 12.9374 17.6586 13.0409 17.5001 13.1533C17.3535 13.2533 17.2101 13.3367 17.0868 13.44C17.0668 13.4633 17.0435 13.4633 17.0235 13.4833C16.9001 13.5667 16.7568 13.67 16.6301 13.7733L16.5901 13.8133L16.2801 14.06C16.2401 14.0833 16.1968 14.1233 16.1568 14.1433C16.0535 14.2267 15.9501 14.33 15.8468 14.41C15.8268 14.4533 15.7835 14.4767 15.7635 14.4933C15.6401 14.62 15.5168 14.7233 15.3935 14.8467C15.3701 14.8467 15.3701 14.8667 15.3501 14.8867C15.2217 14.999 15.0982 15.1169 14.9801 15.24C14.9568 15.26 14.9568 15.28 14.9368 15.28C14.8283 15.3862 14.7248 15.4974 14.6268 15.6133C14.5868 15.6533 14.5268 15.6933 14.4835 15.7333C14.3728 15.8643 14.2548 15.9889 14.1301 16.1067C14.1101 16.1467 14.0701 16.17 14.0501 16.2067C13.8835 16.3733 13.7401 16.54 13.5735 16.7067L13.5135 16.7667C13.1801 17.12 12.8301 17.47 12.4568 17.78C12.0868 18.1133 11.6935 18.42 11.3001 18.69C10.5104 19.2541 9.65805 19.725 8.76013 20.0933C8.32679 20.28 7.87012 20.4467 7.41679 20.59C6.55012 20.7767 5.66012 21.1267 4.89679 21.19C4.73012 21.19 4.54679 21.23 4.38013 21.25L3.86346 21.3733L3.36679 21.56C3.20012 21.6233 3.03679 21.7067 2.87346 21.7867C2.72679 21.89 2.56346 21.9733 2.41679 22.0767C2.26972 22.1831 2.13149 22.3013 2.00346 22.43C1.86012 22.53 1.71346 22.6767 1.59012 22.8C1.46679 22.9433 1.34346 23.0667 1.24012 23.2133C1.13679 23.38 1.01346 23.5233 0.930125 23.69C0.821551 23.8402 0.724602 23.9984 0.640125 24.1633C0.556791 24.35 0.473458 24.5167 0.413458 24.7C0.350125 24.8667 0.290125 25.0533 0.226791 25.2367C0.186791 25.4033 0.143458 25.57 0.126791 25.7367C0.126791 25.7533 0.103458 25.7767 0.103458 25.7967C0.063458 25.9833 0.063458 26.23 0.0401247 26.3533C0.0201246 26.5 0.000124647 26.62 0.000124647 26.7667C-0.00371041 27.1261 0.0810043 27.481 0.246791 27.8V27.82C0.310125 27.9433 0.393458 28.07 0.476791 28.1933C0.556791 28.3167 0.643458 28.44 0.743458 28.5633C0.846791 28.6667 0.970125 28.7933 1.09679 28.8967C1.21724 29.0175 1.3477 29.1279 1.48679 29.2267C1.98346 29.66 2.10679 29.8033 2.74679 30.1333C2.85012 30.1967 2.95346 30.2367 3.08012 30.3C3.10012 30.3 3.12012 30.32 3.14012 30.32C3.14012 30.3633 3.14012 30.3833 3.16012 30.4233C3.20838 30.764 3.29792 31.0976 3.42679 31.4167C3.49346 31.54 3.53346 31.6633 3.59346 31.7867C3.61679 31.83 3.63679 31.87 3.66013 31.89C3.74013 32.0567 3.82346 32.2 3.90346 32.3467L4.21346 32.78C4.31679 32.9033 4.44346 33.0467 4.56679 33.1733C4.69013 33.2967 4.81346 33.4 4.96013 33.5233C4.96013 33.5233 4.98013 33.5433 5.00013 33.5433C5.12346 33.6467 5.24679 33.75 5.37346 33.8333C5.5172 33.9342 5.6688 34.0234 5.82679 34.1C5.97013 34.1833 6.13679 34.2667 6.30013 34.33C6.43332 34.3901 6.57166 34.4381 6.71346 34.4733C6.73679 34.4933 6.75679 34.4933 6.79679 34.5133C6.88013 34.5367 6.98346 34.5567 7.06346 34.5767C7.00346 35.6933 6.98346 36.7433 7.15013 37.1167C7.33346 37.53 8.24346 36.27 9.15012 34.8233C9.03012 36.25 8.94679 37.9233 9.15012 38.42C9.38012 38.9367 10.6168 37.3233 11.6935 35.5467C26.3435 32.16 39.7101 42.28 41.1135 56.58C40.8468 54.3467 38.0968 53.11 36.8368 53.42C36.2168 54.9467 35.1635 56.91 33.4701 58.13C33.6135 56.7633 33.5535 55.3633 33.2635 53.9967C32.8007 55.899 31.9257 57.6765 30.7001 59.2033C28.7401 59.3467 26.7768 58.3967 25.7435 56.97C25.6601 56.91 25.6401 56.7867 25.5768 56.7033C25.5168 56.56 25.4535 56.4133 25.4101 56.27C25.3502 56.1316 25.3087 55.9859 25.2868 55.8367C25.2668 55.69 25.2668 55.5467 25.2668 55.38V55.07C25.2915 54.9234 25.326 54.7786 25.3701 54.6367C25.4135 54.4933 25.4535 54.35 25.5168 54.2033C25.5968 54.06 25.6601 53.9133 25.7635 53.77C26.1135 52.7767 26.1135 51.97 25.4735 51.4967C25.3492 51.4155 25.2175 51.3463 25.0801 51.29C25.0001 51.27 24.8968 51.23 24.8135 51.2067L24.6468 51.1467C24.5053 51.1009 24.3604 51.0663 24.2135 51.0433C24.0727 51.0021 23.9268 50.9808 23.7801 50.98C23.6301 50.9565 23.4786 50.9431 23.3268 50.94C23.2235 50.94 23.1201 50.96 23.0168 50.96C22.8623 50.9591 22.7085 50.9805 22.5601 51.0233C22.4168 51.0433 22.2735 51.0633 22.1268 51.1033C21.9794 51.1429 21.8346 51.1919 21.6935 51.25C21.5501 51.31 21.4268 51.3733 21.2801 51.4367C21.1568 51.4967 21.0335 51.58 20.8868 51.6433C16.0735 54.7833 18.9468 62.1367 22.2301 64.2667C20.9901 64.4933 19.7301 64.76 19.3801 65.03L19.3368 65.07C20.2268 65.6067 21.1568 66.0633 22.1268 66.4567C23.4501 66.89 24.8535 67.28 25.4735 67.4467V67.4667C27.1852 67.8182 28.9357 67.9437 30.6801 67.84C39.8335 67.2 47.3335 60.2367 48.6968 51.0633L48.8201 51.6C48.8835 51.9733 48.9635 52.3667 49.0068 52.7567V52.7767C49.0468 52.9633 49.0668 53.15 49.0901 53.3167V53.3967C49.1101 53.5833 49.1301 53.77 49.1301 53.9367C49.1501 54.1633 49.1701 54.39 49.1701 54.6167V54.95C49.1701 55.05 49.1935 55.1733 49.1935 55.2767C49.1935 55.4033 49.1701 55.5267 49.1701 55.65V55.94C49.1701 56.0833 49.1501 56.2067 49.1501 56.3533C49.1501 56.4367 49.1501 56.52 49.1301 56.62C49.1301 56.7667 49.1101 56.91 49.1101 57.0767C49.0901 57.1367 49.0901 57.2 49.0901 57.26L49.0235 57.7367C49.0235 57.8 49.0235 57.86 49.0068 57.9233C48.9835 58.13 48.9435 58.3167 48.9235 58.5233V58.5633L48.8001 59.1433V59.2033L48.6768 59.76C48.6768 59.7833 48.6535 59.8267 48.6535 59.8433C48.6155 60.0324 48.5676 60.2193 48.5101 60.4033V60.4633C48.4468 60.67 48.3868 60.8567 48.3435 61.0433C48.3235 61.0633 48.3235 61.0833 48.3235 61.0833L48.1368 61.7033C48.0568 61.91 47.9935 62.0967 47.9101 62.3033C47.8268 62.51 47.7668 62.7167 47.6835 62.9033C47.6001 63.11 47.5168 63.2933 47.4368 63.5033H47.4135C47.3335 63.6867 47.2468 63.8933 47.1468 64.08C47.1294 64.1294 47.1083 64.1773 47.0835 64.2233C47.0635 64.2433 47.0635 64.2667 47.0435 64.2867C45.6771 67.0221 43.6883 69.3991 41.2368 71.2267C41.0701 71.33 40.9068 71.4567 40.7401 71.58C40.7001 71.62 40.6401 71.64 40.5968 71.68C40.449 71.7892 40.2979 71.8937 40.1435 71.9933L40.2035 72.1167H40.2268L41.0935 71.9933H41.1135C41.6501 71.91 42.1868 71.8067 42.7235 71.7033C42.8701 71.6833 43.0335 71.64 43.1801 71.6L43.4701 71.5367C43.6135 71.5167 43.7568 71.4767 43.9035 71.4567C44.0268 71.4133 44.1501 71.39 44.2735 71.3533C46.3401 70.8533 48.3435 70.1733 50.2668 69.37C46.9462 73.8928 42.5301 77.4968 37.4335 79.8433C39.8135 79.6767 42.1868 79.2867 44.4801 78.6233C52.7808 76.1828 59.7916 70.581 64.0035 63.0233C63.1528 67.8075 61.2553 72.3446 58.4468 76.31C60.4492 74.9892 62.2993 73.451 63.9635 71.7233C68.588 66.8953 71.624 60.7675 72.6635 54.1633C73.3635 57.43 73.5701 60.7967 73.2635 64.12C88.1768 43.3167 74.5001 21.7467 68.7768 16.0667C68.7568 16.0233 68.7368 16.0033 68.7368 15.9633C68.7168 15.9833 68.7168 15.9833 68.7168 16.0033C68.7168 15.9833 68.7168 15.9833 68.6935 15.9633C68.6935 16.21 68.6735 16.4567 68.6535 16.7067C68.5962 17.1694 68.5273 17.6307 68.4468 18.09C68.3468 18.5433 68.2201 19 68.0968 19.4567C67.9501 19.89 67.7868 20.3433 67.5968 20.7767C67.4079 21.2046 67.2022 21.625 66.9801 22.0367C66.5189 22.8466 65.9868 23.614 65.3901 24.33C65.0801 24.7 64.7501 25.03 64.4168 25.3633C64.222 25.5415 64.0219 25.7138 63.8168 25.88L63.3435 26.2933C62.9746 26.5844 62.5884 26.8527 62.1868 27.0967C61.7919 27.351 61.3848 27.5857 60.9668 27.8C60.5335 28.0067 60.1001 28.1933 59.6668 28.38C58.7842 28.7157 57.871 28.9647 56.9401 29.1233C56.4635 29.2067 55.9901 29.2467 55.5335 29.29C55.2039 29.3133 54.8738 29.3267 54.5435 29.33C54.0736 29.3235 53.6042 29.2957 53.1368 29.2467C52.6649 29.2096 52.196 29.1406 51.7335 29.04C51.2649 28.955 50.8027 28.8381 50.3501 28.69H50.3268C50.7835 28.6467 51.2368 28.6067 51.6935 28.5233C52.6237 28.3621 53.5367 28.1132 54.4201 27.78C54.8735 27.6133 55.3068 27.4067 55.7201 27.2C56.1535 26.9933 56.5468 26.7667 56.9601 26.52C57.3535 26.2533 57.7435 25.9833 58.1168 25.6933C58.4901 25.4033 58.8401 25.0933 59.1701 24.7633C59.5201 24.4533 59.8301 24.1033 60.1401 23.75C60.4501 23.38 60.7401 23.0067 61.0068 22.6367C61.0501 22.5733 61.0935 22.49 61.1335 22.43C61.3401 22.0967 61.5468 21.7667 61.7335 21.4367C62.1889 20.6144 62.5619 19.7491 62.8468 18.8533C62.9935 18.42 63.0968 17.9667 63.2001 17.51C63.2835 17.0367 63.3668 16.5833 63.4068 16.1267C63.4468 15.6533 63.4901 15.1767 63.4901 14.7233C63.4901 14.39 63.4668 14.06 63.4468 13.73C63.4056 13.2673 63.35 12.806 63.2801 12.3467C63.1998 11.881 63.0975 11.4194 62.9735 10.9633C62.8268 10.53 62.6835 10.0733 62.5168 9.64001C62.3501 9.20668 62.1468 8.77334 61.9401 8.36001C61.7101 7.94668 61.4835 7.53334 61.2368 7.14001C60.9729 6.75385 60.6972 6.37589 60.4101 6.00668C60.1001 5.65334 59.7901 5.30001 59.4601 4.95001C59.2862 4.77267 59.1073 4.60037 58.9235 4.43334C57.9901 3.71001 57.0235 3.03001 56.0501 2.41001C55.9166 2.3329 55.7786 2.26389 55.6368 2.20334C55.024 1.82812 54.3637 1.53331 53.6735 1.33334Z" fill="white"/>
</g>
<defs>
<clipPath id="clip0_6_712">
<rect width="80" height="80" fill="white"/>
</clipPath>
</defs>
</svg>
