<svg width="80" height="80" viewBox="0 0 80 80" fill="none" xmlns="http://www.w3.org/2000/svg">
<g clip-path="url(#clip0_6_682)">
<path d="M38.5716 0.000107644C37.985 0.000107644 37.5382 0.00344097 37.3782 0.0234409C36.9741 0.0638473 36.5697 0.100515 36.1649 0.133441C24.8078 1.15344 14.1639 7.28344 7.42364 16.7068C3.69605 21.8785 1.27281 27.8739 0.360015 34.1833C0.0400017 36.3801 0 37.0301 0 40.0068C0 42.9833 0.0400017 43.6366 0.360015 45.8335C2.53343 60.8533 13.2272 73.4735 27.7244 78.1501C30.3212 78.9833 33.0579 79.5566 36.1714 79.8999C37.3816 80.0332 42.6218 80.0332 43.8352 79.8999C49.2053 79.3067 53.759 77.9767 58.2458 75.6868C58.9358 75.3333 59.0691 75.24 58.9758 75.16C58.9091 75.1166 55.9758 71.1833 52.4589 66.4267L46.0618 57.7867L38.0482 45.9268C35.3821 41.9585 32.6909 38.0073 29.9745 34.0735C29.9445 34.0667 29.9147 39.3367 29.8979 45.7733C29.8747 57.04 29.8645 57.4899 29.7246 57.7566C29.5886 58.0691 29.345 58.3224 29.0378 58.4701C28.7879 58.5935 28.5712 58.6167 27.3879 58.6167H26.031L25.671 58.3901C25.4485 58.2507 25.2676 58.0536 25.1476 57.8201L24.9811 57.4667L25.001 41.7901L25.0245 26.1067L25.2645 25.8C25.4284 25.6085 25.6247 25.447 25.8444 25.3234C26.1644 25.1668 26.2912 25.1535 27.6444 25.1535C29.2378 25.1535 29.5045 25.2133 29.9178 25.6667C30.0347 25.7935 34.3748 32.3302 39.5682 40.2034C44.8264 48.1721 50.0878 56.1389 55.3522 64.1033L61.6858 73.7001L62.0058 73.4899C65.0553 71.464 67.8199 69.039 70.2262 66.28C75.2657 60.5118 78.5343 53.4126 79.64 45.8335C79.96 43.6335 80 42.9867 80 40.0068C80 37.0301 79.96 36.3801 79.64 34.1833C77.4667 19.1634 66.776 6.54344 52.2788 1.86677C49.5682 1.00505 46.7772 0.420941 43.9486 0.123441C42.1585 0.0387287 40.3668 -0.00239462 38.575 0.000107644H38.5716ZM52.1355 24.0568C53.2921 24.0568 53.4955 24.0734 53.7556 24.2134C53.9418 24.3074 54.1074 24.4373 54.2432 24.5959C54.3787 24.7544 54.4815 24.9382 54.5457 25.1367C54.6056 25.3367 54.6223 29.6868 54.6056 39.4834L54.5857 53.5433L52.1055 49.7433L49.6187 45.9433V35.7234C49.6187 29.1168 49.6521 25.4 49.6955 25.2235C49.7513 25.015 49.849 24.8199 49.9825 24.6504C50.1159 24.4807 50.2827 24.3401 50.472 24.2367C50.792 24.0701 50.9055 24.0568 52.1389 24.0568H52.1355Z" fill="white"/>
</g>
<defs>
<clipPath id="clip0_6_682">
<rect width="80" height="80" fill="white"/>
</clipPath>
</defs>
</svg>
