<svg width="80" height="80" viewBox="0 0 80 80" fill="none" xmlns="http://www.w3.org/2000/svg">
<g clip-path="url(#clip0_6_686)">
<path d="M44.8807 66.0983H74.62C75.5647 66.0983 76.4927 65.8573 77.3107 65.399C78.1235 64.946 78.8027 64.2871 79.28 63.4883C79.7509 62.6991 79.9996 61.7973 80 60.8783C79.9989 59.9594 79.7493 59.0578 79.2777 58.269L59.3053 24.714C58.8279 23.9156 58.1489 23.2569 57.3363 22.804C56.5142 22.3447 55.5881 22.1038 54.6463 22.1043C53.702 22.1043 52.7743 22.3457 51.9563 22.8037C51.1437 23.2567 50.4647 23.9155 49.9873 24.714L44.8807 33.3L34.896 16.5113C34.4182 15.7129 33.7388 15.0542 32.926 14.6013C32.1037 14.1422 31.1775 13.9014 30.2357 13.902C29.291 13.902 28.3633 14.143 27.545 14.601C26.7322 15.0539 26.0528 15.7126 25.575 16.511L0.722667 58.2693C0.251016 59.058 0.00132042 59.9594 3.35128e-07 60.8783C-0.000332998 61.7947 0.248 62.695 0.72 63.4883C1.19734 64.2871 1.87655 64.946 2.68933 65.399C3.50733 65.8573 4.43533 66.0983 5.38 66.0983H24.0477C31.4443 66.0983 36.899 62.947 40.652 56.7987L49.7643 41.4913L54.645 33.3L69.293 57.9067H49.7643L44.8807 66.0983ZM23.7433 57.898L10.7157 57.895L30.2443 25.088L39.9883 41.4913L33.4643 52.4553C30.9717 56.4443 28.1403 57.898 23.7433 57.898Z" fill="white"/>
</g>
<defs>
<clipPath id="clip0_6_686">
<rect width="80" height="80" fill="white"/>
</clipPath>
</defs>
</svg>
