<svg width="80" height="80" viewBox="0 0 80 80" fill="none" xmlns="http://www.w3.org/2000/svg">
<g clip-path="url(#clip0_7_51)">
<path d="M51.8853 34.9602C53.1874 29.3656 58.1273 25.7922 58.1793 25.7552C58.376 25.6152 58.5247 25.4179 58.6051 25.1903C58.6855 24.9626 58.6935 24.7157 58.6282 24.4833C58.563 24.2509 58.4275 24.0443 58.2403 23.8918C58.0532 23.7393 57.8235 23.6483 57.5827 23.6313C55.7777 23.5152 53.967 23.7376 52.2438 24.2871C53.3759 21.0561 55.4504 18.2385 58.1995 16.198C58.3922 16.0546 58.5362 15.8554 58.612 15.6275C58.6878 15.3995 58.6917 15.1538 58.6232 14.9235C58.5547 14.6933 58.4171 14.4896 58.229 14.3402C58.0409 14.1907 57.8115 14.1027 57.5717 14.088C55.4897 13.9763 53.4076 14.3059 51.4619 15.0554C51.4844 14.4471 51.5399 13.8406 51.6281 13.2384C51.9822 10.8638 52.83 8.58975 54.117 6.56296C54.2425 6.36341 54.3049 6.13065 54.2961 5.89508C54.2872 5.65952 54.2075 5.43209 54.0674 5.24251C53.9273 5.05293 53.7333 4.91001 53.5107 4.83242C53.2881 4.75483 53.0473 4.74618 52.8197 4.80759C50.3456 5.47279 48.1027 6.80687 46.3371 8.66333C45.7386 9.29608 45.2014 9.98409 44.7327 10.7182C43.9871 7.24231 42.8316 3.86723 41.2904 0.66375C41.1947 0.464923 41.0449 0.297149 40.858 0.179728C40.6712 0.0623067 40.455 8.61462e-06 40.2344 0L40.2249 0C40.0027 0.00180163 39.7855 0.0667689 39.5988 0.187321C39.4121 0.307874 39.2635 0.47904 39.1704 0.680847C37.6802 3.91054 36.5173 7.28136 35.699 10.7428C35.2494 10.0043 34.7282 9.31186 34.1431 8.67538C32.3936 6.78219 30.1325 5.43723 27.6338 4.80362C27.407 4.74567 27.168 4.75698 26.9477 4.83611C26.7273 4.91524 26.5358 5.05855 26.3976 5.24757C26.2595 5.43658 26.1811 5.66264 26.1727 5.89661C26.1642 6.13057 26.226 6.3617 26.3501 6.56021C27.6315 8.59233 28.4796 10.8671 28.8413 13.2422C28.9391 13.8942 28.9992 14.5514 29.0214 15.2104C26.9389 14.3109 24.6703 13.9264 22.4077 14.0895C22.1707 14.1082 21.9451 14.1985 21.7607 14.3485C21.5762 14.4984 21.4418 14.7009 21.3751 14.9291C21.3085 15.1572 21.3127 15.4002 21.3874 15.6259C21.4621 15.8515 21.6036 16.0491 21.7932 16.1925C24.5429 18.2677 26.6434 21.0844 27.848 24.3119C26.0968 23.7407 24.2525 23.5097 22.4146 23.6314C22.174 23.6491 21.9448 23.7404 21.7581 23.8931C21.5714 24.0458 21.4364 24.2524 21.3715 24.4847C21.3065 24.7169 21.3148 24.9636 21.3952 25.1909C21.4756 25.4183 21.6242 25.6153 21.8207 25.7552C21.8727 25.7922 26.8126 29.3656 28.1147 34.9602C26.4432 36.0659 24.9336 37.3988 23.6295 38.9206C23.476 38.9942 23.3405 39.1007 23.2327 39.2325C23.1248 39.3643 23.0473 39.5182 23.0056 39.6833C21.3592 41.7895 20.1258 44.188 19.3704 46.7524C19.2784 46.9161 19.227 47.0995 19.2207 47.2872C18.7518 49.0563 18.5147 50.8789 18.5156 52.709V58.683C18.5147 60.513 18.7517 62.3354 19.2205 64.1043C19.2265 64.2921 19.2779 64.4757 19.3703 64.6394C20.9484 69.9571 24.5259 74.4563 29.3513 77.1921C29.5364 77.4054 29.7926 77.5443 30.0723 77.5831C33.1391 79.1753 36.5446 80.0044 40 80C51.8465 80 61.4844 70.4373 61.4844 58.683V52.709C61.4844 45.3124 57.6671 38.7845 51.8853 34.9602ZM55.7348 41.919C56.803 43.4432 57.6396 45.1173 58.2174 46.8867C57.48 47.9272 56.7251 48.957 55.9528 49.976C54.6877 48.8329 53.4516 47.6605 52.2448 46.4587C53.44 44.9678 54.6034 43.4545 55.7348 41.919ZM36.2619 52.7081C37.3206 51.6727 38.3567 50.6156 39.37 49.5369C39.6063 49.2852 39.8414 49.0321 40.0753 48.7776C41.0888 49.8411 42.1178 50.8873 43.1621 51.9162C43.3927 52.1433 43.6245 52.3695 43.8575 52.5946C43.4117 53.0753 42.9631 53.5525 42.5118 54.0265C41.6949 54.8821 40.8659 55.7275 40.0248 56.5625C39.5363 56.0806 39.0512 55.5959 38.5693 55.1083C37.7916 54.3187 37.0225 53.5186 36.2619 52.7081ZM38.3493 58.202C37.2125 59.2953 36.0567 60.3697 34.8819 61.4254C34.6002 61.1439 34.3158 60.8642 34.036 60.5815C33.0268 59.5621 32.0255 58.5301 31.032 57.4854C32.2343 56.4588 33.4124 55.4058 34.5665 54.3263C35.336 55.1448 36.1136 55.9536 36.8994 56.7529C37.3785 57.2395 37.8619 57.7225 38.3493 58.202ZM44.207 55.6448C44.6589 55.1714 45.1076 54.6941 45.5531 54.2128C46.8447 55.425 48.1605 56.6138 49.5006 57.7791C48.5941 58.7857 47.6721 59.7756 46.7348 60.7487C46.3819 61.1145 46.0264 61.478 45.6683 61.8392C44.3246 60.6485 43.0037 59.4342 41.7056 58.1963C42.5505 57.3554 43.3843 56.5049 44.207 55.6448ZM47.1332 52.4815C48.3665 51.1073 49.5742 49.708 50.7563 48.2836C51.979 49.4955 53.2319 50.6792 54.515 51.8346C53.3924 53.2565 52.238 54.6524 51.0519 56.0223C49.722 54.8663 48.4158 53.686 47.1332 52.4815ZM45.4376 50.8619C45.2269 50.657 45.0166 50.4518 44.8067 50.2463C43.7372 49.1932 42.6843 48.1208 41.6478 47.0292C42.9306 45.5704 44.1736 44.0746 45.3767 42.5418C46.4791 43.8083 47.6077 45.0476 48.7625 46.2596C48.8741 46.3763 48.9884 46.4909 49.1006 46.6071C47.9076 48.0507 46.6866 49.4689 45.4376 50.8619ZM45.28 38.807C43.9578 37.2017 42.6847 35.5593 41.4606 33.8799C41.4782 33.8517 41.4954 33.8232 41.5129 33.795C43.6586 33.9612 45.7608 34.4884 47.7311 35.3542C46.9388 36.5208 46.1218 37.6717 45.28 38.807ZM43.8261 40.7209C42.6075 42.2871 41.3452 43.8161 40.0391 45.3078C38.7687 43.9243 37.5262 42.5145 36.3117 41.0782C37.6499 39.4387 38.9123 37.7391 40.099 35.9794C41.2956 37.5926 42.538 39.173 43.8261 40.7209ZM34.7849 39.2392C33.7905 38.021 32.8174 36.7869 31.8657 35.537C33.9583 34.5588 36.2108 33.9678 38.5141 33.7926C38.5524 33.847 38.5921 33.9006 38.6305 33.9549C37.4354 35.7773 36.1536 37.5387 34.7849 39.2392ZM34.7787 42.8928C35.9814 44.307 37.2114 45.6966 38.4687 47.0616C38.201 47.3535 37.9319 47.6438 37.6613 47.9326C36.6863 48.9711 35.689 49.989 34.6697 50.9865C33.4338 49.6282 32.2233 48.2457 31.0379 46.839C31.9133 45.985 32.766 45.1088 33.596 44.2102C33.9957 43.7765 34.3899 43.3374 34.7787 42.8928ZM32.9746 52.6062C31.8157 53.6902 30.6317 54.7475 29.4227 55.7781C28.1389 54.402 26.8719 53.0096 25.6218 51.6008C26.8952 50.594 28.1313 49.5434 29.3302 48.4493C30.5195 49.8581 31.7343 51.2437 32.9746 52.6062ZM27.6179 57.28C26.6741 58.0477 25.7168 58.7988 24.7461 59.5335C23.5735 57.957 22.4507 56.3469 21.3774 54.7035C22.1817 54.161 22.9738 53.6018 23.7537 53.026C25.0238 54.4595 26.3119 55.8774 27.6179 57.28ZM29.2288 58.9913C30.2676 60.0832 31.3147 61.1629 32.3703 62.2304C32.6186 62.4812 32.8712 62.7293 33.121 62.9792C32.0292 63.9272 30.9232 64.8582 29.8028 65.7722C28.5501 64.3521 27.3382 62.8939 26.167 61.3974C27.2026 60.6142 28.2233 59.8121 29.2288 58.9913ZM34.7903 64.6338C36.0699 65.8876 37.3659 67.1282 38.6782 68.3556C37.5056 69.3644 36.3138 70.3503 35.1029 71.3134C33.8251 70.0796 32.5841 68.8121 31.3798 67.5109C32.5317 66.5702 33.6685 65.6111 34.7903 64.6338ZM36.5504 63.0762C37.729 62.0155 38.8889 60.9356 40.0303 59.8367C41.3292 61.0783 42.6521 62.2965 43.999 63.4912C42.8391 64.6177 41.6558 65.7211 40.4492 66.8014C39.1333 65.574 37.8337 64.3322 36.5504 63.0762ZM45.7686 65.0389C46.9902 66.0893 48.2287 67.119 49.4842 68.1281C49.2467 68.3814 49.0074 68.6331 48.7663 68.8831C47.8325 69.8502 46.8692 70.7906 45.8765 71.7042C44.633 70.6171 43.4003 69.5157 42.1785 68.4001C43.3988 67.3039 44.5955 66.1835 45.7686 65.0389ZM47.4386 63.3829C47.7683 63.049 48.0959 62.7134 48.4216 62.3759C49.3918 61.3701 50.3455 60.3456 51.2829 59.3023C52.3777 60.2224 53.4858 61.1256 54.6072 62.0119C53.4822 63.517 52.3002 64.976 51.0614 66.3886C49.8381 65.4066 48.6305 64.4047 47.4386 63.3829ZM52.834 57.5444C54.011 56.1845 55.1584 54.7985 56.2761 53.3866C57.1397 54.131 58.014 54.8604 58.899 55.5749C57.9827 57.1233 57.0099 58.6349 55.9807 60.1097C54.9197 59.2708 53.8708 58.4157 52.834 57.5444ZM54.2196 40.0224C53.0457 41.6298 51.8354 43.2142 50.5887 44.7755C50.5449 44.7299 50.5 44.6851 50.4562 44.6394C49.2162 43.3432 48.0083 42.0115 46.8324 40.6444C47.8663 39.2649 48.8651 37.8616 49.8289 36.4345C51.4616 37.4071 52.9412 38.6162 54.2196 40.0224ZM54.221 26.1874C52.62 27.8917 50.7055 30.4685 49.7802 33.7317C48.6814 33.1719 47.5364 32.708 46.3579 32.345C47.089 30.7705 48.1828 29.3916 49.5495 28.3213C50.9163 27.2511 52.5172 26.5198 54.221 26.1874ZM48.0379 10.2759C48.7922 9.4797 49.6571 8.79623 50.6061 8.24646C49.5437 10.7718 49.0351 13.4955 49.1145 16.234C48.7521 16.4621 48.3916 16.7142 48.0328 16.9902C47.1761 17.6537 46.4009 18.4162 45.7232 19.2618C45.6938 17.7541 45.5885 16.2489 45.4078 14.7518C45.936 13.0807 46.8351 11.5506 48.0379 10.2759ZM32.4194 10.2638C33.5933 11.5438 34.4478 13.0834 34.9131 14.7567C34.6668 16.3348 34.4924 17.9238 34.3898 19.5236C33.7025 18.5809 32.8933 17.7333 31.9835 17.003C31.7772 16.8375 31.5694 16.6825 31.361 16.5345C31.4701 13.6795 30.9503 10.8353 29.8384 8.20344C30.7991 8.75408 31.6696 9.44897 32.4194 10.2638ZM27.4339 18.6296C26.925 17.9286 26.3719 17.2607 25.778 16.6299C27.5114 16.9723 29.1368 17.7273 30.5165 18.831C32.3917 20.3555 33.7295 22.4403 34.3341 24.7801C34.3364 24.7891 34.3398 24.7975 34.3423 24.8063C34.3496 24.8321 34.3572 24.8578 34.3662 24.8828C34.3709 24.8959 34.3763 24.9086 34.3813 24.9214C34.3903 24.9437 34.3993 24.9658 34.4096 24.9873C34.4167 25.0024 34.4244 25.017 34.4321 25.0317C34.4416 25.0498 34.4513 25.0679 34.4617 25.0854C34.4714 25.1017 34.4817 25.1174 34.492 25.1331C34.5021 25.1483 34.5123 25.1633 34.523 25.178C34.5347 25.1941 34.547 25.2096 34.5595 25.225C34.5705 25.2386 34.5816 25.2519 34.5932 25.2649C34.6062 25.2796 34.6197 25.2938 34.6334 25.3078C34.6462 25.3207 34.6591 25.3334 34.6724 25.3457C34.6858 25.3582 34.6994 25.3702 34.7134 25.3819C34.7287 25.3948 34.7442 25.4073 34.7601 25.4194C34.773 25.4292 34.7861 25.4387 34.7994 25.4479C34.8174 25.4605 34.8358 25.4726 34.8546 25.4841C34.8669 25.4917 34.8792 25.4991 34.8918 25.5062C34.9121 25.5178 34.9329 25.5287 34.954 25.539C34.9662 25.545 34.9783 25.5508 34.9907 25.5563C35.0124 25.566 35.0344 25.575 35.0568 25.5834C35.0699 25.5883 35.0829 25.5931 35.0962 25.5975C35.1178 25.6048 35.1397 25.6113 35.1619 25.6174C35.1771 25.6215 35.1923 25.6254 35.2077 25.6289C35.228 25.6335 35.2484 25.6376 35.2689 25.6411C35.2872 25.6443 35.3056 25.647 35.3241 25.6493C35.3423 25.6516 35.3606 25.6534 35.3792 25.6548C35.4 25.6564 35.421 25.6574 35.4421 25.6579C35.4508 25.6581 35.4594 25.6592 35.4681 25.6592C35.4797 25.6592 35.4915 25.659 35.5031 25.6587C35.5068 25.6586 35.5104 25.658 35.5141 25.6578C35.5344 25.657 35.5547 25.6548 35.575 25.653C35.5951 25.6511 35.6152 25.6497 35.635 25.6469C35.6494 25.6448 35.6639 25.6416 35.6784 25.639C35.7037 25.6344 35.7291 25.6297 35.7539 25.6235C35.7564 25.6229 35.759 25.6226 35.7616 25.6219C35.7709 25.6195 35.7796 25.6161 35.7888 25.6134C35.815 25.606 35.8412 25.5983 35.8667 25.5891C35.8799 25.5843 35.8926 25.5788 35.9055 25.5736C35.9279 25.5645 35.9502 25.5555 35.9719 25.5452C35.9877 25.5377 36.0028 25.5293 36.0181 25.5212C36.0358 25.5118 36.0536 25.5025 36.0708 25.4922C36.0882 25.4817 36.1049 25.4704 36.1217 25.4591C36.1359 25.4496 36.1502 25.4402 36.1639 25.43C36.1812 25.4172 36.1978 25.4037 36.2143 25.39C36.2268 25.3797 36.2393 25.3695 36.2514 25.3587C36.2672 25.3445 36.2821 25.3296 36.297 25.3147C36.3089 25.3028 36.3208 25.2911 36.3321 25.2787C36.3454 25.2641 36.3581 25.2489 36.3707 25.2336C36.3824 25.2195 36.3941 25.2053 36.4052 25.1906C36.4159 25.1764 36.4258 25.1617 36.4358 25.1471C36.4474 25.1302 36.4588 25.1133 36.4694 25.0958C36.4778 25.0821 36.4854 25.0681 36.4931 25.0542C36.5037 25.0349 36.5143 25.0157 36.5239 24.9958C36.5304 24.9821 36.5363 24.9682 36.5424 24.9543C36.5513 24.9337 36.5602 24.9131 36.568 24.8919C36.5735 24.877 36.5782 24.8618 36.5831 24.8466C36.5897 24.8262 36.5963 24.8057 36.6018 24.7848C36.6064 24.7671 36.61 24.7493 36.6138 24.7314C36.6178 24.7126 36.622 24.6939 36.6251 24.6748C36.6286 24.6533 36.6308 24.6316 36.6331 24.6099C36.6347 24.5937 36.6368 24.5777 36.6379 24.5613C36.6394 24.5371 36.6394 24.5127 36.6394 24.4882C36.6394 24.4764 36.6405 24.4648 36.6401 24.453C36.4338 17.492 37.6629 10.5631 40.2507 4.09775C41.3914 6.90144 42.2299 9.81878 42.7519 12.8003C43.4025 16.5189 43.5559 20.3075 43.2082 24.0665C43.2072 24.0767 43.2076 24.0866 43.2069 24.0968C43.2051 24.1236 43.2035 24.1505 43.2035 24.1771C43.2035 24.1916 43.2046 24.2059 43.2051 24.2203C43.2061 24.244 43.207 24.2676 43.2093 24.2911C43.2111 24.309 43.214 24.3266 43.2166 24.3443C43.2195 24.3637 43.2221 24.3832 43.2259 24.4024C43.2299 24.4227 43.2351 24.4426 43.2402 24.4625C43.2443 24.4788 43.2482 24.4951 43.2531 24.5112C43.2594 24.5322 43.2668 24.5528 43.2743 24.5734C43.2797 24.5881 43.2847 24.6029 43.2906 24.6174C43.2989 24.6375 43.3081 24.6571 43.3175 24.6766C43.3244 24.6913 43.3312 24.706 43.3388 24.7204C43.3482 24.7383 43.3586 24.7557 43.369 24.7731C43.3781 24.7884 43.3871 24.8038 43.3968 24.8187C43.407 24.834 43.4178 24.8488 43.4287 24.8637C43.4403 24.8797 43.4519 24.8956 43.4644 24.911C43.4748 24.924 43.4859 24.9363 43.4969 24.9488C43.511 24.9648 43.525 24.9807 43.54 24.996C43.5512 25.0074 43.563 25.0182 43.5748 25.0291C43.5905 25.0438 43.6062 25.0585 43.6227 25.0724C43.6359 25.0835 43.6497 25.0937 43.6633 25.1042C43.6794 25.1165 43.6952 25.1288 43.712 25.1403C43.7284 25.1516 43.7456 25.1619 43.7627 25.1724C43.7776 25.1816 43.7923 25.191 43.8077 25.1995C43.8287 25.2111 43.8503 25.2214 43.8721 25.2318C43.8848 25.2378 43.8971 25.2442 43.9101 25.2498C43.9349 25.2605 43.9604 25.2697 43.9861 25.2787C43.9954 25.282 44.0043 25.2862 44.0138 25.2893C44.0162 25.2901 44.0186 25.2905 44.0209 25.2912C44.0437 25.2984 44.067 25.3041 44.0903 25.3099C44.1067 25.314 44.1229 25.3187 44.1393 25.3221C44.1549 25.3253 44.1711 25.3273 44.187 25.3299C44.2114 25.3339 44.2358 25.3379 44.2601 25.3404C44.2625 25.3406 44.2646 25.3411 44.267 25.3413C44.2772 25.3423 44.2872 25.342 44.2974 25.3427C44.3237 25.3444 44.35 25.3461 44.3761 25.3461C44.3942 25.3461 44.4118 25.3449 44.4296 25.3441C44.4492 25.3432 44.4689 25.3426 44.4884 25.3407C44.512 25.3384 44.5351 25.3348 44.5583 25.3312C44.5716 25.329 44.585 25.3273 44.5982 25.3248C44.6252 25.3196 44.6516 25.3129 44.6779 25.3059C44.6874 25.3034 44.6969 25.3012 44.7064 25.2984C44.734 25.2902 44.7611 25.2807 44.788 25.2705C44.7961 25.2675 44.8044 25.2647 44.8124 25.2614C44.8387 25.2508 44.8642 25.239 44.8896 25.2266C44.8983 25.2223 44.9072 25.2183 44.9159 25.2138C44.9391 25.2016 44.9616 25.1884 44.9839 25.1748C44.9944 25.1685 45.0048 25.1623 45.0151 25.1557C45.0346 25.143 45.0533 25.1293 45.072 25.1154C45.0843 25.1063 45.0967 25.0974 45.1086 25.0879C45.1246 25.075 45.1398 25.0614 45.1551 25.0478C45.1684 25.0359 45.1817 25.0242 45.1946 25.0116C45.2079 24.9986 45.2205 24.9848 45.2332 24.9711C45.2464 24.957 45.2596 24.9429 45.2721 24.928C45.284 24.9139 45.2951 24.899 45.3063 24.8843C45.3179 24.869 45.3297 24.854 45.3406 24.838C45.3521 24.8213 45.3626 24.8038 45.3733 24.7864C45.3823 24.7717 45.3916 24.7571 45.4 24.7419C45.4115 24.7213 45.4216 24.6999 45.4318 24.6785C45.438 24.6653 45.4447 24.6525 45.4505 24.639C45.4609 24.6148 45.4699 24.59 45.4787 24.565C45.4822 24.5551 45.4866 24.5458 45.4898 24.5357C46.2218 22.2859 47.6062 20.3047 49.4672 18.8439C50.8473 17.7815 52.4493 17.0441 54.1539 16.6864C51.8326 19.1805 50.2058 22.2395 49.4355 25.5584C48.9422 25.8553 48.4691 26.1844 48.0191 26.5436C46.2851 27.9337 44.9203 29.7297 44.0456 31.7728C41.3654 31.2638 38.6133 31.2652 35.9337 31.7767C35.0685 29.7337 33.7113 27.9365 31.983 26.5453C31.5799 26.2226 31.158 25.9242 30.7195 25.6516C30.0811 23.1232 28.966 20.7399 27.4339 18.6296ZM25.7727 26.1807C27.4775 26.5112 29.0789 27.2433 30.4443 28.3163C31.8097 29.3892 32.8997 30.7721 33.624 32.3504C32.5296 32.689 31.4642 33.1149 30.438 33.6238C30.3245 33.4692 30.21 33.3153 30.0973 33.1602C30.0707 33.124 30.0421 33.0893 30.0115 33.0563C29.0266 30.1079 27.2629 27.7658 25.7727 26.1807ZM29.7844 36.6711C30.9106 38.1596 32.0677 39.6264 33.2555 41.0715C32.802 41.5955 32.3411 42.1123 31.8727 42.6218C31.115 43.4439 30.3367 44.2463 29.5376 45.0289C28.2221 43.4155 26.9433 41.7762 25.701 40.1111C26.8957 38.7803 28.27 37.6224 29.7844 36.6711ZM24.1985 42.0144C25.3764 43.5797 26.5871 45.1231 27.8308 46.6447C26.618 47.7537 25.3653 48.8178 24.0726 49.8369C23.2791 48.9238 22.4944 48.0057 21.7185 47.0826C22.2861 45.2783 23.1221 43.5697 24.1985 42.0144ZM21.064 49.9385C21.4409 50.3796 21.8203 50.8191 22.2023 51.2571C21.7605 51.5808 21.315 51.8997 20.8659 52.2138C20.8859 51.4521 20.9521 50.6922 21.064 49.9385ZM20.8594 58.683V58.1335C21.5098 59.0749 22.1767 60.0053 22.86 60.9247C22.3019 61.3271 21.7399 61.7241 21.1741 62.1158C20.9645 60.9835 20.8592 59.8345 20.8594 58.683ZM24.5402 69.8557C23.3463 68.239 22.4184 66.4419 21.7915 64.5324C22.6296 63.9635 23.4593 63.3828 24.2805 62.7901C25.4678 64.3104 26.6982 65.7934 27.9716 67.2391C26.8408 68.1297 25.697 69.0019 24.5402 69.8557ZM26.0471 71.6565C27.2267 70.7837 28.3933 69.8919 29.5469 68.9812C30.7406 70.2735 31.9694 71.5362 33.2333 72.7692C32.2422 73.5257 31.2399 74.2659 30.2262 74.9899C28.6849 74.0786 27.2782 72.9567 26.0471 71.6565ZM32.5876 76.1754C33.3842 75.5937 34.1739 75.0022 34.9567 74.4007C36.1423 75.4993 37.3541 76.5674 38.592 77.6048C36.5264 77.4564 34.4985 76.9736 32.5876 76.1754ZM36.8275 72.9358C38.0397 71.9664 39.2331 70.9738 40.4076 69.9581C41.6322 71.0794 42.869 72.1861 44.118 73.2783C42.9564 74.2837 41.7632 75.2511 40.5385 76.1804C39.2749 75.1327 38.0379 74.0512 36.8275 72.9358ZM42.72 77.4638C43.8072 76.6159 44.8705 75.7383 45.9099 74.831C46.4267 75.2745 46.945 75.7153 47.4648 76.1535C45.9463 76.793 44.3514 77.2334 42.72 77.4638ZM49.7445 75.0071C49.048 74.4256 48.3544 73.8392 47.6635 73.248C48.6179 72.3592 49.5475 71.4468 50.4524 70.5109C50.7468 70.2059 51.0384 69.8982 51.3271 69.5877C52.2085 70.2737 53.0972 70.949 53.9932 71.6136C52.7447 72.9402 51.3142 74.0827 49.7445 75.0071ZM55.4945 69.8086C54.6238 69.1636 53.7595 68.5086 52.9017 67.8436C54.1425 66.4252 55.3285 64.9601 56.4596 63.4484C57.0196 63.8755 57.5826 64.2979 58.1484 64.7157C57.5287 66.5387 56.6337 68.2562 55.4945 69.8086ZM58.7949 62.2757C58.4737 62.035 58.1535 61.7928 57.8342 61.5492C58.2709 60.9255 58.6981 60.2951 59.1157 59.6578C59.0702 60.5369 58.9631 61.4117 58.7949 62.2757ZM59.1406 52.7423C58.662 52.3434 58.1866 51.94 57.7147 51.5321C58.1249 50.9926 58.5304 50.45 58.9311 49.9041C59.0706 50.8326 59.1406 51.7702 59.1406 52.709V52.7423Z" fill="white"/>
</g>
<defs>
<clipPath id="clip0_7_51">
<rect width="80" height="80" fill="white"/>
</clipPath>
</defs>
</svg>
