<svg width="80" height="80" viewBox="0 0 80 80" fill="none" xmlns="http://www.w3.org/2000/svg">
<g clip-path="url(#clip0_6_761)">
<path d="M34.7664 10.7433C31.9998 15.3633 31.7464 15.74 30.7331 16.7766C28.6231 18.9566 26.0098 20.12 22.6831 20.3566C22.0598 20.4 18.4664 20.4666 13.6764 20.5233C11.5498 20.55 11.1764 20.56 11.1231 20.6166C11.0898 20.6533 10.5064 21.53 9.8231 22.57L8.58976 24.4533L8.93643 24.47C9.1231 24.48 10.4131 24.46 11.7964 24.4333C13.2796 24.4016 14.763 24.3805 16.2464 24.37C18.1531 24.37 18.1798 24.37 18.4698 24.47C19.2898 24.75 19.7798 25.49 19.6531 26.2466C19.6034 26.5862 19.4509 26.9024 19.2161 27.1527C18.9813 27.403 18.6755 27.5754 18.3398 27.6466C17.9931 27.7366 17.0898 27.76 8.93643 27.8966C7.51643 27.92 6.33643 27.9466 6.3231 27.9633C5.46469 29.2168 4.63448 30.4893 3.8331 31.78C3.84643 31.7933 5.1831 31.78 6.80976 31.7566C17.2431 31.5866 26.2898 31.45 28.8098 31.4233C31.2331 31.3966 32.1264 31.3566 32.7764 31.2433C34.5764 30.9366 35.9564 30.2533 37.1431 29.0766C37.9864 28.2366 38.7264 27.17 39.9831 24.9766C40.3998 24.2533 40.8564 23.4766 41.0064 23.2433L41.4664 22.5C41.5764 22.32 41.6998 22.1333 41.7398 22.0833C41.8498 21.9566 42.0731 21.5966 42.2064 21.3166C42.3198 21.0833 43.9864 18.2966 44.7064 17.1266C45.2064 16.32 45.4798 16.0866 46.1064 15.9433C46.9731 15.7433 48.0398 16.2833 48.2831 17.05C48.4831 17.6766 48.3931 18.0666 47.8298 19.0166C43.7964 25.8 42.3298 28.23 41.5398 29.4266C39.2998 32.82 35.9264 34.64 31.5698 34.8033C31.2198 34.8133 28.9931 34.8533 26.6164 34.89L19.7764 34.9933L14.4731 35.0833C11.0265 35.1412 7.57983 35.1946 4.1331 35.2433C2.45976 35.26 1.59643 35.2866 1.5331 35.3166C1.36873 35.5016 1.23382 35.7107 1.1331 35.9366C0.6881 36.7662 0.367984 37.6569 0.183098 38.58C0.163844 38.7327 0.11994 38.8813 0.0530977 39.02C-0.0269023 39.0433 -0.013569 41.6433 0.0630977 41.72C0.133159 41.8612 0.178268 42.0134 0.196431 42.17C0.386431 43.12 0.853098 44.2233 1.5131 45.2766L1.81976 45.7666L6.20643 45.7933C8.61976 45.8066 14.8631 45.8433 20.0864 45.8633C25.7264 45.89 29.7998 45.9266 30.1198 45.9533C31.1798 46.04 31.7464 46.1266 32.6198 46.3466C34.7215 46.8511 36.6333 47.9505 38.1264 49.5133C38.9764 50.3933 39.3931 50.98 41.2631 53.9766C42.4831 55.9233 46.1131 61.8533 46.2431 62.11C46.7164 63.0433 46.4098 64.0133 45.4998 64.4433C45.2336 64.5804 44.9396 64.6546 44.6403 64.6604C44.341 64.6662 44.0443 64.6033 43.7731 64.4766C43.2898 64.2366 43.2664 64.21 40.7731 60.1766C40.2094 59.2601 39.6405 58.3467 39.0664 57.4366C38.6763 56.8137 38.294 56.1859 37.9198 55.5533C36.6864 53.4866 35.9598 52.4533 35.1864 51.68C34.1179 50.6289 32.772 49.904 31.3064 49.59C30.3531 49.3766 30.1798 49.37 23.5464 49.3333C19.9743 49.308 16.402 49.2925 12.8298 49.2866C10.3698 49.2866 7.3831 49.27 6.19643 49.26C4.4731 49.2333 4.03976 49.2366 4.03976 49.2833C4.03976 49.31 4.55976 50.1833 5.19976 51.21L6.35976 53.0766L7.46643 53.0866C15.4898 53.15 15.8998 53.1533 16.1964 53.21C16.8431 53.3433 17.2264 53.62 17.4831 54.1433C17.6124 54.3551 17.6708 54.6027 17.6498 54.85C17.6604 55.0635 17.6231 55.2767 17.5406 55.474C17.4581 55.6712 17.3325 55.8475 17.1731 55.99C16.9396 56.2171 16.6514 56.3801 16.3364 56.4633C16.0864 56.5366 15.8631 56.5433 12.2898 56.53C9.2231 56.52 8.50976 56.53 8.53643 56.5733C8.66976 56.8133 10.8531 60.3233 10.8831 60.3566C10.9098 60.38 12.8564 60.41 15.9098 60.4266C20.0098 60.4533 20.9998 60.47 21.4864 60.5266C25.1698 60.96 27.9598 62.5366 30.0631 65.3833C30.4531 65.91 30.8898 66.6033 33.1031 70.1833L34.6564 72.6966H37.0364C38.3431 72.6966 39.4164 72.6866 39.4164 72.6733C39.4164 72.66 38.5598 71.2733 37.5164 69.5933C35.8532 66.9236 34.1976 64.2492 32.5498 61.57C32.255 61.0861 31.9505 60.6082 31.6364 60.1366C30.502 58.5005 28.7972 57.3474 26.8564 56.9033C26.0164 56.7 25.4298 56.6466 23.9431 56.6266C22.4564 56.6066 22.2031 56.5733 21.7898 56.36C21.4632 56.1904 21.195 55.9268 21.0198 55.6033C20.9098 55.3866 20.8964 55.31 20.8964 54.9C20.8964 54.4766 20.9064 54.4166 21.0198 54.2066C21.1433 53.9794 21.313 53.7804 21.5179 53.6226C21.7228 53.4647 21.9585 53.3514 22.2098 53.29C22.4431 53.22 22.6431 53.21 23.9431 53.21C25.0931 53.21 25.5431 53.2266 26.0264 53.29C29.1498 53.69 31.4931 54.7733 33.4398 56.7133C34.3598 57.6333 34.7631 58.19 35.9664 60.1866C36.3898 60.8833 37.3398 62.4266 38.0864 63.6133L41.5864 69.2333L43.7331 72.7H46.7498C49.1564 72.7 49.7664 72.6833 49.7498 72.64C49.4873 72.2041 49.2206 71.7707 48.9498 71.34C47.4164 68.8833 47.3064 68.6866 47.2398 68.1966C47.1498 67.51 47.6331 66.8 48.3898 66.53C48.7296 66.3959 49.1018 66.3668 49.4583 66.4464C49.8148 66.5261 50.1393 66.7107 50.3898 66.9766C50.6031 67.1866 51.7698 69.01 53.5098 71.86L54.0298 72.71L54.6231 72.68C56.1375 72.6217 57.6237 72.2529 58.9898 71.5966C59.2064 71.4966 59.4064 71.41 59.4364 71.4C60.84 70.6966 62.0679 69.6874 63.0298 68.4466C65.705 64.4018 68.3639 60.3462 71.0064 56.28C79.2864 43.5933 79.1164 43.8666 79.5198 42.66C80.2723 40.4556 80.1348 38.0445 79.1364 35.94C78.9764 35.5966 76.3431 31.3166 71.5931 23.6633C69.1057 19.6345 66.6024 15.6156 64.0831 11.6066C63.1311 10.3032 61.8715 9.25538 60.4164 8.55664C59.4728 8.05649 58.4592 7.7014 57.4098 7.50331C56.8098 7.39331 56.7664 7.38331 56.7998 7.32998C56.8131 7.30331 56.4464 7.29664 55.8264 7.29664L54.8331 7.31331L53.9498 8.77998C51.9898 12.0466 51.8064 12.34 51.5298 12.6166C51.2548 12.9088 50.8941 13.1061 50.4998 13.18C49.7598 13.3133 48.8464 12.87 48.5331 12.2233C48.4331 12.0333 48.4231 11.9433 48.4231 11.5433C48.4231 10.92 48.3931 10.9866 50.1031 8.17664C50.2785 7.90158 50.442 7.6191 50.5931 7.32998C50.5931 7.30664 49.6264 7.28998 48.2264 7.28998H45.8598L45.7964 7.38998C43.7777 10.7625 41.7455 14.127 39.6998 17.4833C38.9998 18.64 38.1398 20.07 37.7998 20.66C37.0298 21.98 36.7131 22.46 36.1664 23.14C35.6024 23.8211 34.9739 24.4463 34.2898 25.0066C32.5231 26.3766 30.3898 27.2066 27.8898 27.4966C26.6864 27.6366 24.9431 27.6566 24.3164 27.54C24.0501 27.4859 23.7983 27.376 23.5777 27.2174C23.357 27.0588 23.1725 26.8552 23.0364 26.62C22.9264 26.4033 22.9131 26.3433 22.9131 25.92C22.9131 25.52 22.9264 25.43 23.0264 25.22C23.1442 24.9901 23.3098 24.7881 23.5122 24.6277C23.7146 24.4673 23.9491 24.3521 24.1998 24.29C24.4431 24.2233 24.7331 24.2 25.9164 24.1666C26.7964 24.1433 27.5331 24.1 27.8431 24.0566C28.5234 23.9558 29.1922 23.7883 29.8398 23.5566C30.3864 23.34 31.1598 22.9233 31.6131 22.5966C32.2758 22.0916 32.8697 21.5022 33.3798 20.8433C33.5664 20.5966 34.4631 19.1466 35.3764 17.6233C36.2864 16.0966 38.0431 13.1766 39.2798 11.1333C40.5131 9.08664 41.5364 7.38664 41.5464 7.34998C41.5664 7.29664 41.2198 7.28998 39.2031 7.28998H36.8431L34.7698 10.74L34.7664 10.7433ZM58.2198 12.53C58.2198 12.5633 58.2364 12.5966 58.2598 12.6033C58.2764 12.6066 58.5964 13.1 58.9664 13.6933C60.6531 16.3933 61.2731 17.4166 61.3664 17.6733C61.4864 18.0066 61.4998 18.4433 61.3931 18.75C61.2133 19.1101 60.9362 19.4127 60.5931 19.6233C60.2469 19.8231 59.8443 19.9027 59.4481 19.8496C59.052 19.7965 58.6845 19.6138 58.4031 19.33C58.1364 19.08 57.8531 18.66 56.8698 17.0466C56.5031 16.44 56.1564 15.8933 56.1064 15.8266C56.0531 15.7466 56.0331 15.6733 56.0531 15.6066C56.0864 15.5033 57.9198 12.6733 58.0564 12.5233C58.1464 12.4233 58.2231 12.4233 58.2231 12.5333L58.2198 12.53ZM53.5998 19.6533C53.5864 19.6766 53.5998 19.6966 53.6164 19.7066C53.6564 19.72 56.9598 25.0166 58.8631 28.1166C60.4631 30.71 61.1831 31.8733 61.7964 32.8266C62.7998 34.39 63.1731 35.1166 63.5498 36.2466C63.9331 37.3866 64.0831 38.4233 64.0398 39.5966C64.0164 40.3966 63.9398 40.8966 63.7464 41.6766C63.4064 43.01 62.6631 44.5633 61.7131 45.9366C61.4131 46.3633 60.8031 47.01 60.6998 47.01C60.6664 47.01 60.6331 47.0266 60.6331 47.05C60.6331 47.07 60.5031 47.1333 60.3464 47.1833C59.9197 47.3072 59.4647 47.2932 59.0464 47.1433C58.6285 46.9401 58.2854 46.6099 58.0664 46.2C57.9598 45.9766 57.9531 45.91 57.9698 45.5666C57.9931 45.1 58.0898 44.8933 58.7398 43.89C59.5731 42.6066 59.9131 41.9033 60.1531 40.94C60.5664 39.3066 60.3631 37.6866 59.5398 36.0733C59.3764 35.7566 58.3398 34.0533 57.2331 32.28C55.9376 30.2097 54.6487 28.1352 53.3664 26.0566C52.3398 24.4033 51.4698 22.9966 51.4198 22.93C51.3731 22.86 51.3398 22.78 51.3531 22.75C51.3864 22.66 53.3198 19.7266 53.4198 19.6233C53.4864 19.55 53.5198 19.5366 53.5631 19.57C53.5964 19.5966 53.6131 19.6366 53.5964 19.6566L53.5998 19.6533ZM64.0731 22.6833C64.4143 22.8081 64.7143 23.025 64.9398 23.31C65.2564 23.7 69.6898 30.7433 71.3098 33.4433C72.2431 34.9833 72.6764 35.9433 72.9764 37.12C73.1831 37.93 73.2631 38.5566 73.2631 39.4166C73.2631 40.56 73.1398 41.3166 72.7798 42.4066C72.3598 43.68 72.0564 44.25 70.5864 46.5266C70.0531 47.36 67.2598 51.6866 64.3931 56.15L58.1864 65.7833C57.6431 66.6266 57.1764 67.35 57.1531 67.4C57.1264 67.4433 57.0898 67.4766 57.0631 67.4666C56.3367 66.369 55.642 65.2508 54.9798 64.1133C54.9798 64.0833 55.0198 64.0033 55.0631 63.94C59.3336 57.3082 63.6069 50.6782 67.8831 44.05C68.5664 42.99 68.7698 42.62 69.0264 41.9833C69.3978 41.0983 69.5685 40.1421 69.5264 39.1833C69.4798 38.13 69.2698 37.3833 68.6798 36.2033C68.2464 35.3166 67.8298 34.6166 66.8064 33.0366C66.3898 32.3933 65.9098 31.6366 65.7431 31.3566C65.2084 30.4767 64.6684 29.6 64.1231 28.7266C61.5764 24.64 61.6064 24.6933 61.5998 24.2266C61.5998 23.8333 61.7331 23.52 62.0264 23.2033C62.3175 22.903 62.6871 22.6905 63.0931 22.59C63.4223 22.5423 63.7581 22.5732 64.0731 22.68V22.6833ZM48.9398 26.7333L49.6064 27.8166C53.2431 33.64 53.3964 33.8966 53.7631 34.6266C55.2998 37.69 55.3131 40.7333 53.8098 43.7433C53.4898 44.3766 53.3598 44.5933 51.2531 47.8633C48.4264 52.2633 48.0964 52.7633 48.0064 52.8633C47.9331 52.9366 47.9231 52.9433 47.9231 52.8733C47.9231 52.8333 46.1464 49.9366 43.9764 46.44C42.6485 44.3166 41.3329 42.1854 40.0298 40.0466C40.0298 40.0233 41.8764 37.1866 44.1398 33.74C45.6041 31.5128 47.0641 29.2828 48.5198 27.05C48.6101 26.8973 48.7175 26.7552 48.8398 26.6266C48.8631 26.6266 48.9064 26.67 48.9398 26.7333ZM57.0631 49.5433C57.4475 49.7378 57.768 50.0386 57.9864 50.41C58.0606 50.571 58.1068 50.7435 58.1231 50.92C58.1564 51.3633 58.0431 51.62 57.2431 52.88C55.8573 55.0531 54.4684 57.2242 53.0764 59.3933L52.6598 60.04C52.5864 60.1733 52.5731 60.18 52.4998 60.1266C51.8069 59.0619 51.1345 57.9839 50.4831 56.8933C50.4431 56.7933 54.6064 50.31 54.9064 50C55.092 49.7927 55.3222 49.6303 55.5798 49.5252C55.8374 49.4201 56.1155 49.375 56.3931 49.3933C56.6252 49.3891 56.8549 49.4405 57.0631 49.5433Z" fill="white"/>
</g>
<defs>
<clipPath id="clip0_6_761">
<rect width="80" height="80" fill="white"/>
</clipPath>
</defs>
</svg>
