<svg width="80" height="80" viewBox="0 0 80 80" fill="none" xmlns="http://www.w3.org/2000/svg">
<g clip-path="url(#clip0_6_753)">
<path d="M46.3666 8.34998C43.4566 3.52331 36.4599 3.52331 33.5533 8.34998L23.0133 26.4C31.0655 30.4197 37.9261 36.4758 42.914 43.967C47.9019 51.4582 50.8434 60.1238 51.4466 69.1033H44.0433C43.4411 61.4067 40.8396 54.0008 36.4964 47.6183C32.1531 41.2358 26.2185 36.098 19.2799 32.7133L9.5266 49.58C13.4272 51.3295 16.8254 54.0317 19.4087 57.438C21.9919 60.8443 23.6773 64.8453 24.3099 69.0733H7.31326C7.11133 69.0594 6.91605 68.9953 6.74513 68.8869C6.5742 68.7785 6.43302 68.6292 6.33439 68.4524C6.23575 68.2757 6.18277 68.0771 6.18025 67.8747C6.17772 67.6723 6.22573 67.4725 6.31993 67.2933L11.0299 59.2866C9.43508 57.9556 7.61232 56.9246 5.64993 56.2433L0.986596 64.25C0.501253 65.0824 0.186151 66.003 0.0595916 66.9582C-0.0669674 67.9134 -0.00245985 68.8843 0.249367 69.8143C0.501194 70.7444 0.935321 71.6152 1.52653 72.3761C2.11774 73.137 2.85424 73.7728 3.69326 74.2466C4.79878 74.869 6.04463 75.1994 7.31326 75.2066H30.5899C31.022 69.8726 30.0692 64.5174 27.8237 59.6597C25.5783 54.8021 22.1163 50.6067 17.7733 47.48L21.4733 41.0733C26.9539 44.837 31.3584 49.9649 34.252 55.9508C37.1456 61.9367 38.4282 68.5737 37.9733 75.2066H57.6899C58.1486 65.1594 55.9626 55.1677 51.3504 46.2299C46.7381 37.292 39.8612 29.721 31.4066 24.2733L38.8866 11.4566C39.0531 11.1777 39.323 10.9758 39.6375 10.8946C39.9521 10.8135 40.2859 10.8597 40.5666 11.0233C41.4166 11.49 73.0666 66.7166 73.6599 67.3566C73.7646 67.5439 73.8179 67.7555 73.8144 67.97C73.811 68.1844 73.7509 68.3942 73.6402 68.578C73.5295 68.7617 73.3722 68.913 73.1843 69.0163C72.9963 69.1197 72.7844 69.1716 72.5699 69.1666H64.9466C65.0433 71.2066 65.0433 73.2433 64.9466 75.27H72.6033C73.8978 75.2771 75.1713 74.9424 76.2949 74.2996C77.4186 73.6568 78.3527 72.7287 79.0028 71.6092C79.6528 70.4897 79.9958 69.2184 79.9971 67.9239C79.9983 66.6293 79.6578 65.3574 79.0099 64.2366L46.3666 8.34998Z" fill="white"/>
</g>
<defs>
<clipPath id="clip0_6_753">
<rect width="80" height="80" fill="white"/>
</clipPath>
</defs>
</svg>
