<svg width="80" height="80" viewBox="0 0 80 80" fill="none" xmlns="http://www.w3.org/2000/svg">
<g clip-path="url(#clip0_6_710)">
<path d="M3.75 0C1.67333 0 0 1.67333 0 3.75V76.2501C0 78.3267 1.67333 80 3.75 80H76.2501C78.3267 80 80 78.3267 80 76.2501V3.75C80 1.67333 78.3267 0 76.2501 0H3.75ZM61.6267 32.5C63.6667 32.5 65.4733 32.6235 67.0499 32.8701C68.5371 33.0928 69.9963 33.4728 71.4032 34.0035V42.1968C70.728 41.7296 70.0104 41.3267 69.26 40.9933C68.4861 40.6451 67.6872 40.3555 66.8701 40.1267C65.3219 39.6952 63.7237 39.4712 62.1168 39.46C61.1168 39.46 60.2067 39.5533 59.3867 39.7467C58.6557 39.9029 57.9547 40.1752 57.3101 40.5533C56.7435 40.9 56.3099 41.3165 56 41.8C55.6883 42.2872 55.5259 42.8549 55.5333 43.4333C55.5333 44.0867 55.7101 44.6765 56.0533 45.1965C56.4 45.7165 56.8933 46.2101 57.5301 46.6765C58.1667 47.1435 58.94 47.5968 59.8501 48.0435C60.76 48.4933 61.7901 48.9568 62.9365 49.4301C64.5035 50.0867 65.9099 50.7867 67.1568 51.5232C68.4032 52.2632 69.4733 53.1 70.3667 54.0333C71.26 54.9632 71.94 56.0267 72.4133 57.2232C72.8867 58.42 73.1267 59.8101 73.1267 61.4C73.1267 63.5901 72.7101 65.4333 71.8835 66.92C71.0757 68.3861 69.9165 69.6291 68.5099 70.5365C66.9939 71.4979 65.3136 72.1715 63.5533 72.5235C61.6667 72.9235 59.6765 73.1232 57.5867 73.1232C55.5296 73.1323 53.4763 72.9493 51.4533 72.5768C49.7032 72.2739 48.0056 71.7205 46.4133 70.9333V62.1667C49.4259 64.7304 53.2475 66.1472 57.2032 66.1667C58.3133 66.1667 59.2835 66.0667 60.1101 65.8667C60.94 65.6667 61.6299 65.3867 62.1867 65.0333C62.74 64.6733 63.1533 64.2533 63.4299 63.7667C63.7357 63.2 63.8749 62.5584 63.8312 61.916C63.7875 61.2736 63.5629 60.6568 63.1835 60.1368C62.688 59.4813 62.0824 58.9173 61.3933 58.4701C60.5389 57.9037 59.6392 57.4085 58.7035 56.9901C57.5941 56.4835 56.4749 55.9989 55.3467 55.5365C52.2867 54.26 50.0067 52.6965 48.5032 50.8533C47.0032 49.0099 46.2501 46.78 46.2501 44.1701C46.2501 42.1235 46.66 40.3667 47.48 38.8965C48.3 37.4267 49.4133 36.2168 50.8267 35.2667C52.3216 34.2805 53.9811 33.5704 55.7267 33.1701C57.66 32.7141 59.6405 32.4893 61.6267 32.5ZM11.25 33.1267H43.1267V40.3467H31.6867V72.5H22.63V40.3467H11.25V33.1267Z" fill="white"/>
</g>
<defs>
<clipPath id="clip0_6_710">
<rect width="80" height="80" fill="white"/>
</clipPath>
</defs>
</svg>
