<svg width="80" height="80" viewBox="0 0 80 80" fill="none" xmlns="http://www.w3.org/2000/svg">
<path d="M73.3279 20.2456C73.3279 13.4936 67.8351 8 61.0823 8C56.4639 8 52.2607 10.6192 50.1887 14.6512C46.885 13.6501 43.4511 13.1446 39.9991 13.1512C36.4999 13.1512 33.0783 13.656 29.8095 14.6512C27.7391 10.6192 23.5359 8 18.9175 8C12.1647 8 6.67188 13.4936 6.67188 20.2456C6.67188 23.8928 8.27747 27.296 11.0295 29.6104C8.86707 33.6208 7.72627 38.0712 7.72627 42.572C7.72627 47.9432 9.32387 53.1912 12.3463 57.7464C12.3559 57.7608 12.3663 57.7744 12.3751 57.7888L12.3759 57.7904C15.1999 62.048 19.1871 65.6088 23.9127 68.0904C28.7815 70.648 34.3447 72 39.9999 72C45.6551 72 51.2183 70.648 56.0871 68.0912C60.8287 65.6008 64.8287 62.024 67.6527 57.7496C70.6759 53.192 72.2735 47.944 72.2735 42.5728C72.2735 38.072 71.1327 33.6216 68.9703 29.6112C70.3371 28.4635 71.4356 27.0301 72.1885 25.412C72.9413 23.7939 73.3303 22.0303 73.3279 20.2456ZM61.0823 11.1696C66.0871 11.1696 70.1583 15.2408 70.1583 20.2456C70.1583 22.7848 69.1071 25.164 67.2887 26.8656C63.8991 21.9712 58.9911 18.088 53.2111 15.7272C54.0081 14.3439 55.1549 13.1945 56.5365 12.3946C57.9181 11.5946 59.4858 11.1721 61.0823 11.1696ZM9.84147 20.2456C9.84147 15.2408 13.9127 11.1696 18.9175 11.1696C22.1975 11.1696 25.1943 12.9512 26.7895 15.7272C21.0071 18.0896 16.0999 21.9728 12.7111 26.8656C11.804 26.0182 11.0811 24.9931 10.5875 23.8542C10.0938 22.7153 9.83983 21.4869 9.84147 20.2456ZM39.9999 68.8304C30.0287 68.8304 20.6479 64.1288 15.3471 56.52C17.0367 48.2648 24.1847 41.6256 33.5639 39.4952C33.8336 40.6902 34.4301 41.7868 35.2867 42.6626C36.1433 43.5384 37.2263 44.159 38.4151 44.4552V46.9512C38.1831 47.0256 37.9655 47.1536 37.7815 47.3376C36.8727 48.2464 35.6639 48.7472 34.3783 48.7472C33.0927 48.7472 31.8839 48.2464 30.9751 47.3376C30.6759 47.0502 30.276 46.8915 29.8612 46.8956C29.4464 46.8998 29.0497 47.0664 28.7564 47.3597C28.4631 47.6531 28.2964 48.0497 28.2923 48.4645C28.2882 48.8794 28.4468 49.2793 28.7343 49.5784C29.4738 50.322 30.3535 50.9115 31.3225 51.3127C32.2914 51.714 33.3303 51.919 34.3791 51.916C35.4226 51.9186 36.4563 51.7154 37.4211 51.3178C38.3859 50.9202 39.2628 50.3362 40.0015 49.5992C41.4956 51.0839 43.5175 51.9157 45.6239 51.912C46.6721 51.9137 47.7104 51.7084 48.6791 51.3078C49.6478 50.9072 50.5278 50.3192 51.2687 49.5776C51.5658 49.2805 51.7328 48.8774 51.7328 48.4572C51.7328 48.037 51.5658 47.634 51.2687 47.3368C50.9715 47.0397 50.5685 46.8727 50.1483 46.8727C49.728 46.8727 49.325 47.0397 49.0279 47.3368C48.1247 48.2382 46.9007 48.7445 45.6247 48.7445C44.3486 48.7445 43.1247 48.2382 42.2215 47.3368C42.044 47.1594 41.8268 47.0269 41.5879 46.9504V44.4544C42.7766 44.1582 43.8597 43.5376 44.7163 42.6618C45.5729 41.786 46.1693 40.6894 46.4391 39.4944C55.8191 41.6248 62.9663 48.2648 64.6559 56.5192C59.3535 64.128 49.9719 68.8304 39.9999 68.8304ZM43.4039 37.736L43.4119 37.8072L43.4127 37.8184C43.4215 37.884 43.4255 37.9632 43.4255 38.0608C43.4061 38.9565 43.0367 39.809 42.3964 40.4356C41.7561 41.0623 40.8958 41.4132 39.9999 41.4132C39.104 41.4132 38.2437 41.0623 37.6034 40.4356C36.963 39.809 36.5936 38.9565 36.5743 38.0608C36.5743 37.9624 36.5783 37.8832 36.5871 37.8184L36.5879 37.8072L36.5959 37.7368C36.6689 36.8864 37.0599 36.0947 37.6909 35.5198C38.3218 34.9449 39.1463 34.629 39.9999 34.6352C40.8534 34.6287 41.678 34.9443 42.309 35.5191C42.94 36.0939 43.331 36.8856 43.4039 37.736ZM66.8543 52.7048C63.8471 44.5096 56.0895 38.184 46.3367 36.2328C45.5527 33.444 43.0143 31.4656 39.9999 31.4656C36.9855 31.4656 34.4479 33.4448 33.6631 36.2328C23.9103 38.184 16.1519 44.5104 13.1455 52.7048C11.6663 49.5314 10.8982 46.0732 10.8951 42.572C10.8951 38.1768 12.1255 33.8296 14.4543 29.9976C17.7463 24.5584 23.0759 20.3328 29.4655 18.0992C32.8151 16.9184 36.3599 16.32 39.9999 16.32C43.6399 16.32 47.1847 16.9184 50.5383 18.1008C56.9239 20.3328 62.2535 24.5584 65.5455 29.9976L65.5471 30C67.8743 33.8296 69.1047 38.176 69.1047 42.5712C69.1047 46.0728 68.3335 49.5176 66.8543 52.7048Z" fill="white"/>
<path d="M27.8328 22.776C27.6857 22.6289 27.511 22.5122 27.3188 22.4325C27.1265 22.3529 26.9205 22.3119 26.7124 22.3119C26.5043 22.3119 26.2983 22.3529 26.1061 22.4325C25.9138 22.5122 25.7391 22.6289 25.592 22.776C25.4449 22.9231 25.3282 23.0978 25.2485 23.29C25.1689 23.4823 25.1279 23.6883 25.1279 23.8964C25.1279 24.1045 25.1689 24.3105 25.2485 24.5028C25.3282 24.695 25.4449 24.8697 25.592 25.0168L28.5592 27.984L26.468 30.0752C26.2462 30.2967 26.0951 30.5791 26.0338 30.8866C25.9726 31.194 26.004 31.5127 26.124 31.8024C26.244 32.092 26.4473 32.3395 26.708 32.5135C26.9688 32.6876 27.2753 32.7803 27.5888 32.78C27.9944 32.78 28.4 32.6256 28.7096 32.316L31.9216 29.104C32.2185 28.8066 32.3853 28.4035 32.3853 27.9832C32.3853 27.5629 32.2185 27.1598 31.9216 26.8624L27.8328 22.776ZM52.1672 22.776L48.0792 26.864C47.932 27.0111 47.8153 27.1858 47.7356 27.378C47.6559 27.5702 47.6149 27.7763 47.6149 27.9844C47.6149 28.1925 47.6559 28.3986 47.7356 28.5908C47.8153 28.783 47.932 28.9577 48.0792 29.1048L51.2912 32.3168C51.6008 32.6264 52.0064 32.7808 52.412 32.7808C52.8176 32.7808 53.2232 32.6264 53.5328 32.3168C53.68 32.1697 53.7968 31.995 53.8764 31.8028C53.9561 31.6106 53.9971 31.4045 53.9971 31.1964C53.9971 30.9883 53.9561 30.7822 53.8764 30.59C53.7968 30.3978 53.68 30.2231 53.5328 30.076L51.4416 27.9848L54.4088 25.0176C54.556 24.8705 54.6728 24.6958 54.7524 24.5036C54.8321 24.3114 54.8731 24.1053 54.8731 23.8972C54.8731 23.6891 54.8321 23.483 54.7524 23.2908C54.6728 23.0986 54.556 22.9239 54.4088 22.7768C54.2618 22.6294 54.0871 22.5125 53.8948 22.4327C53.7025 22.3529 53.4964 22.3118 53.2882 22.3117C53.08 22.3116 52.8738 22.3526 52.6815 22.4323C52.4891 22.5119 52.3144 22.6287 52.1672 22.776Z" fill="white"/>
</svg>
