<svg width="28" height="50" viewBox="0 0 28 50" fill="none" xmlns="http://www.w3.org/2000/svg">
<path d="M0.81234 26.9612C-0.27078 25.878 -0.27078 24.122 0.81234 23.0388C1.89546 21.9557 3.65154 21.9557 4.73466 23.0388L26.9612 45.2653C28.0443 46.3485 28.0443 48.1045 26.9612 49.1877C25.878 50.2708 24.122 50.2708 23.0388 49.1877L0.81234 26.9612Z" fill="white"/>
<path d="M4.73466 26.9612C3.65154 28.0443 1.89546 28.0443 0.81234 26.9612C-0.27078 25.878 -0.27078 24.122 0.81234 23.0388L23.0388 0.81234C24.122 -0.27078 25.878 -0.27078 26.9612 0.81234C28.0443 1.89546 28.0443 3.65154 26.9612 4.73466L4.73466 26.9612Z" fill="white"/>
</svg>
