<svg width="28" height="50" viewBox="0 0 28 50" fill="none" xmlns="http://www.w3.org/2000/svg">
<path d="M27.1877 23.0388C28.2708 24.122 28.2708 25.878 27.1877 26.9612C26.1045 28.0443 24.3485 28.0443 23.2653 26.9612L1.03884 4.73466C-0.0442775 3.65154 -0.0442773 1.89546 1.03884 0.81234C2.12196 -0.270779 3.87805 -0.270779 4.96117 0.81234L27.1877 23.0388Z" fill="white"/>
<path d="M23.2653 23.0388C24.3485 21.9557 26.1045 21.9557 27.1877 23.0388C28.2708 24.122 28.2708 25.878 27.1877 26.9612L4.96116 49.1877C3.87804 50.2708 2.12196 50.2708 1.03884 49.1877C-0.0442786 48.1045 -0.0442784 46.3485 1.03884 45.2653L23.2653 23.0388Z" fill="white"/>
</svg>
