<svg width="50" height="50" viewBox="0 0 50 50" fill="none" xmlns="http://www.w3.org/2000/svg">
<path d="M0 25C0 11.1929 11.1929 0 25 0C38.8071 0 50 11.1929 50 25C50 38.8071 38.8071 50 25 50C11.1929 50 0 38.8071 0 25Z" fill="black"/>
<path d="M26.2 38.4C23.2667 38.4 20.7467 37.8133 18.64 36.64C16.56 35.44 14.96 33.76 13.84 31.6C12.72 29.4133 12.16 26.84 12.16 23.88C12.16 21.6667 12.48 19.68 13.12 17.92C13.76 16.1333 14.68 14.6133 15.88 13.36C17.08 12.08 18.5467 11.1067 20.28 10.44C22.04 9.74667 24.0133 9.4 26.2 9.4C27.6667 9.4 29.1067 9.58667 30.52 9.96C31.9333 10.3333 33.1733 10.8667 34.24 11.56C34.8 11.9067 35.1733 12.3333 35.36 12.84C35.5467 13.32 35.5867 13.8 35.48 14.28C35.3733 14.7333 35.1467 15.12 34.8 15.44C34.48 15.76 34.0667 15.9467 33.56 16C33.08 16.0267 32.5467 15.8533 31.96 15.48C31.1333 14.9467 30.24 14.56 29.28 14.32C28.32 14.08 27.3467 13.96 26.36 13.96C24.4667 13.96 22.8667 14.3467 21.56 15.12C20.2533 15.8933 19.2667 17.0133 18.6 18.48C17.9333 19.9467 17.6 21.7467 17.6 23.88C17.6 25.9867 17.9333 27.7867 18.6 29.28C19.2667 30.7733 20.2533 31.9067 21.56 32.68C22.8667 33.4533 24.4667 33.84 26.36 33.84C27.3733 33.84 28.3733 33.72 29.36 33.48C30.3467 33.2133 31.28 32.8133 32.16 32.28C32.7467 31.9333 33.2667 31.7867 33.72 31.84C34.2 31.8667 34.6 32.0267 34.92 32.32C35.24 32.6133 35.4533 32.9867 35.56 33.44C35.6667 33.8667 35.64 34.32 35.48 34.8C35.32 35.2533 35 35.6533 34.52 36C33.4533 36.7733 32.1733 37.3733 30.68 37.8C29.2133 38.2 27.72 38.4 26.2 38.4Z" fill="white"/>
</svg>
