<svg width="80" height="80" viewBox="0 0 80 80" fill="none" xmlns="http://www.w3.org/2000/svg">
<g clip-path="url(#clip0_6_751)">
<path d="M46.6101 36.9267H53.6734C53.8372 36.9267 53.9944 36.8618 54.1106 36.7463C54.2268 36.6307 54.2925 36.4739 54.2934 36.31V30.02C54.2934 29.8556 54.2281 29.6979 54.1118 29.5816C53.9955 29.4653 53.8378 29.4 53.6734 29.4H46.6101C46.4465 29.4 46.2897 29.465 46.174 29.5806C46.0584 29.6963 45.9934 29.8531 45.9934 30.0167V36.31C45.9934 36.65 46.2701 36.9267 46.6101 36.9267ZM36.7634 18.8267H43.8234C43.9878 18.8267 44.1455 18.7614 44.2618 18.6451C44.3781 18.5288 44.4434 18.3711 44.4434 18.2067V11.9134C44.4425 11.7495 44.3768 11.5927 44.2606 11.4771C44.1444 11.3616 43.9873 11.2967 43.8234 11.2967H36.7634C36.5998 11.2967 36.443 11.3617 36.3273 11.4773C36.2117 11.593 36.1467 11.7498 36.1467 11.9134V18.2067C36.1467 18.5467 36.4201 18.8267 36.7634 18.8267ZM36.7634 27.8767H43.8234C43.9876 27.8758 44.1447 27.8102 44.2608 27.6941C44.3769 27.578 44.4425 27.4209 44.4434 27.2567V20.9667C44.4425 20.8028 44.3768 20.646 44.2606 20.5304C44.1444 20.4149 43.9873 20.35 43.8234 20.35H36.7634C36.5998 20.35 36.443 20.415 36.3273 20.5306C36.2117 20.6463 36.1467 20.8031 36.1467 20.9667V27.2567C36.1467 27.5967 36.4201 27.8734 36.7634 27.8767ZM26.9967 27.8767H34.0634C34.2267 27.8749 34.3827 27.8088 34.4975 27.6928C34.6123 27.5767 34.6767 27.42 34.6767 27.2567V20.9667C34.6767 20.8031 34.6118 20.6463 34.4961 20.5306C34.3805 20.415 34.2236 20.35 34.0601 20.35H27.0001C26.8365 20.35 26.6797 20.415 26.564 20.5306C26.4484 20.6463 26.3834 20.8031 26.3834 20.9667V27.2567C26.3834 27.5967 26.6601 27.8734 27.0001 27.8767M17.1201 27.8767H24.1834C24.3472 27.8758 24.5041 27.8101 24.6196 27.6939C24.7352 27.5777 24.8001 27.4206 24.8001 27.2567V20.9667C24.8001 20.8031 24.7351 20.6463 24.6194 20.5306C24.5038 20.415 24.3469 20.35 24.1834 20.35H17.1201C16.9562 20.35 16.799 20.4149 16.6828 20.5304C16.5666 20.646 16.5009 20.8028 16.5001 20.9667V27.2567C16.5001 27.5967 16.7801 27.8734 17.1201 27.8767ZM36.7634 36.9267H43.8234C43.9873 36.9267 44.1444 36.8618 44.2606 36.7463C44.3768 36.6307 44.4425 36.4739 44.4434 36.31V30.02C44.4434 29.8556 44.3781 29.6979 44.2618 29.5816C44.1455 29.4653 43.9878 29.4 43.8234 29.4H36.7634C36.5998 29.4 36.443 29.465 36.3273 29.5806C36.2117 29.6963 36.1467 29.8531 36.1467 30.0167V36.31C36.1467 36.65 36.4201 36.9267 36.7634 36.9267ZM26.9967 36.9267H34.0634C34.2264 36.9258 34.3824 36.8605 34.4973 36.7449C34.6122 36.6293 34.6767 36.473 34.6767 36.31V30.02C34.6772 29.939 34.6616 29.8588 34.6311 29.7838C34.6005 29.7088 34.5554 29.6406 34.4985 29.583C34.4415 29.5254 34.3738 29.4796 34.2991 29.4482C34.2245 29.4168 34.1444 29.4005 34.0634 29.4H26.9967C26.8338 29.4009 26.6778 29.4663 26.5628 29.5818C26.4479 29.6974 26.3834 29.8537 26.3834 30.0167V36.31C26.3834 36.65 26.6601 36.9267 27.0001 36.9267M17.1201 36.9267H24.1834C24.3469 36.9267 24.5038 36.8617 24.6194 36.7461C24.7351 36.6304 24.8001 36.4736 24.8001 36.31V30.02C24.8005 29.939 24.785 29.8588 24.7544 29.7838C24.7238 29.7088 24.6788 29.6406 24.6218 29.583C24.5648 29.5254 24.4971 29.4796 24.4225 29.4482C24.3478 29.4168 24.2677 29.4005 24.1867 29.4H17.1201C16.9556 29.4 16.7979 29.4653 16.6817 29.5816C16.5654 29.6979 16.5001 29.8556 16.5001 30.02V36.31C16.5001 36.65 16.7801 36.9267 17.1201 36.9267ZM7.38672 36.9267H14.4534C14.6164 36.9258 14.7724 36.8605 14.8873 36.7449C15.0022 36.6293 15.0667 36.473 15.0667 36.31V30.02C15.0672 29.939 15.0516 29.8588 15.0211 29.7838C14.9905 29.7088 14.9454 29.6406 14.8885 29.583C14.8315 29.5254 14.7638 29.4796 14.6891 29.4482C14.6145 29.4168 14.5344 29.4005 14.4534 29.4H7.38672C7.22375 29.4009 7.06775 29.4663 6.95283 29.5818C6.8379 29.6974 6.77339 29.8537 6.77339 30.0167V36.31C6.77339 36.65 7.04339 36.9267 7.38672 36.9267ZM79.2101 32.9667C78.9934 32.7967 76.9701 31.2667 72.6967 31.2667C71.5701 31.27 70.4434 31.3667 69.3301 31.5567C68.5034 25.89 63.8201 23.1234 63.6101 23.0034L62.4634 22.34L61.7101 23.43C60.7634 24.89 60.0767 26.5034 59.6701 28.1967C58.9034 31.43 59.3701 34.47 61.0134 37.0667C59.0301 38.1734 55.8467 38.4434 55.2001 38.4667H2.50339C1.84177 38.4676 1.2074 38.7303 0.738944 39.1975C0.270485 39.6647 0.00603246 40.2984 0.00339009 40.96C-0.0583376 45.5761 0.723372 50.1647 2.31006 54.5C4.12672 59.26 6.82672 62.7667 10.3434 64.9134C14.2767 67.3234 20.6767 68.7034 27.9267 68.7034C31.2034 68.7134 34.4701 68.4167 37.6934 67.8167C42.1695 66.9944 46.4767 65.4295 50.4367 63.1867C53.7034 61.2967 56.6367 58.8934 59.1367 56.0667C63.3101 51.34 65.7967 46.0767 67.6467 41.4H68.3834C72.9567 41.4 75.7667 39.57 77.3167 38.0367C78.3467 37.06 79.1501 35.87 79.6734 34.55L80.0001 33.59L79.2101 32.9667Z" fill="white"/>
</g>
<defs>
<clipPath id="clip0_6_751">
<rect width="80" height="80" fill="white"/>
</clipPath>
</defs>
</svg>
