<svg width="80" height="80" viewBox="0 0 80 80" fill="none" xmlns="http://www.w3.org/2000/svg">
<g clip-path="url(#clip0_6_722)">
<path d="M74.1702 39.4C74.1661 37.1055 73.4026 34.8768 71.9989 33.0618C70.5951 31.2468 68.63 29.9475 66.4102 29.3667L76.3702 0H27.0135L37.0002 29.46C34.8442 30.0884 32.95 31.3987 31.6015 33.1943C30.2529 34.99 29.5227 37.1743 29.5202 39.42C29.5202 42.8967 31.2535 45.9767 33.8968 47.8733C32.8335 49.3724 31.623 50.7615 30.2835 52.02C27.8195 54.3668 24.936 56.2292 21.7835 57.51C19.0035 55.6333 17.8002 52.3233 18.8868 49.3567C21.2517 48.6221 23.2755 47.0653 24.592 44.9679C25.9085 42.8705 26.4308 40.3711 26.0642 37.9221C25.6977 35.473 24.4665 33.2361 22.5936 31.6161C20.7207 29.996 18.3298 29.1 15.8535 29.09C13.1025 29.0935 10.4652 30.1879 8.51997 32.1332C6.57474 34.0784 5.48035 36.7157 5.47682 39.4667C5.47682 42.2933 6.63349 44.8867 8.48682 46.74C8.32682 47.0633 8.16349 47.39 8.00016 47.7367C6.45016 50.9333 4.69016 54.5467 4.01682 58.6C2.67349 66.7067 4.87349 73.2133 10.1802 76.8967C13.0523 78.9223 16.4823 80.0066 19.9968 80C26.0868 80 32.2702 76.9433 38.2468 73.9767C42.5102 71.87 46.9102 69.67 51.2402 68.6033C52.8402 68.21 54.5068 67.98 56.2668 67.7233C59.8335 67.2133 63.5168 66.6833 66.8268 64.7567C68.7171 63.6735 70.3476 62.1899 71.604 60.4101C72.8604 58.6303 73.7124 56.5972 74.1002 54.4533C74.6802 51.14 74.1002 47.8067 72.6202 44.8867C73.6135 43.2867 74.1702 41.4167 74.1702 39.4ZM69.6535 39.4C69.6535 42.6167 67.0368 45.2333 63.8202 45.2333C62.6088 45.23 61.4285 44.8502 60.4424 44.1466C59.4564 43.443 58.7134 42.4504 58.3162 41.306C57.919 40.1617 57.8873 38.9222 58.2254 37.759C58.5635 36.5958 59.2547 35.5665 60.2035 34.8133L60.2268 34.79C60.4135 34.65 60.6202 34.51 60.8268 34.3733C60.8268 34.3733 60.8535 34.3733 60.8535 34.35C60.9468 34.3033 61.0368 34.2333 61.1302 34.1833C61.1535 34.1833 61.1768 34.1633 61.2002 34.1633C61.2935 34.1167 61.4102 34.07 61.5235 34.0233C61.6402 33.9767 61.7568 33.9333 61.8502 33.8867C61.8735 33.8867 61.8935 33.8633 61.9168 33.8633C62.0102 33.84 62.1035 33.7933 62.1968 33.77C62.2202 33.77 62.2635 33.7467 62.2902 33.7467C62.4035 33.7233 62.4968 33.7 62.6135 33.68H62.6368L62.9835 33.6067C63.0068 33.6067 63.0502 33.6067 63.0768 33.5833C63.1702 33.5833 63.2602 33.56 63.3535 33.56H63.4702C63.5868 33.56 63.7035 33.5367 63.8402 33.5367H64.1402C64.2335 33.5367 64.3068 33.5367 64.3968 33.56H64.4435C64.6268 33.5833 64.8135 33.6067 65.0002 33.6533C66.3152 33.9351 67.4941 34.6586 68.3407 35.7036C69.1873 36.7485 69.6506 38.0551 69.6535 39.4ZM33.4768 4.63333H69.9102L61.5468 29.3C61.2002 29.3667 60.8535 29.4833 60.5068 29.6L51.7068 11.65L42.8802 29.4833C42.5335 29.37 42.1602 29.3 41.7902 29.23L33.4768 4.63333ZM50.0368 37.3833C49.6107 35.2453 48.5157 33.2981 46.9102 31.8233L51.7035 22.1433L56.5435 32.0333C55.1102 33.4667 54.0668 35.3 53.6502 37.3833H50.0368ZM38.4335 33.7233C38.5468 33.7 38.6402 33.6767 38.7568 33.6567H38.8235C38.9202 33.63 39.0102 33.63 39.1035 33.6067H39.1968C39.2902 33.6067 39.3602 33.5833 39.4502 33.5833H40.3535C40.4468 33.5833 40.5168 33.6067 40.5868 33.6067C40.6335 33.6067 40.6535 33.6067 40.7035 33.63C40.7935 33.6533 40.8635 33.6533 40.9568 33.6767C40.9802 33.6767 41.0035 33.6767 41.0502 33.7L41.3735 33.7667H41.3968C41.4902 33.7933 41.5835 33.8167 41.6735 33.8633C41.6968 33.8633 41.7202 33.8867 41.7668 33.8867C41.8368 33.91 41.9302 33.9333 42.0002 33.9767C42.0235 33.9767 42.0468 34 42.0668 34C42.1602 34.0467 42.2535 34.07 42.3468 34.1167H42.3702C42.4772 34.1571 42.5781 34.212 42.6702 34.28H42.6935C42.7868 34.3267 42.8802 34.3933 42.9735 34.44C42.9968 34.44 42.9968 34.4633 43.0168 34.4633C43.1102 34.51 43.1835 34.58 43.2735 34.6267L43.2968 34.65C43.5735 34.8567 43.8302 35.09 44.0835 35.32L44.1068 35.3433C45.139 36.4306 45.7121 37.8741 45.7068 39.3733C45.6557 40.8872 45.0183 42.3219 43.9293 43.3747C42.8403 44.4275 41.3849 45.016 39.8702 45.016C38.3555 45.016 36.9 44.4275 35.811 43.3747C34.722 42.3219 34.0847 40.8872 34.0335 39.3733C34.0298 38.0753 34.4613 36.8134 35.2588 35.7893C36.0564 34.7652 37.1741 34.0378 38.4335 33.7233ZM15.6402 33.56C18.8602 33.56 21.4768 36.18 21.4768 39.3967C21.4768 42.6133 18.8602 45.2333 15.6435 45.2333C12.4268 45.2333 9.80349 42.6167 9.80349 39.4C9.80349 36.1833 12.4235 33.56 15.6402 33.56ZM69.5168 53.6433C69.2534 55.1252 68.6663 56.5307 67.7974 57.7596C66.9286 58.9886 65.7993 60.0108 64.4902 60.7533C61.9635 62.2133 58.8602 62.6767 55.5935 63.14C53.7567 63.3753 51.9324 63.699 50.1268 64.11C45.3102 65.2933 40.6802 67.61 36.1868 69.8333C30.4402 72.68 25.0202 75.3667 19.9968 75.3667C17.4209 75.3827 14.9065 74.5796 12.8168 73.0733C7.72016 69.5533 7.97349 62.9533 8.57682 59.34C9.13349 55.9567 10.6835 52.7867 12.1668 49.75C12.2602 49.5667 12.3302 49.4033 12.4235 49.2167C12.9302 49.4033 13.4635 49.5433 14.0202 49.6367C13.1402 54.5467 15.6402 59.6167 20.5068 62.12L21.3868 62.5833L22.3335 62.2367C26.3868 60.8 30.1402 58.46 33.4535 55.3333C35.2832 53.6272 36.9004 51.7067 38.2702 49.6133C38.8035 49.7033 39.3368 49.7267 39.8702 49.7267C42.1631 49.7213 44.3899 48.9577 46.2035 47.5547C48.0171 46.1516 49.3157 44.1881 49.8968 41.97H53.7868C54.3641 44.1915 55.6626 46.1584 57.4785 47.5622C59.2944 48.9661 61.5249 49.7274 63.8202 49.7267C65.7402 49.7267 67.5202 49.1933 69.0535 48.2933C69.6535 50.0267 69.8402 51.8367 69.5168 53.6433Z" fill="white"/>
</g>
<defs>
<clipPath id="clip0_6_722">
<rect width="80" height="80" fill="white"/>
</clipPath>
</defs>
</svg>
