<svg width="80" height="80" viewBox="0 0 80 80" fill="none" xmlns="http://www.w3.org/2000/svg">
<path d="M40.0001 0L5.3501 20V60L40.0001 80L74.6501 60V20L40.0001 0ZM60.0001 55.3C60.0001 57.65 57.8468 59.6 54.9034 59.6C52.8001 59.6 50.4001 58.75 48.9001 56.9L28.9001 33.0967V55.2967C28.9001 57.7 27.0001 59.5967 24.6534 59.5967H24.4001C21.9968 59.5967 20.1001 57.5967 20.1001 55.2967V24.7C20.1001 22.35 22.2001 20.4 25.1001 20.4C27.2534 20.4 29.7001 21.25 31.2001 23.1L51.1001 46.9033V24.7C51.1001 22.2967 53.1001 20.4 55.4001 20.4H55.6501C58.0501 20.4 59.9501 22.4 59.9501 24.7V55.3H60.0001Z" fill="white"/>
</svg>
