<svg width="80" height="80" viewBox="0 0 80 80" fill="none" xmlns="http://www.w3.org/2000/svg">
<g clip-path="url(#clip0_6_726)">
<path d="M39.9935 80C38.9235 80 37.8569 79.72 36.9202 79.1766L27.1335 73.3866C25.6735 72.57 26.3869 72.28 26.8669 72.11C28.8169 71.4333 29.2102 71.2766 31.2935 70.0966C31.5102 69.9733 31.7969 70.02 32.0202 70.1533L39.5402 74.6166C39.8135 74.7666 40.1969 74.7666 40.4469 74.6166L69.7635 57.6966C70.0369 57.54 70.2102 57.2266 70.2102 56.9033V23.07C70.2102 22.74 70.0335 22.43 69.7535 22.2633L40.4502 5.35665C40.1802 5.19998 39.8202 5.19998 39.5469 5.35665L10.2502 22.2666C9.96686 22.43 9.78686 22.75 9.78686 23.07V56.9033C9.78686 57.2266 9.96686 57.5333 10.2502 57.6866L18.2802 62.3266C22.6369 64.5066 25.3069 61.94 25.3069 59.36V25.9566C25.3069 25.4833 25.6869 25.1133 26.1602 25.1133H29.8769C30.3402 25.1133 30.7269 25.4866 30.7269 25.9566V59.36C30.7269 65.1766 27.5602 68.51 22.0469 68.51C20.3535 68.51 19.0169 68.51 15.2935 66.6733L7.60019 62.25C5.70019 61.1533 4.52686 59.1 4.52686 56.9033V23.07C4.52686 20.8733 5.70352 18.82 7.60019 17.7266L36.9169 0.786645C38.7735 -0.263354 41.2369 -0.263354 43.0769 0.786645L72.3902 17.7266C74.2902 18.8233 75.4702 20.8733 75.4702 23.07V56.9033C75.4702 59.1 74.2902 61.1466 72.3902 62.25L43.0769 79.1766C42.1435 79.72 41.0802 80 39.9935 80ZM63.6635 46.6433C63.6635 40.31 59.3835 38.6233 50.3735 37.4333C41.2702 36.23 40.3435 35.6066 40.3435 33.4766C40.3435 31.7166 41.1269 29.3666 47.8702 29.3666C53.8935 29.3666 56.1135 30.6633 57.0269 34.7233C57.1069 35.1066 57.4569 35.3866 57.8502 35.3866H61.6535C61.8902 35.3866 62.1135 35.2833 62.2735 35.1166C62.4335 34.9366 62.5202 34.7066 62.4969 34.4633C61.9069 27.47 57.2602 24.21 47.8702 24.21C39.5102 24.21 34.5235 27.7366 34.5235 33.6533C34.5235 40.07 39.4835 41.8433 47.5069 42.6366C57.1069 43.5766 57.8502 44.98 57.8502 46.8666C57.8502 50.1433 55.2202 51.54 49.0435 51.54C41.2869 51.54 39.5802 49.5933 39.0069 45.7333C38.9402 45.32 38.5869 45.0166 38.1635 45.0166H34.3735C33.9035 45.0166 33.5269 45.39 33.5269 45.86C33.5269 50.8 36.2135 56.6866 49.0435 56.6866C58.3369 56.69 63.6635 53.0333 63.6635 46.6433Z" fill="white"/>
</g>
<defs>
<clipPath id="clip0_6_726">
<rect width="80" height="80" fill="white"/>
</clipPath>
</defs>
</svg>
