<svg width="80" height="80" viewBox="0 0 80 80" fill="none" xmlns="http://www.w3.org/2000/svg">
<g clip-path="url(#clip0_13_33)">
<path d="M78.5315 49.076C78.4858 48.9363 78.4227 48.803 78.3438 48.679C77.8805 47.8017 76.7545 47.5397 74.9858 47.9053C69.4748 49.0423 67.3408 48.3427 66.5672 47.8417C71.0405 41.0143 74.7172 32.7683 76.7042 25.076C77.6088 21.5737 79.3648 13.3303 77.1115 9.304C76.9675 9.02842 76.7992 8.76626 76.6085 8.52067C72.3105 3.02867 66.0025 0.0826713 58.3665 0.00167134C53.3842 -0.0509953 49.1315 1.15534 47.9795 1.59967C47.4089 1.49318 46.8354 1.40247 46.2598 1.32767C44.8168 1.06637 43.3548 0.923894 41.8885 0.901671C37.9478 0.840338 34.5425 1.78234 31.7225 3.70367C28.8648 2.63334 15.7598 -1.77966 7.64949 3.96634C3.11982 7.17534 1.02882 12.911 1.43416 21.0143C1.57049 23.741 3.12382 32.1277 5.57516 40.1597C7.10782 45.1813 8.70416 49.166 10.3532 52.0997C12.1965 55.4137 14.1062 57.4107 16.0675 58.0647C17.5588 58.5617 19.8432 58.545 22.2612 55.6383C24.9318 52.4267 27.5622 49.5523 28.7432 48.282C30.1935 49.067 31.7645 49.4903 33.3765 49.5393C33.3768 49.5439 33.3772 49.5485 33.3778 49.553C33.0971 49.8874 32.8224 50.2268 32.5538 50.571C31.4242 52.005 31.1892 52.3033 27.5532 53.052C26.5192 53.2653 23.7718 53.8317 23.7318 55.757C23.7235 56.165 23.8415 56.5267 24.0382 56.8463C24.7945 58.2567 27.1102 58.8787 27.4215 58.9567C31.8698 60.0683 35.7695 59.2633 38.6595 56.6943C38.6028 64.131 38.9178 71.419 39.8108 73.6523C40.5482 75.4953 42.3502 80.0007 48.0415 80C48.8765 80 49.7958 79.903 50.8068 79.6863C56.7465 78.4127 59.3258 75.7877 60.3235 70C60.8245 67.0977 61.6622 60.4157 62.1195 56.3293C62.1758 56.095 62.2385 55.927 62.3095 55.8753C62.3118 55.8737 62.5418 55.7183 63.7335 55.9777C63.7822 55.9882 63.8315 55.9958 63.8812 56.0003L64.7275 56.0747L64.7772 56.078C67.5998 56.206 71.1485 55.6027 73.2145 54.642C75.3605 53.646 79.2335 51.201 78.5315 49.076ZM7.90349 39.5883C5.42516 31.469 3.97716 23.3047 3.86249 21.0153C3.50049 13.7773 5.25282 8.73901 9.07016 6.03967C15.1925 1.71101 25.2028 4.23701 29.4302 5.60634C29.4195 5.61701 29.4082 5.62667 29.3975 5.63767C22.6515 12.451 22.8115 24.091 22.8282 24.8027C22.8275 25.077 22.8502 25.4657 22.8822 26.0003C22.9982 27.958 23.2142 31.6017 22.6372 35.7283C22.1008 39.563 23.2828 43.3163 25.8798 46.0257C26.1485 46.306 26.4292 46.5693 26.7192 46.817C25.5632 48.055 23.0512 50.7923 20.3775 54.009C18.4852 56.284 17.1785 55.848 16.7488 55.7047C15.4425 55.269 14.0388 53.7477 12.6218 51.297C11.0232 48.5003 9.41016 44.5247 7.90349 39.5883ZM27.9275 56.5453C27.3572 56.4027 26.8372 56.168 26.4868 55.9547C26.7832 55.8233 27.2782 55.654 28.0978 55.485C32.3755 54.6047 33.0362 53.983 34.4788 52.151C34.8095 51.731 35.1842 51.2553 35.7032 50.6757C35.8148 50.5505 35.8985 50.403 35.9488 50.243C36.5182 49.7387 36.8568 49.8767 37.4052 50.104C37.9252 50.3193 38.4312 50.9707 38.6368 51.688C38.7338 52.0267 38.8432 52.6697 38.4862 53.1693C35.4718 57.3887 31.0808 57.334 27.9275 56.5453ZM34.9075 43.252L34.7325 43.722C34.2892 44.9107 33.8768 46.0157 33.6212 47.0653C31.3965 47.0583 29.2318 46.108 27.5862 44.3907C25.4932 42.207 24.5425 39.1693 24.9778 36.056C25.5872 31.6963 25.3622 27.9 25.2412 25.8607C25.2245 25.575 25.2095 25.325 25.2005 25.1277C26.1862 24.254 30.7535 21.807 34.0102 22.553C35.4965 22.8937 36.4022 23.9053 36.7785 25.6463C38.7272 34.659 37.0365 38.4153 35.6778 41.434C35.3978 42.056 35.1335 42.6437 34.9075 43.252ZM59.4532 58.4937C59.3968 59.083 59.3338 59.747 59.2472 60.48L58.7605 61.941C58.7219 62.0568 58.7014 62.1779 58.6998 62.3C58.6802 63.8823 58.5198 64.463 58.3165 65.1977C58.1052 65.9617 57.8655 66.828 57.7185 68.7227C57.3518 73.437 54.7912 76.145 49.6612 77.2443C44.6095 78.328 43.7135 75.5883 42.9238 73.172C42.843 72.9187 42.7575 72.6669 42.6675 72.4167C41.9495 70.464 42.0305 67.7103 42.1428 63.8997C42.1978 62.029 42.0598 57.562 41.0422 55.079C41.0568 54.1017 41.0775 53.1093 41.1055 52.1063C41.1089 51.9793 41.0917 51.8525 41.0545 51.731C41.0223 51.4967 40.9734 51.265 40.9082 51.0377C40.4995 49.61 39.5038 48.4157 38.3092 47.9207C37.8345 47.724 36.9632 47.3633 35.9165 47.631C36.1398 46.711 36.5268 45.6727 36.9465 44.548L37.1228 44.0747C37.3212 43.5413 37.5695 42.989 37.8328 42.404C39.2545 39.2453 41.2015 34.9197 39.0882 25.1467C38.2968 21.4863 35.6535 19.699 31.6468 20.114C29.2445 20.3627 27.0472 21.332 25.9508 21.8877C25.731 21.9991 25.5134 22.1148 25.2982 22.2347C25.6042 18.5467 26.7602 11.6543 31.0838 7.29367C31.405 6.97005 31.7424 6.66298 32.0948 6.37367C32.2698 6.33955 32.4347 6.26615 32.5772 6.15901C35.0852 4.25701 38.2255 3.32367 41.9172 3.384C43.2808 3.40634 44.5895 3.497 45.8312 3.654C52.2945 4.83534 56.6442 8.47667 59.2842 11.5963C61.9985 14.804 63.4682 18.0347 64.0548 19.7773C59.6442 19.3287 56.6435 20.2 55.1225 22.374C51.8138 27.1037 56.9325 36.2837 59.3928 40.6953C59.8438 41.504 60.2335 42.2027 60.3558 42.4997C61.1568 44.4413 62.1942 45.7373 62.9515 46.6837C63.1835 46.9737 63.4088 47.255 63.5798 47.5003C62.2438 47.8853 59.8438 48.7753 60.0625 53.2237C60.0215 53.7447 59.9215 54.7133 59.7845 55.9397C59.6308 56.632 59.5505 57.474 59.4532 58.4937ZM62.4215 53.09C62.2865 50.318 63.3185 50.0283 64.4105 49.7217C64.5616 49.6803 64.7116 49.6351 64.8605 49.5863C65.0014 49.7111 65.1508 49.8259 65.3078 49.9297C67.2088 51.1847 70.5822 51.334 75.3305 50.3777C74.6585 50.9673 73.6008 51.709 72.1528 52.3813C70.7868 53.0157 68.5005 53.4913 66.3285 53.5933C63.9295 53.7053 62.7088 53.3243 62.4215 53.09ZM64.3198 22.186C64.3002 23.3553 64.1392 24.4167 63.9685 25.525C63.7852 26.717 63.5952 27.9497 63.5472 29.4457C63.4998 30.9017 63.6818 32.4153 63.8578 33.8793C64.2132 36.836 64.5778 39.8803 63.1662 42.884C62.9318 42.4686 62.723 42.0394 62.5408 41.5987C62.3652 41.1733 61.9845 40.49 61.4572 39.5447C59.4052 35.8643 54.5992 27.246 57.0595 23.7293C58.3245 21.9203 61.5288 21.8423 64.3198 22.186ZM65.0812 45.565C64.987 45.4451 64.8923 45.3258 64.7968 45.207L64.6785 45.059C67.0992 41.0607 66.6258 37.105 66.2045 33.5973C66.0315 32.158 65.8682 30.7987 65.9095 29.522C65.9525 28.1683 66.1315 27.0077 66.3045 25.885C66.5175 24.5017 66.7338 23.0707 66.6742 21.3833C66.7188 21.2063 66.7368 20.9973 66.7135 20.7493C66.5612 19.131 64.7138 14.2893 60.9488 9.90601C58.9235 7.54834 55.9835 4.91534 51.9858 3.10767C53.7362 2.75234 56.0952 2.42934 58.7338 2.488C65.5722 2.64 70.9825 5.19967 74.8145 10.096C74.8959 10.2023 74.9702 10.3139 75.0368 10.43C77.4472 14.9487 74.1162 31.347 65.0812 45.565ZM35.6925 25.1777C35.6092 25.7757 34.6628 26.586 33.6222 26.586C33.5319 26.5861 33.4418 26.5798 33.3525 26.5673C32.7282 26.4807 32.0975 26.0873 31.6662 25.5153C31.5135 25.3137 31.2652 24.922 31.3145 24.5673C31.3328 24.4337 31.4015 24.239 31.6228 24.0713C32.0168 23.7733 32.7955 23.6627 33.6548 23.7823C34.7092 23.9293 35.7968 24.4283 35.6925 25.1777ZM62.1275 23.8063C62.1645 24.0703 61.9642 24.4763 61.6172 24.8403C61.3895 25.0793 60.9105 25.494 60.2575 25.5843C60.1747 25.5959 60.0911 25.6017 60.0075 25.6017C59.0292 25.6017 58.2028 24.8203 58.1385 24.3627C58.0585 23.7743 59.0188 23.3273 60.0088 23.1893C60.9988 23.0513 62.0458 23.2187 62.1275 23.8063Z" fill="white"/>
</g>
<defs>
<clipPath id="clip0_13_33">
<rect width="80" height="80" fill="white"/>
</clipPath>
</defs>
</svg>
