<svg width="80" height="80" viewBox="0 0 80 80" fill="none" xmlns="http://www.w3.org/2000/svg">
<path d="M72.6891 60.9493L45.1758 2.52168C44.4858 1.06102 43.0458 0.0973505 41.4138 0.00801716C39.7394 -0.0896495 38.2394 0.718017 37.3931 2.09235L7.55309 50.4237C6.62876 51.9297 6.64709 53.7873 7.60576 55.2753L22.1921 77.8707C23.0614 79.2193 24.5678 80 26.1331 80C26.5771 80 27.0231 79.9374 27.4621 79.8077L69.8018 67.285C71.0988 66.9013 72.1591 65.9837 72.7141 64.7674C73.2691 63.551 73.2584 62.158 72.6891 60.9493ZM66.5288 63.4557L30.6044 74.0807C29.5071 74.4057 28.4551 73.4563 28.6858 72.3493L41.5194 10.8874C41.7594 9.73802 43.3481 9.55535 43.8494 10.6197L67.6121 61.0797C68.0601 62.0317 67.5488 63.1543 66.5288 63.4557Z" fill="white"/>
</svg>
