<svg width="80" height="80" viewBox="0 0 80 80" fill="none" xmlns="http://www.w3.org/2000/svg">
<g clip-path="url(#clip0_10_33)">
<path d="M76.7832 32.0033H51.1932C50.7713 32.0059 50.3531 31.9248 49.9629 31.7646C49.5726 31.6044 49.2181 31.3683 48.9198 31.07C48.6215 30.7717 48.3854 30.4171 48.2252 30.0269C48.065 29.6366 47.9838 29.2185 47.9865 28.7966V3.20661C47.9865 2.78644 47.9034 2.37042 47.742 1.98249C47.5806 1.59455 47.3441 1.24237 47.0461 0.946194C46.7481 0.650021 46.3944 0.415711 46.0055 0.256747C45.6165 0.0977832 45.2 0.0173041 44.7798 0.0199411H35.1998C34.7797 0.0173041 34.3631 0.0977832 33.9742 0.256747C33.5853 0.415711 33.2316 0.650021 32.9336 0.946194C32.6355 1.24237 32.399 1.59455 32.2376 1.98249C32.0762 2.37042 31.9932 2.78644 31.9932 3.20661V28.7999C31.9958 29.2218 31.9147 29.64 31.7545 30.0302C31.5943 30.4205 31.3582 30.775 31.0599 31.0733C30.7616 31.3716 30.407 31.6077 30.0168 31.7679C29.6265 31.9281 29.2083 32.0093 28.7865 32.0066H19.2065C18.7849 32.0088 18.3671 31.9274 17.9772 31.767C17.5874 31.6066 17.2332 31.3704 16.9353 31.0721C16.6373 30.7739 16.4015 30.4195 16.2415 30.0294C16.0815 29.6394 16.0005 29.2215 16.0032 28.7999V3.20661C16.0058 2.78476 15.9247 2.36658 15.7645 1.97633C15.6043 1.58608 15.3682 1.23153 15.0699 0.933231C14.7716 0.634934 14.417 0.398834 14.0268 0.238624C13.6365 0.0784147 13.2183 -0.0027149 12.7965 -5.89057e-05H3.1965C2.77633 -6.7181e-05 2.36031 0.0830164 1.97237 0.244411C1.58444 0.405805 1.23225 0.642323 0.936081 0.940354C0.639909 1.23839 0.405599 1.59204 0.246635 1.98098C0.0876709 2.36992 0.00719176 2.78645 0.00982879 3.20661V76.7933C0.0071728 77.2151 0.0883024 77.6333 0.248512 78.0236C0.408721 78.4138 0.644822 78.7684 0.943119 79.0667C1.24142 79.365 1.59597 79.6011 1.98622 79.7613C2.37647 79.9215 2.79465 80.0026 3.2165 79.9999H76.7832C77.205 80.0026 77.6232 79.9215 78.0134 79.7613C78.4037 79.6011 78.7582 79.365 79.0565 79.0667C79.3548 78.7684 79.5909 78.4138 79.7511 78.0236C79.9114 77.6333 79.9925 77.2151 79.9898 76.7933V35.2666C80.0006 34.8398 79.9254 34.4151 79.7688 34.0179C79.6122 33.6206 79.3774 33.2589 79.0783 32.9542C78.7792 32.6495 78.4219 32.408 78.0276 32.2441C77.6333 32.0802 77.2101 32.0005 76.7832 32.0033ZM63.9165 59.1766C63.9191 59.8073 63.7972 60.4323 63.5576 61.0158C63.3181 61.5993 62.9657 62.1297 62.5206 62.5766C62.0756 63.0235 61.5466 63.3781 60.9642 63.6201C60.3817 63.8621 59.7572 63.9866 59.1265 63.9866H52.7132C52.0827 63.9862 51.4586 63.8613 50.8765 63.6191C50.2944 63.377 49.7659 63.0223 49.3212 62.5754C48.8765 62.1285 48.5244 61.5983 48.285 61.015C48.0457 60.4318 47.9239 59.807 47.9265 59.1766V52.7866C47.9239 52.1562 48.0457 51.5314 48.285 50.9482C48.5244 50.3649 48.8765 49.8347 49.3212 49.3878C49.7659 48.9409 50.2944 48.5863 50.8765 48.3441C51.4586 48.1019 52.0827 47.977 52.7132 47.9766H59.1265C59.7572 47.9766 60.3817 48.1012 60.9642 48.3431C61.5466 48.5851 62.0756 48.9397 62.5206 49.3866C62.9657 49.8335 63.3181 50.364 63.5576 50.9474C63.7972 51.5309 63.9191 52.1559 63.9165 52.7866V59.1766Z" fill="white"/>
</g>
<defs>
<clipPath id="clip0_10_33">
<rect width="80" height="80" fill="white"/>
</clipPath>
</defs>
</svg>
