<svg width="80" height="80" viewBox="0 0 80 80" fill="none" xmlns="http://www.w3.org/2000/svg">
<path d="M23.0992 45.625C23.6459 45.3123 24.3492 45.5077 24.6616 46.0677L24.8699 46.4193C26.4716 49.2577 28.1382 51.953 29.8699 54.5053C31.9142 57.513 34.2189 60.56 36.7842 63.6457C36.9795 63.8777 37.0753 64.1775 37.0509 64.4798C37.0265 64.7821 36.8839 65.0626 36.6539 65.2603L36.4066 65.4817C27.9299 72.8907 22.4352 74.3617 19.8959 69.9217C17.4092 65.573 18.3076 57.6823 22.5912 46.224C22.6847 45.9707 22.8646 45.7586 23.0992 45.625ZM59.1669 54.336C59.7789 54.2317 60.3649 54.6227 60.4819 55.2343L60.5472 55.573C62.6436 66.5233 61.1722 72.0053 56.1329 72.0053C51.1982 72.0053 44.9352 67.3307 37.3049 57.9947C37.1335 57.7864 37.0454 57.5221 37.0576 57.2527C37.0576 56.6277 37.5782 56.1197 38.2032 56.1197H38.6069C41.7308 56.1443 44.8543 56.0357 47.9689 55.7943C51.5366 55.5077 55.2736 55.026 59.1669 54.336ZM62.0702 31.0807C62.177 30.7929 62.392 30.5582 62.6694 30.4268C62.9468 30.2954 63.2646 30.2776 63.5549 30.3773L63.8936 30.4947C74.7659 34.1927 78.9066 38.268 76.2892 42.7083C73.7372 47.0573 66.3152 50.2217 54.0106 52.2007C53.7372 52.2397 53.4506 52.1873 53.2162 52.044C52.6562 51.7187 52.4612 51.0157 52.7996 50.4557L53.0079 50.1043C54.6879 47.2917 56.1979 44.4923 57.5652 41.6927C59.1539 38.3983 60.6639 34.8567 62.0702 31.0807ZM25.9902 27.7993C26.2636 27.7603 26.5502 27.8127 26.7846 27.956C27.3446 28.2813 27.5396 28.9843 27.2012 29.5443L26.9929 29.8957C25.3564 32.6343 23.8359 35.4407 22.4356 38.3073C20.8469 41.6017 19.3366 45.1433 17.9302 48.9193C17.8235 49.2071 17.6085 49.4417 17.3312 49.5731C17.0539 49.7045 16.7362 49.7223 16.4459 49.6227L16.1072 49.5053C5.23491 45.8073 1.09424 41.732 3.71157 37.2917C6.26357 32.9427 13.6856 29.7783 25.9902 27.7993ZM43.5942 14.5183C52.0709 7.10933 57.5656 5.63833 60.1049 10.0783C62.5916 14.427 61.6932 22.3177 57.4096 33.776C57.3161 34.0293 57.1362 34.2414 56.9016 34.375C56.3549 34.6877 55.6516 34.4923 55.3392 33.9323L55.1309 33.5807C53.5292 30.7423 51.8626 28.047 50.1309 25.4947C48.0866 22.487 45.7819 19.44 43.2166 16.3543C43.0213 16.1223 42.9255 15.8225 42.9499 15.5202C42.9743 15.2179 43.1169 14.9374 43.3469 14.7397L43.5942 14.5183ZM24.2842 7.57833C29.2192 7.57833 35.4952 12.2527 43.1126 21.5883C43.2801 21.7945 43.372 22.0519 43.3729 22.3177C43.3599 22.9557 42.8522 23.4637 42.2142 23.4637L41.8236 23.4503C38.6996 23.4363 35.5764 23.5493 32.4616 23.789C28.8809 24.0757 25.1439 24.5573 21.2506 25.2473C20.9557 25.2976 20.6529 25.2304 20.4071 25.06C20.1613 24.8896 19.992 24.6297 19.9356 24.336L19.8702 24.0103C17.7736 13.06 19.2449 7.57833 24.2842 7.57833ZM33.8546 26.953H46.1462C46.5177 26.9531 46.8827 27.0506 47.2048 27.2356C47.5269 27.4206 47.795 27.6868 47.9822 28.0077L54.1412 38.737C54.3205 39.0572 54.4147 39.4181 54.4147 39.7852C54.4147 40.1522 54.3205 40.5131 54.1412 40.8333L47.9822 51.5757C47.795 51.8965 47.527 52.1626 47.205 52.3476C46.8829 52.5327 46.518 52.6301 46.1466 52.6303H33.8549C33.0996 52.6303 32.3966 52.2267 32.0316 51.5757L25.8599 40.8333C25.6806 40.513 25.5864 40.1521 25.5864 39.785C25.5864 39.4179 25.6806 39.057 25.8599 38.7367L32.0319 28.0077C32.3962 27.3567 33.0996 26.953 33.8546 26.953ZM44.6229 29.5963C44.9944 29.5965 45.3594 29.6939 45.6815 29.8789C46.0036 30.064 46.2716 30.3302 46.4589 30.651L51.0942 38.737C51.2735 39.0572 51.3677 39.4181 51.3677 39.7852C51.3677 40.1522 51.2735 40.5131 51.0942 40.8333L46.4589 48.9323C46.2716 49.2532 46.0036 49.5194 45.6815 49.7044C45.3594 49.8894 44.9944 49.9869 44.6229 49.987H35.3782C34.6229 49.987 33.9199 49.5833 33.5552 48.9323L28.9069 40.8333C28.7276 40.513 28.6334 40.1521 28.6334 39.785C28.6334 39.4179 28.7276 39.057 28.9069 38.7367L33.5552 30.651C33.9199 30 34.6229 29.5963 35.3782 29.5963H44.6229ZM42.9822 32.487H37.0189C36.2636 32.487 35.5736 32.8777 35.1956 33.5417L32.2012 38.737C32.0219 39.0572 31.9278 39.4181 31.9278 39.7852C31.9278 40.1522 32.0219 40.5131 32.2012 40.8333L35.1959 46.0417C35.3804 46.362 35.6461 46.6282 35.9661 46.8133C36.2861 46.9984 36.6492 47.096 37.0189 47.0963H42.9822C43.352 47.0961 43.7152 46.9985 44.0353 46.8134C44.3553 46.6282 44.621 46.3621 44.8056 46.0417L47.7999 40.8333C47.9793 40.513 48.0734 40.1521 48.0734 39.785C48.0734 39.4179 47.9793 39.057 47.7999 38.7367L44.8052 33.5417C44.4276 32.8777 43.7376 32.487 42.9822 32.487ZM41.3939 35.2473C42.1489 35.2473 42.8522 35.651 43.2166 36.302L44.6232 38.737C45.0006 39.388 45.0006 40.1953 44.6232 40.8333L43.2166 43.2813C42.8522 43.9323 42.1489 44.336 41.3939 44.336H38.6072C38.2376 44.3357 37.8745 44.238 37.5546 44.0529C37.2346 43.8677 36.9691 43.6016 36.7846 43.2813L35.3779 40.8333C35.0006 40.1953 35.0006 39.388 35.3779 38.7367L36.7846 36.302C36.9691 35.9817 37.2346 35.7156 37.5546 35.5304C37.8745 35.3453 38.2376 35.2477 38.6072 35.2473H41.3939ZM40.0006 37.9687C39.6812 37.9696 39.3676 38.0543 39.0911 38.2142C38.8146 38.3742 38.5849 38.6039 38.4249 38.8803C38.0996 39.4403 38.0996 40.1303 38.4249 40.703C38.5856 40.9779 38.8158 41.2056 39.0924 41.3633C39.369 41.5211 39.6822 41.6033 40.0006 41.6017C40.319 41.6033 40.6322 41.5211 40.9087 41.3633C41.1853 41.2056 41.4155 40.9779 41.5762 40.703C41.9016 40.1303 41.9016 39.44 41.5762 38.8803C41.4162 38.6038 41.1865 38.3741 40.9099 38.2141C40.6334 38.0542 40.32 37.9695 40.0006 37.9687ZM25.2609 39.7917H28.5292ZM63.2686 25.8333C64.5706 19.5183 64.8569 14.6873 64.0106 11.172C63.5159 9.07533 62.6046 7.38266 61.2112 6.14599C59.7399 4.84366 57.8779 4.20599 55.7946 4.20599C52.3439 4.20599 48.7242 5.78133 44.8569 8.76299C43.2816 9.97399 41.6409 11.4453 39.9482 13.151C39.8049 12.9817 39.6616 12.8127 39.4926 12.6693C34.6746 8.38533 30.6252 5.72933 27.1616 4.70066C25.1046 4.08866 23.1772 4.03633 21.4196 4.62233C19.5576 5.24733 18.0729 6.53633 17.0316 8.34633C15.3129 11.328 14.8569 15.2603 15.4949 20.1043C15.7556 22.0703 16.2112 24.2187 16.8362 26.5493C16.5929 26.5779 16.353 26.6304 16.1199 26.706C10.0269 28.7367 5.70357 30.898 3.08624 33.385C1.53657 34.8563 0.52124 36.51 0.143574 38.32C-0.234093 40.247 0.143574 42.174 1.18524 43.984C2.90391 46.9657 6.06791 49.3097 10.5732 51.1717C12.3832 51.9137 14.4272 52.5907 16.7189 53.2027C16.6118 53.4445 16.5331 53.698 16.4846 53.958C15.1826 60.26 14.8962 65.104 15.7426 68.6063C16.2372 70.703 17.1616 72.4087 18.5419 73.6323C20.0132 74.9347 21.8752 75.5723 23.9586 75.5723C27.4092 75.5723 31.0286 73.997 34.8962 71.0283C36.4846 69.7913 38.1382 68.307 39.8569 66.575C40.0416 66.8529 40.2602 67.1067 40.5079 67.3303C45.3259 71.6143 49.3752 74.2703 52.8389 75.299C54.8962 75.911 56.8232 75.9633 58.5809 75.3773C60.4429 74.7523 61.9276 73.4633 62.9689 71.6533C64.6879 68.6717 65.1436 64.7393 64.5056 59.8957C64.2322 57.8513 63.7632 55.6247 63.0862 53.1897C63.3555 53.1641 63.6216 53.1118 63.8806 53.0337C69.9739 51.0023 74.2972 48.841 76.9142 46.3537C78.4639 44.8827 79.4796 43.229 79.8569 41.419C80.2346 39.492 79.8569 37.5647 78.8152 35.755C77.0966 32.773 73.9326 30.4293 69.4272 28.5673C67.5652 27.7993 65.4429 27.096 63.0732 26.484C63.1638 26.2755 63.2294 26.0573 63.2686 25.8333Z" fill="white"/>
</svg>
