<svg width="80" height="80" viewBox="0 0 80 80" fill="none" xmlns="http://www.w3.org/2000/svg">
<g clip-path="url(#clip0_14_38)">
<path d="M35.9182 57.8257H19.3552C19.232 57.8257 19.1099 57.8499 18.9961 57.8971C18.8823 57.9442 18.7788 58.0134 18.6917 58.1005C18.6045 58.1876 18.5354 58.2911 18.4883 58.4049C18.4411 58.5188 18.4168 58.6408 18.4168 58.764C18.4168 58.8872 18.4411 59.0092 18.4883 59.1231C18.5354 59.2369 18.6045 59.3404 18.6917 59.4275C18.7788 59.5146 18.8823 59.5837 18.9961 59.6309C19.1099 59.6781 19.232 59.7023 19.3552 59.7023H35.9182C36.0414 59.7023 36.1634 59.6781 36.2773 59.6309C36.3911 59.5837 36.4945 59.5146 36.5817 59.4275C36.6688 59.3404 36.7379 59.2369 36.7851 59.1231C36.8322 59.0092 36.8565 58.8872 36.8565 58.764C36.8565 58.6408 36.8322 58.5188 36.7851 58.4049C36.7379 58.2911 36.6688 58.1876 36.5817 58.1005C36.4945 58.0134 36.3911 57.9442 36.2773 57.8971C36.1634 57.8499 36.0414 57.8257 35.9182 57.8257ZM60.3165 57.8257H43.7538C43.6306 57.8257 43.5086 57.8499 43.3948 57.8971C43.2809 57.9442 43.1775 58.0134 43.0903 58.1005C43.0032 58.1876 42.9341 58.2911 42.8869 58.4049C42.8398 58.5188 42.8155 58.6408 42.8155 58.764C42.8155 58.8872 42.8398 59.0092 42.8869 59.1231C42.9341 59.2369 43.0032 59.3404 43.0903 59.4275C43.1775 59.5146 43.2809 59.5837 43.3948 59.6309C43.5086 59.6781 43.6306 59.7023 43.7538 59.7023H60.3165C60.5654 59.7023 60.804 59.6035 60.98 59.4275C61.156 59.2515 61.2548 59.0129 61.2548 58.764C61.2548 58.5151 61.156 58.2765 60.98 58.1005C60.804 57.9245 60.5654 57.8257 60.3165 57.8257ZM35.8712 36.2423H19.3552C19.1063 36.2423 18.8677 36.3412 18.6917 36.5172C18.5157 36.6931 18.4168 36.9318 18.4168 37.1807C18.4168 37.4295 18.5157 37.6682 18.6917 37.8442C18.8677 38.0201 19.1063 38.119 19.3552 38.119H35.8712C36.12 38.119 36.3587 38.0201 36.5347 37.8442C36.7107 37.6682 36.8095 37.4295 36.8095 37.1807C36.8095 36.9318 36.7107 36.6931 36.5347 36.5172C36.3587 36.3412 36.12 36.2423 35.8712 36.2423ZM60.2695 36.2423H43.7538C43.505 36.2423 43.2663 36.3412 43.0903 36.5172C42.9144 36.6931 42.8155 36.9318 42.8155 37.1807C42.8155 37.4295 42.9144 37.6682 43.0903 37.8442C43.2663 38.0201 43.505 38.119 43.7538 38.119H60.2695C60.5184 38.119 60.757 38.0201 60.933 37.8442C61.109 37.6682 61.2079 37.4295 61.2079 37.1807C61.2079 36.9318 61.109 36.6931 60.933 36.5172C60.757 36.3412 60.5184 36.2423 60.2695 36.2423ZM62.1089 5.57533H47.6388C47.1218 3.95669 46.1037 2.54429 44.7315 1.5421C43.3593 0.539912 41.7041 -0.000183105 40.0048 -0.000183105C38.3056 -0.000183105 36.6504 0.539912 35.2782 1.5421C33.906 2.54429 32.8879 3.95669 32.3708 5.57533H17.8915C12.1905 5.57533 7.56885 10.1967 7.56885 15.8977V69.6777C7.56885 75.3783 12.1905 80 17.8915 80H62.1089C67.8099 80 72.4315 75.3783 72.4315 69.6777V15.8977C72.4315 10.1967 67.8099 5.57533 62.1089 5.57533ZM33.0935 7.45199C33.3117 7.45685 33.5248 7.38547 33.6961 7.25017C33.8673 7.11486 33.9861 6.92407 34.0318 6.71066C34.3299 5.3419 35.0872 4.1163 36.178 3.23743C37.2689 2.35856 38.6275 1.87932 40.0283 1.87932C41.4292 1.87932 42.7878 2.35856 43.8787 3.23743C44.9695 4.1163 45.7268 5.3419 46.0248 6.71066C46.0706 6.92407 46.1894 7.11486 46.3606 7.25017C46.5319 7.38547 46.745 7.45685 46.9632 7.45199H52.0118V13.5987C52.0118 14.3453 51.7152 15.0614 51.1873 15.5894C50.6593 16.1174 49.9432 16.414 49.1965 16.414H30.8508C30.1042 16.414 29.3881 16.1174 28.8601 15.5894C28.3321 15.0614 28.0355 14.3453 28.0355 13.5987V7.45199H33.0935ZM70.5545 69.6777C70.5545 74.342 66.7732 78.1233 62.1089 78.1233H17.8915C13.2272 78.1233 9.44585 74.342 9.44585 69.6777V15.8977C9.44585 11.2333 13.2272 7.45199 17.8915 7.45199H26.1588V13.5987C26.1588 16.19 28.2595 18.2907 30.8508 18.2907H49.1495C51.7408 18.2907 53.8415 16.19 53.8415 13.5987V7.45199H62.1089C66.7732 7.45199 70.5545 11.2333 70.5545 15.8977V69.6777Z" fill="white"/>
</g>
<defs>
<clipPath id="clip0_14_38">
<rect width="80" height="80" fill="white"/>
</clipPath>
</defs>
</svg>
