<svg width="80" height="80" viewBox="0 0 80 80" fill="none" xmlns="http://www.w3.org/2000/svg">
<path d="M47.4333 40.0133C47.4333 41.9895 46.6485 43.8848 45.2515 45.2825C43.8544 46.6801 41.9595 47.4658 39.9833 47.4667C38.0066 47.4667 36.1108 46.6814 34.713 45.2836C33.3153 43.8859 32.53 41.9901 32.53 40.0133C32.53 38.0372 33.3148 36.1419 34.7119 34.7442C36.1089 33.3465 38.0038 32.5609 39.98 32.56C41.9567 32.56 43.8525 33.3453 45.2503 34.743C46.6481 36.1408 47.4333 38.0366 47.4333 40.0133ZM56.26 4.38C51.7733 4.38 45.9033 7.58001 39.9667 13.12C34.0333 7.61001 28.16 4.44667 23.6767 4.44667C22.31 4.44667 21.0667 4.75667 19.99 5.37334C15.4067 8.01667 14.38 16.2533 16.7467 26.59C6.6 29.7233 0 34.7333 0 40.0133C0 45.3133 6.63333 50.3367 16.81 53.4467C14.4633 63.8233 15.51 72.0733 20.1033 74.7133C21.17 75.3367 22.4033 75.63 23.7767 75.63C28.26 75.63 34.1333 72.43 40.07 66.8833C46.0033 72.3967 51.8767 75.56 56.36 75.56C57.7267 75.56 58.97 75.26 60.0467 74.6433C64.6267 72.0033 65.6567 63.7667 63.29 53.4267C73.4 50.32 80 45.3 80 40.0133C80 34.7133 73.3667 29.69 63.19 26.5733C65.5367 16.2067 64.49 7.95 59.8967 5.30667C58.8367 4.69334 57.6067 4.38334 56.26 4.38ZM56.2433 8.01334V8.03334C56.9933 8.03334 57.5967 8.18 58.1033 8.45667C60.3233 9.73 61.2867 14.5733 60.5367 20.8033C60.3567 22.3367 60.0633 23.9533 59.7033 25.6033C56.5033 24.8167 53.0167 24.2133 49.3467 23.8233C47.1467 20.8067 44.8633 18.0667 42.5633 15.6667C47.87 10.7333 52.8533 8.02667 56.2467 8.01667L56.2433 8.01334ZM23.6767 8.08C27.05 8.08 32.0567 10.7733 37.3767 15.68C35.09 18.08 32.81 20.8033 30.6433 23.82C26.9533 24.21 23.4633 24.8133 20.2667 25.6133C19.8933 23.98 19.6167 22.4 19.42 20.88C18.6533 14.6533 19.6 9.81334 21.8 8.52334C22.4333 8.22334 23.1333 8.09667 23.6767 8.08ZM39.95 18.2467C41.4667 19.8067 42.9833 21.5533 44.4833 23.46C43.0167 23.3933 41.5167 23.3467 40 23.3467C38.4667 23.3467 36.95 23.38 35.4667 23.46C36.9333 21.5533 38.45 19.81 39.95 18.2467ZM40 27C42.4667 27 44.9233 27.1133 47.34 27.31C48.6933 29.25 50.0133 31.32 51.2833 33.51C52.5233 35.6433 53.65 37.81 54.6767 39.9967C53.65 42.18 52.5233 44.3633 51.3 46.4967C50.0333 48.6967 48.7233 50.79 47.3667 52.73C44.94 52.94 42.48 53.0567 40 53.0567C37.5333 53.0567 35.0767 52.94 32.66 52.7467C31.3067 50.8067 29.9867 48.7333 28.7167 46.5467C27.4767 44.4133 26.35 42.2467 25.3233 40.06C26.3333 37.87 27.4767 35.6833 28.7 33.5467C29.9667 31.3467 31.2767 29.26 32.6333 27.32C35.06 27.1067 37.52 26.9933 40 26.9933V27ZM27.8833 27.8467C27.0833 29.1033 26.2833 30.39 25.5367 31.7133C24.7867 33.0133 24.0867 34.32 23.42 35.6267C22.5367 33.44 21.7867 31.26 21.1667 29.1367C23.3 28.6367 25.55 28.19 27.8833 27.8467ZM52.0833 27.8467C54.4 28.19 56.6333 28.6133 58.77 29.1367C58.17 31.2433 57.42 33.41 56.57 35.58C55.9033 34.28 55.2033 32.97 54.4367 31.6667C53.6867 30.36 52.8867 29.0867 52.0867 27.8467H52.0833ZM62.2933 30.0967C63.9067 30.5967 65.44 31.1533 66.8767 31.7567C72.65 34.2233 76.3833 37.45 76.3833 40.01C76.3667 42.57 72.6333 45.81 66.86 48.26C65.46 48.86 63.9267 49.4 62.3433 49.9033C61.41 46.71 60.19 43.3833 58.6767 39.97C60.1767 36.58 61.3767 33.27 62.2933 30.09V30.0967ZM17.6433 30.11C18.57 33.31 19.7933 36.6333 21.31 40.0433C19.81 43.4333 18.6033 46.7433 17.69 49.9233C16.0767 49.4233 14.5433 48.8633 13.1233 48.2567C7.35 45.8 3.61667 42.57 3.61667 40.01C3.61667 37.45 7.35 34.2033 13.1233 31.7567C14.5233 31.1567 16.0567 30.6167 17.6433 30.11ZM56.57 44.3767C57.4533 46.5667 58.2033 48.75 58.8233 50.87C56.69 51.3933 54.4367 51.8367 52.1033 52.17C52.9033 50.92 53.7033 49.63 54.4533 48.31C55.2033 47.01 55.9 45.6833 56.57 44.3767ZM23.42 44.4433C24.0867 45.75 24.7867 47.0533 25.5533 48.36C26.32 49.66 27.1033 50.9333 27.9033 52.17C25.5867 51.83 23.3533 51.4033 21.2167 50.8833C21.8167 48.7833 22.57 46.61 23.4167 44.44L23.42 44.4433ZM59.7333 54.4C60.1067 56.0433 60.4 57.6267 60.58 59.1433C61.3467 65.37 60.4 70.21 58.2 71.5033C57.71 71.8033 57.0733 71.93 56.3233 71.93C52.95 71.93 47.9433 69.24 42.6233 64.33C44.91 61.93 47.19 59.21 49.3567 56.1967C53.0467 55.8033 56.5367 55.2 59.7333 54.4ZM20.3 54.4333C23.5 55.2133 26.9867 55.8167 30.6567 56.2067C32.8567 59.2233 35.14 61.9633 37.44 64.36C32.1233 69.3033 27.1333 72.01 23.74 72.01C23.0067 71.9933 22.3867 71.8433 21.8967 71.57C19.6767 70.3033 18.7133 65.4567 19.4633 59.2267C19.6433 57.6933 19.94 56.08 20.3 54.4333ZM35.5 56.5667C36.9667 56.6333 38.4667 56.68 39.9833 56.68C41.5167 56.68 43.0333 56.6467 44.5167 56.5667C43.05 58.4733 41.5333 60.2167 40.0333 61.7833C38.5167 60.2167 37 58.4733 35.5 56.5667Z" fill="white"/>
</svg>
