<svg width="80" height="80" viewBox="0 0 80 80" fill="none" xmlns="http://www.w3.org/2000/svg">
<path d="M35 8.87L36.8 12.1933L30.81 14.34L38.84 15.0667L41.3333 19.22L42.89 15.4833L49.8133 14.79L44.4467 12.7467L45.8667 9.35666L40.6067 11.0867L35 8.87ZM58.0167 15.7933L45.8667 20.6067L56.84 24.9333L58.0167 24.4467L68.9933 20.12L58.0167 15.7933ZM22.9833 16.8333C20.3592 16.8333 17.8424 17.2378 15.986 17.9578C14.1296 18.6779 13.0856 19.6546 13.0833 20.6733C13.0833 21.6926 14.1264 22.6702 15.983 23.391C17.8396 24.1117 20.3577 24.5167 22.9833 24.5167C25.609 24.5167 28.1271 24.1117 29.9837 23.391C31.8403 22.6702 32.8833 21.6926 32.8833 20.6733C32.8811 19.6546 31.837 18.6779 29.9807 17.9578C28.1243 17.2378 25.6075 16.8333 22.9833 16.8333ZM80 22.6833C80 22.6833 50.0567 36.9433 45.35 39.1933C41.2633 41.0633 39.0133 41.0633 34.48 39.5067C27.7267 36.74 0 24.1367 0 24.1367V27.5967C0 28.3967 1.10667 29.26 3.22 30.2633C7.47667 32.3067 31.02 42.52 34.72 44.2833C38.4267 46.05 41.0533 46.0833 45.7633 43.6267C50.47 41.1667 72.5933 30.61 76.85 28.3933C79.03 27.2533 80 26.3867 80 25.5933V22.6833ZM46.5267 24.69L27.9667 27.5333L40.9133 32.9L46.5267 24.69ZM80 35.4567C80 35.4567 50.0567 49.72 45.35 51.97C41.2633 53.8367 39.0133 53.8367 34.48 52.28C27.7267 49.5133 0 36.9133 0 36.9133V40.3733C0 41.1667 1.10667 42.0333 3.22 43.04C7.47667 45.08 31.02 55.2933 34.72 57.0567C38.4267 58.8233 41.0533 58.8567 45.7633 56.4C50.47 53.9433 72.5933 43.3833 76.85 41.1667C79.03 40.06 80 39.16 80 38.3667V35.4567ZM80 48.2633L45.35 64.7767C41.2633 66.6433 39.0133 66.6433 34.48 65.09C27.7267 62.32 0 49.72 0 49.72V53.18C0 53.9767 1.10667 54.8433 3.22 55.8467C7.47667 57.89 31.02 68.1 34.72 69.8667C38.4267 71.6333 41.0533 71.6667 45.7633 69.2067C50.47 66.75 72.5933 56.1933 76.85 53.9767C79.03 52.8333 80 51.9333 80 51.1733V48.2633Z" fill="white"/>
</svg>
