<svg width="80" height="80" viewBox="0 0 80 80" fill="none" xmlns="http://www.w3.org/2000/svg">
<g clip-path="url(#clip0_6_678)">
<path d="M55.4466 55.0133C58.3466 54.7633 60.59 52.2133 60.4466 49.1667C60.29 46.12 57.7933 43.6733 54.75 43.6733H54.5466C53.0363 43.7272 51.6093 44.3786 50.5791 45.4844C49.549 46.5901 49.0002 48.0597 49.0533 49.57C49.1533 51.1667 49.8066 52.4667 50.7 53.4133C47.2066 60.2067 41.9633 65.2 34.0166 69.3967C28.6733 72.19 23.03 73.2433 17.5366 72.4967C12.9433 71.8467 9.34995 69.7967 7.14995 66.5C3.85662 61.5033 3.55662 56.1133 6.29995 50.72C8.29995 46.82 11.2966 43.9767 13.2966 42.5767C12.6929 40.9025 12.2247 39.1825 11.8966 37.4333C-2.89338 48.0267 -1.38671 62.5067 3.10662 69.35C6.45329 74.3433 13.2966 77.5367 20.7866 77.5367C22.7866 77.5367 24.8866 77.39 26.93 76.89C39.92 74.3933 49.7566 66.6033 55.4 55.1167L55.4466 55.0133ZM73.2733 42.5267C65.54 33.4333 54.1466 28.44 41.16 28.44H39.46C38.6166 26.5933 36.67 25.4433 34.4666 25.4433H34.3166C31.1733 25.4433 28.7233 28.1433 28.8266 31.2867C28.9266 34.28 31.4733 36.78 34.52 36.78H34.7666C35.8473 36.7383 36.893 36.3864 37.7791 35.7663C38.6651 35.1463 39.3539 34.2843 39.7633 33.2833H41.6133C49.31 33.2833 56.5966 35.53 63.24 39.9233C68.33 43.2733 71.98 47.6667 74.03 52.9133C75.8233 57.2067 75.7266 61.4033 73.88 64.9033C71.03 70.3933 66.2333 73.2933 59.8933 73.2933C55.8966 73.2933 52.0033 72.0433 50.0033 71.1467C48.8033 72.14 46.8033 73.79 45.3566 74.79C49.75 76.7833 54.1966 77.9333 58.49 77.9333C68.23 77.9333 75.47 72.4433 78.22 67.1467C81.2133 61.1533 80.9666 51.0667 73.32 42.4267L73.2733 42.5267ZM21.6333 56.8067C21.7333 59.8033 24.2766 62.3 27.3266 62.3H27.5266C28.2772 62.2831 29.0168 62.1161 29.7019 61.8089C30.387 61.5017 31.0036 61.0605 31.5156 60.5113C32.0275 59.9621 32.4243 59.316 32.6827 58.6111C32.9411 57.9061 33.0557 57.1566 33.02 56.4067C33.02 53.4067 30.4233 50.9167 27.3766 50.9167H27.1766C26.9766 50.9167 26.6766 50.9167 26.4233 51.0133C22.28 44.02 20.53 36.5233 21.1833 28.44C21.5833 22.3467 23.5833 17.05 27.1733 12.6567C30.1733 8.91001 35.8166 7.05668 39.6633 6.96335C50.45 6.76001 54.9466 20.2 55.2933 25.5433L60.2866 27.0433C59.1366 10.6567 48.9533 2.06668 39.2133 2.06668C30.0666 2.06668 21.6333 8.71001 18.2333 18.45C13.59 31.4333 16.6366 43.9233 22.3333 53.9133C21.8333 54.5633 21.5333 55.71 21.6333 56.8067Z" fill="white"/>
</g>
<defs>
<clipPath id="clip0_6_678">
<rect width="80" height="80" fill="white"/>
</clipPath>
</defs>
</svg>
