<svg width="80" height="80" viewBox="0 0 80 80" fill="none" xmlns="http://www.w3.org/2000/svg">
<g clip-path="url(#clip0_6_680)">
<path d="M40 0C62.09 0 80 17.91 80 40C80 62.09 62.09 80 40 80C17.91 80 0 62.09 0 40C0 17.91 17.91 0 40 0ZM32.05 53.3267C32.6333 55.4767 32.57 57.4867 31.97 59.3L31.7533 59.9C31.6733 60.1033 31.58 60.3 31.4933 60.4867C31.0267 61.4533 30.4067 62.3533 29.6433 63.1867C27.3167 65.7167 24.07 66.6767 22.6767 65.87C21.1767 64.9967 21.9233 61.42 24.6233 58.57C27.5267 55.51 31.69 53.54 31.69 53.54V53.53L32.05 53.3267ZM65.0867 17.1233C63.28 10.0133 51.4967 7.67667 40.3467 11.64C33.7167 13.9967 26.5333 17.7 21.37 22.53C15.2267 28.2667 14.25 33.2667 14.6533 35.3567C16.0767 42.7267 26.1767 47.5467 30.33 51.1233V51.1433C29.1067 51.7433 20.1433 56.24 18.0433 60.8933C15.7933 65.7933 18.3933 69.2967 20.0933 69.7433C25.3433 71.1967 30.7433 68.5433 33.6433 64.2467C36.4433 60.0433 36.1967 54.6433 34.99 51.9933C36.6433 51.5433 38.59 51.3433 41.09 51.6467C48.0933 52.4467 49.4933 56.8467 49.19 58.6467C48.89 60.4433 47.4467 61.4933 46.9433 61.7933C46.4433 62.0967 46.2933 62.1933 46.34 62.3967C46.39 62.6967 46.6433 62.6967 47.04 62.6467C47.59 62.5467 50.6933 61.1467 50.8433 57.7433C50.9933 53.4433 46.89 48.6467 39.5933 48.7433C36.5933 48.7967 34.69 49.0467 33.3433 49.5967C33.2433 49.4467 33.14 49.3467 32.9933 49.2467C28.4933 44.3967 20.1433 40.9967 20.4933 34.5467C20.5933 32.1967 21.4433 26 36.4933 18.5C48.8433 12.3467 58.6967 14.05 60.3967 17.8C62.84 23.1467 55.1433 33.1 42.2933 34.5467C37.3933 35.0967 34.8433 33.2 34.19 32.4967C33.4933 31.7467 33.3933 31.6967 33.1433 31.85C32.7433 32.05 32.9933 32.7 33.1433 33.1C33.5433 34.1 35.0933 35.85 37.7967 36.75C40.1433 37.5 45.8967 37.9467 52.7967 35.25C60.5433 32.2533 66.5933 23.9 64.8433 16.9L65.0867 17.1233Z" fill="white"/>
</g>
<defs>
<clipPath id="clip0_6_680">
<rect width="80" height="80" fill="white"/>
</clipPath>
</defs>
</svg>
