<svg width="80" height="80" viewBox="0 0 80 80" fill="none" xmlns="http://www.w3.org/2000/svg">
<g clip-path="url(#clip0_6_718)">
<path d="M39.7873 0.0456913C36.4426 0.0552864 33.112 0.478499 29.8713 1.30569C14.2719 5.18236 1.89261 19.3147 0.305939 35.3374C-1.66073 50.5 5.99894 66.2894 19.1183 74.119C31.9876 82.1787 49.4269 81.852 62.0296 73.3757C73.3526 66.0224 80.4023 52.6167 79.9823 39.094C79.7889 25.7077 72.2823 12.705 60.7863 5.82869C54.5133 1.95869 47.1436 0.0156913 39.7873 0.0456913ZM39.5773 5.69902C56.0599 5.67569 72.2059 18.4114 73.8489 35.4474C76.9989 54.313 61.3396 73.489 42.2239 74.0457C24.0446 75.859 6.47561 60.4464 5.95894 42.1904C4.60227 27.411 14.3453 12.7417 28.2846 7.85869C31.8772 6.4275 35.7101 5.6925 39.5773 5.69902ZM56.5466 16.4484C47.5903 23.398 39.0139 30.8077 30.2513 37.9707C34.2609 38.0274 38.2906 38.024 42.3206 38.004C47.0206 30.7874 51.8503 23.668 56.5466 16.4484ZM37.6643 41.9604C32.9643 49.1804 28.1309 56.323 23.4313 63.5394C32.4079 56.6064 40.9473 49.14 49.7703 42.0204C45.7351 41.9717 41.6997 41.9517 37.6643 41.9604Z" fill="white"/>
</g>
<defs>
<clipPath id="clip0_6_718">
<rect width="80" height="80" fill="white"/>
</clipPath>
</defs>
</svg>
