<svg width="80" height="80" viewBox="0 0 80 80" fill="none" xmlns="http://www.w3.org/2000/svg">
<g clip-path="url(#clip0_7_36)">
<path d="M55.7 0.810021L55.3 9.84336C55.2952 9.95762 55.3231 10.0709 55.3804 10.1698C55.4378 10.2688 55.5222 10.3492 55.6238 10.4018C55.7254 10.4543 55.8399 10.4767 55.9538 10.4664C56.0677 10.456 56.1762 10.4133 56.2667 10.3434L59.8 7.67669L62.8 10.01C62.8881 10.0691 62.9903 10.1038 63.0961 10.1105C63.2019 10.1172 63.3077 10.0958 63.4025 10.0483C63.4974 10.0009 63.578 9.9292 63.6361 9.84049C63.6942 9.75178 63.7278 9.64926 63.7334 9.54335L63.4 0.343355L67.8334 0.0100212C68.3804 -0.0260701 68.929 0.050664 69.4451 0.23546C69.9612 0.420255 70.4338 0.709168 70.8336 1.08426C71.2334 1.45935 71.5518 1.91262 71.7691 2.41592C71.9864 2.91923 72.0979 3.46182 72.0967 4.01002V75.9967C72.0974 76.5392 71.9877 77.0763 71.7743 77.5751C71.5608 78.0739 71.2482 78.5241 70.8553 78.8982C70.4624 79.2724 69.9975 79.5628 69.4889 79.7516C68.9803 79.9404 68.4386 80.0238 67.8967 79.9967L14.2434 77.5967C13.2343 77.5551 12.2783 77.1334 11.5673 76.4162C10.8562 75.699 10.4428 74.7394 10.41 73.73L7.91002 7.74002C7.87847 7.21454 7.95096 6.68799 8.12333 6.19058C8.2957 5.69316 8.56456 5.23466 8.91449 4.84137C9.26443 4.44808 9.68856 4.12774 10.1626 3.8987C10.6366 3.66967 11.1511 3.53645 11.6767 3.50669L55.6667 0.740021L55.7 0.810021ZM45.4667 31C45.4667 32.5667 56 31.8 57.4334 30.7334C57.4334 20.0667 51.7 14.4334 41.2367 14.4334C30.7367 14.4334 24.9067 20.1667 24.9067 28.7334C24.9067 43.5667 44.9034 43.8334 44.9034 51.93C44.9034 54.2634 43.8367 55.5967 41.4034 55.5967C38.2034 55.5967 36.9034 53.9634 37.07 48.3967C37.07 47.1967 24.9067 46.7967 24.5067 48.3967C23.6067 61.83 31.94 65.73 41.5034 65.73C50.8034 65.73 58.0667 60.7634 58.0667 51.7967C58.0667 35.8967 37.7367 36.33 37.7367 28.4667C37.7367 25.2334 40.1367 24.8 41.5034 24.8C43.0034 24.8 45.67 25.0334 45.47 31.0334L45.4667 31Z" fill="white"/>
</g>
<defs>
<clipPath id="clip0_7_36">
<rect width="80" height="80" fill="white"/>
</clipPath>
</defs>
</svg>
