<svg width="80" height="80" viewBox="0 0 80 80" fill="none" xmlns="http://www.w3.org/2000/svg">
<g clip-path="url(#clip0_13_35)">
<path d="M40 0C17.9433 0 0 17.9433 0 40C0 62.0567 17.9433 80 40 80C62.0533 80 80 62.0567 80 40C80 17.9433 62.0533 0 40 0ZM40 3.81333C59.9833 3.81333 76.1867 20.0133 76.1867 40C76.1867 59.9833 59.9867 76.1867 40 76.1867C20.0133 76.1867 3.81333 59.9867 3.81333 40C3.81333 20.0133 20.0133 3.81333 40 3.81333ZM27.9 19.56C27.4299 19.5507 26.9597 19.5563 26.49 19.5767C23.2133 19.7633 21.2467 21.3 20.7067 24.4833C20.3233 26.7 20.3867 28.9767 20.23 31.2067C20.1867 32.3733 20.0633 33.53 19.8467 34.6667C19.4 36.6967 18.5233 37.3267 16.46 37.4333C16.1869 37.4673 15.9154 37.514 15.6467 37.5733V42.45C19.4 42.6333 19.9067 43.9567 20.2133 47.88C20.3233 49.31 20.17 50.74 20.2633 52.17C20.3233 53.5233 20.5067 54.8633 20.7833 56.17C21.6467 59.7533 25.14 60.9533 29.3667 60.23V55.9533C28.69 55.9533 28.09 55.97 27.5067 55.9533C26.0733 55.91 25.5367 55.5533 25.4 54.17C25.2133 52.3867 25.26 50.57 25.15 48.77C24.9367 45.4333 24.5667 42.1433 21.3067 40.02C22.9833 38.7867 24.2 37.3133 24.5833 35.36C24.86 33.9933 25.03 32.6233 25.1367 31.2367C25.23 29.8533 25.06 28.4367 25.1833 27.07C25.3833 24.8533 25.5233 23.9467 28.1833 24.0367C28.5833 24.0367 28.9667 23.98 29.4133 23.9467V19.58C28.88 19.58 28.38 19.5667 27.9 19.56ZM53.21 19.59C52.3023 19.5696 51.3948 19.6366 50.5 19.79V24.0367C51.3167 24.0367 51.9467 24.0367 52.5767 24.0533C53.67 24.0667 54.5 24.4867 54.61 25.7C54.7167 26.8067 54.7133 27.93 54.8233 29.0533C55.04 31.2833 55.16 33.5433 55.5467 35.7433C55.8867 37.5567 57.13 38.91 58.6833 40.02C55.96 41.85 55.16 44.4633 55.0233 47.4033C54.9467 49.4167 54.9 51.4467 54.7933 53.4767C54.7 55.3233 54.0533 55.9233 52.1933 55.97C51.67 55.9833 51.16 56.03 50.58 56.0633V60.4133C51.67 60.4133 52.67 60.4767 53.67 60.4133C56.7767 60.23 58.6533 58.7233 59.27 55.7067C59.53 54.0467 59.6833 52.3733 59.73 50.6933C59.8367 49.1567 59.8233 47.6033 59.9767 46.08C60.2067 43.6967 61.3 42.7133 63.6833 42.5567C63.9092 42.529 64.1316 42.4776 64.3467 42.4033V37.5267C63.9467 37.48 63.6667 37.4367 63.3767 37.42C61.59 37.3433 60.6967 36.7433 60.2533 35.0533C59.9769 33.9692 59.8072 32.8605 59.7467 31.7433C59.6233 29.6833 59.6367 27.6067 59.5 25.5433C59.2333 21.57 56.8533 19.7 53.21 19.59ZM30.2433 37.19C29.5206 37.1892 28.8253 37.4666 28.3016 37.9646C27.7779 38.4626 27.4659 39.143 27.4303 39.8648C27.3947 40.5867 27.6383 41.2945 28.1105 41.8416C28.5827 42.3887 29.2474 42.7331 29.9667 42.8033H30.15C30.8824 42.8461 31.6019 42.5963 32.1501 42.1087C32.6983 41.6211 33.0304 40.9357 33.0733 40.2033V40.05C33.0849 39.3041 32.8001 38.584 32.2814 38.0479C31.7628 37.5117 31.0526 37.2032 30.3067 37.19H30.2433ZM39.9467 37.19C39.2334 37.1666 38.5399 37.4273 38.0187 37.9148C37.4975 38.4023 37.191 39.0767 37.1667 39.79C37.1667 39.88 37.1667 39.9567 37.18 40.05C37.18 41.7267 38.32 42.8033 40.0433 42.8033C41.7333 42.8033 42.7967 41.6967 42.7967 39.96C42.78 38.2833 41.6567 37.1733 39.9467 37.19ZM49.8233 37.19C49.0683 37.1765 48.3384 37.4611 47.7918 37.9821C47.2452 38.5031 46.926 39.2185 46.9033 39.9733C46.9033 41.54 48.1633 42.8033 49.7333 42.8033H49.7633C51.18 43.05 52.6067 41.68 52.7 40.0367C52.7767 38.5133 51.3933 37.19 49.8233 37.19Z" fill="white"/>
</g>
<defs>
<clipPath id="clip0_13_35">
<rect width="80" height="80" fill="white"/>
</clipPath>
</defs>
</svg>
