<svg width="50" height="50" viewBox="0 0 50 50" fill="none" xmlns="http://www.w3.org/2000/svg">
<path d="M0 25C0 11.1929 11.1929 0 25 0C38.8071 0 50 11.1929 50 25C50 38.8071 38.8071 50 25 50C11.1929 50 0 38.8071 0 25Z" fill="black"/>
<path fill-rule="evenodd" clip-rule="evenodd" d="M30.565 36.1631C30.9339 36.4243 31.4094 36.4896 31.8334 36.3292C32.2573 36.1677 32.569 35.8056 32.663 35.3668C33.6587 30.6873 36.074 18.8431 36.9804 14.5864C37.0491 14.2656 36.9345 13.9321 36.6824 13.7179C36.4304 13.5036 36.0809 13.4417 35.7692 13.5575C30.9649 15.3358 16.1691 20.8872 10.1215 23.125C9.73764 23.267 9.48785 23.636 9.50046 24.0405C9.51421 24.4461 9.78691 24.7978 10.1799 24.9158C12.892 25.7271 16.4521 26.8557 16.4521 26.8557C16.4521 26.8557 18.1158 31.8801 18.9832 34.4352C19.092 34.756 19.3429 35.0081 19.6741 35.0952C20.0041 35.1811 20.357 35.0906 20.6033 34.858C21.9966 33.5426 24.1507 31.5088 24.1507 31.5088C24.1507 31.5088 28.2436 34.5097 30.565 36.1631ZM17.9496 26.2209L19.8734 32.5664L20.3008 28.5481C20.3008 28.5481 27.7337 21.8439 31.9709 18.0227C32.0946 17.9104 32.1118 17.7225 32.0087 17.5907C31.9067 17.4589 31.7188 17.428 31.5779 17.5174C26.6669 20.6534 17.9496 26.2209 17.9496 26.2209Z" fill="white"/>
</svg>
