<svg width="80" height="80" viewBox="0 0 80 80" fill="none" xmlns="http://www.w3.org/2000/svg">
<g clip-path="url(#clip0_6_759)">
<path d="M73.9959 61.66L41.4295 80.0007V65.7157L61.7202 54.603L73.9959 61.66ZM76.2235 59.6514V21.2947L64.3062 28.1427V52.796L76.2235 59.6514ZM6.00452 61.66L38.5709 80.0007V65.7157L18.2802 54.603L6.00452 61.66ZM3.77686 59.6514V21.2947L15.6939 28.1427V52.796L3.77686 59.6514ZM5.17119 18.813L38.5709 -0.000305176V13.811L17.1735 25.5287L17.0105 25.622L5.17119 18.813ZM74.8295 18.813L41.4295 -0.000305176V13.811L62.8269 25.529L62.9899 25.6224L74.8295 18.813ZM38.5712 62.4664L18.5525 51.5087V29.7947L38.5705 41.303L38.5712 62.4664ZM41.4295 62.4664L61.4472 51.5087V29.7947L41.4295 41.303V62.4664ZM19.9082 27.2817L40.0039 16.2767L60.1002 27.2817L40.0042 38.8367L19.9082 27.2817Z" fill="white"/>
</g>
<defs>
<clipPath id="clip0_6_759">
<rect width="80" height="80" fill="white"/>
</clipPath>
</defs>
</svg>
